<svg width="240" height="61" viewBox="0 0 240 61" fill="none" xmlns="http://www.w3.org/2000/svg">
<rect width="240" height="61" fill="white"/>
<path d="M46.284 44.4968L51.354 29.8628C50.5262 28.8632 49.4884 28.0583 48.3144 27.5052C47.1403 26.9521 45.8588 26.6645 44.561 26.6628H39.514C39.1729 26.6371 38.8557 26.4781 38.6311 26.2202C38.4064 25.9622 38.2925 25.6261 38.314 25.2848C38.301 24.9162 38.4339 24.5575 38.6838 24.2863C38.9338 24.0152 39.2806 23.8537 39.649 23.8368H53.449L56.031 16.3538H39.658C37.3045 16.3718 35.054 17.3212 33.3988 18.9944C31.7436 20.6676 30.8185 22.9282 30.826 25.2818C30.8256 27.6387 31.7497 29.9018 33.3999 31.5847C35.05 33.2675 37.2945 34.236 39.651 34.2818H44.56C44.9059 34.314 45.2272 34.4741 45.4612 34.7309C45.6951 34.9876 45.8248 35.3224 45.8248 35.6698C45.8248 36.0171 45.6951 36.352 45.4612 36.6087C45.2272 36.8654 44.9059 37.0256 44.56 37.0578H26.316V44.6698H44.561C45.1399 44.6704 45.7175 44.6131 46.285 44.4988L46.284 44.4968Z" fill="#002663"/>
<path d="M30.045 16.3228H7.259V23.8228H14.246V44.6028H21.878V23.8188H26.602C26.9136 21.0137 28.121 18.3837 30.045 16.3188V16.3228Z" fill="#002663"/>
<path d="M67.947 16.3538H78.179L85.221 32.3858H85.574L92.616 16.3538H102.852V44.6638H94.807V28.2938H94.57L87.827 44.4418H82.975L76.227 28.1858H75.99V44.6638H67.947V16.3538Z" fill="#0068FF"/>
<path d="M127.168 44.6638H136.042L126.042 16.3538H114.805L104.805 44.6638H113.679L115.43 39.2288H125.415L127.168 44.6638ZM117.289 33.4918L120.305 24.1478H120.542L123.562 33.4918H117.289Z" fill="#0068FF"/>
<path d="M155.28 25.6968C155.163 25.2309 154.957 24.7919 154.674 24.4038C154.392 24.0258 154.043 23.7023 153.645 23.4488C153.206 23.1763 152.726 22.9757 152.224 22.8548C151.646 22.7172 151.053 22.65 150.458 22.6548C149.217 22.6174 147.991 22.9397 146.929 23.5828C145.936 24.226 145.163 25.1562 144.712 26.2498C144.167 27.5814 143.903 29.0113 143.936 30.4498C143.899 31.9067 144.146 33.3569 144.662 34.7198C145.085 35.8258 145.838 36.7746 146.82 37.4368C147.891 38.0931 149.132 38.4196 150.387 38.3758C151.452 38.408 152.513 38.2341 153.512 37.8638C154.265 37.6006 154.914 37.1025 155.362 36.4429C155.811 35.7832 156.036 34.9969 156.004 34.1998L157.425 34.3398H150.515V28.8488H163.946V32.7778C164.018 35.1019 163.408 37.3963 162.191 39.3778C161.018 41.209 159.345 42.6663 157.37 43.5778C155.164 44.5825 152.76 45.08 150.336 45.0338C147.643 45.0936 144.977 44.491 142.572 43.2788C140.387 42.1518 138.576 40.4149 137.359 38.2788C136.062 35.9136 135.416 33.2464 135.488 30.5498C135.455 28.4222 135.851 26.3097 136.653 24.3388C137.373 22.599 138.46 21.0352 139.84 19.7548C141.209 18.505 142.814 17.5415 144.56 16.9208C148.031 15.7336 151.783 15.647 155.305 16.6728C156.766 17.1105 158.145 17.7881 159.384 18.6778C160.536 19.5151 161.513 20.57 162.26 21.7828C162.991 22.971 163.446 24.3082 163.591 25.6958L155.28 25.6968Z" fill="#0068FF"/>
<path d="M175.995 16.3538V44.6638H167.773V16.3538H175.995Z" fill="#0068FF"/>
<path d="M206.556 16.3538V44.6638H199.697L188.75 29.7888H188.571V44.6638H180.35V16.3538H187.337L198.105 31.1708H198.342V16.3538H206.556Z" fill="#0068FF"/>
<path d="M210.91 44.6638V16.3538H232.741V22.5648H219.155V27.4098H231.627V33.6208H219.136V38.4808H232.68V44.6918L210.91 44.6638Z" fill="#0068FF"/>
<path d="M60.603 16.3538L55.323 31.6208V44.6598H63.545V16.3538H60.603Z" fill="#0068FF"/>
</svg>
