<svg data-name="Layer 1" version="1.1" id="svg8" sodipodi:docname="logo-ageas.svg" inkscape:version="1.2 (dc2aedaf03, 2022-05-15)" xmlns:inkscape="http://www.inkscape.org/namespaces/inkscape" xmlns:sodipodi="http://sodipodi.sourceforge.net/DTD/sodipodi-0.dtd" xmlns="http://www.w3.org/2000/svg" xmlns:svg="http://www.w3.org/2000/svg" viewBox="0.48 0.8 48.9 16.73">
  <defs id="defs12"/>
  <sodipodi:namedview id="namedview10" pagecolor="#505050" bordercolor="#eeeeee" borderopacity="1" inkscape:showpageshadow="0" inkscape:pageopacity="0" inkscape:pagecheckerboard="0" inkscape:deskcolor="#505050" showgrid="false" inkscape:zoom="26.960784" inkscape:cx="24.609818" inkscape:cy="9.0316364" inkscape:window-width="1920" inkscape:window-height="1001" inkscape:window-x="-9" inkscape:window-y="-9" inkscape:window-maximized="1" inkscape:current-layer="svg8"/>
  <title id="title2">logo-ageas</title>
  <path d="M 18,2.3 C 17.25904,1.2732917 16.030863,0.71433808 14.77,0.83 c -1.016907,-0.0310646 -2.007438,0.3265281 -2.77,1 -1.13,1.13 -1.38,2.88 -1.38,4.73 0,1.85 0.25,3.59 1.38,4.72 0.749615,0.67518 1.731704,1.033606 2.74,1 1.240903,0.08208 2.438582,-0.471563 3.18,-1.47 v 1.78 c 0,1.94 -0.92,3.48 -3.11,3.48 -1.028984,0.04312 -2.024475,-0.370452 -2.72,-1.13 L 11,16 c 1.003518,1.039014 2.407352,1.593256 3.85,1.52 2.721044,0.141419 4.945125,-2.143789 4.73,-4.86 V 1 H 18 Z m -2.84,8.48 c -2.47,0 -2.83,-2.12 -2.83,-4.24 0,-2.12 0.37,-4.24 2.83,-4.24 2.46,0 2.81,2.12 2.81,4.24 0,2.12 -0.39,4.25 -2.86,4.25 z M 5,0.83 C 3.1,0.83 2,1.2 0.94,2.51 l 1.13,1 C 2.7120138,2.5873862 3.8159021,2.1010578 4.93,2.25 7,2.25 7.83,3.08 7.83,4.74 V 5.83 H 4.42 C 1.88,5.83 0.5,7.12 0.5,9.1 c -0.0283421,0.8513177 0.27661934,1.680095 0.85,2.31 0.8711625,0.788671 2.0450556,1.154369 3.21,1 1.2192929,0.115391 2.4242531,-0.334166 3.27,-1.22 v 1.08 H 9.49 V 4.61 C 9.49,2.14 8,0.83 5,0.83 Z M 7.83,8.3 c 0.091285,0.7181668 -0.1186548,1.4420959 -0.58,2 -0.7108085,0.572064 -1.6262331,0.825343 -2.53,0.7 -1.8,0 -2.61,-0.62 -2.61,-1.94 0,-1.32 0.83,-2 2.54,-2 H 7.83 Z M 46,5.92 44.18,5.76 c -1.43,-0.12 -2,-0.69 -2,-1.66 0,-1.15 0.87,-1.87 2.53,-1.87 1.072015,-0.040038 2.127054,0.2764738 3,0.9 L 48.84,2 C 47.651981,1.15871 46.213316,0.74615153 44.76,0.83 42.34,0.83 40.59,2.08 40.59,4.15 40.59,6 41.76,7 44,7.19 l 1.87,0.16 c 1.31,0.11 1.89,0.67 1.89,1.66 0,1.34 -1.15,2 -3,2 -1.325712,0.09504 -2.628727,-0.381763 -3.58,-1.31 l -1.1,1.11 c 1.261581,1.164453 2.947198,1.757674 4.66,1.64 2.74,0 4.61,-1.27 4.61,-3.46 C 49.35,6.8 48,6.11 46,5.92 Z M 39.31,3.45 C 39.12068,2.6425274 38.616676,1.9441229 37.91,1.51 36.989605,1.0169813 35.953021,0.78202209 34.91,0.83 33.624476,0.73435138 32.353908,1.1554746 31.38,2 31.32,2.06 30.85,2.52 30.9,2.57 l 0.34,0.31 0.77,0.71 c 0.4549,-0.685908 1.184115,-1.1416677 2,-1.25 0.905177,-0.1655831 1.839257,-0.054051 2.68,0.32 0.594769,0.356075 0.970567,0.9874154 1,1.68 v 1.53 h -3.06 c -0.714847,-0.026783 -1.428885,0.071355 -2.11,0.29 -0.962571,0.4430432 -1.790641,1.1331022 -2.4,2 -0.521965,0.7179658 -1.107675,1.3873486 -1.75,2 -0.430092,0.377673 -0.939173,0.654421 -1.49,0.81 -0.520372,0.124717 -1.058878,0.155199 -1.59,0.09 -0.770624,-0.06314 -1.487111,-0.421386 -2,-1 C 22.783067,9.3864043 22.496669,8.5726154 22.47,7.73 V 7.18 h 7.65 V 6.34 C 30.236753,4.6325251 29.588154,2.9615569 28.35,1.78 27.036396,0.7918711 25.309151,0.54296677 23.77,1.12 22.292295,1.7626882 21.246858,3.1176053 21,4.71 c -0.201805,1.0070808 -0.245663,2.039432 -0.13,3.06 0.07483,0.867206 0.32307,1.7105498 0.73,2.48 0.75316,1.277215 2.098948,2.089199 3.58,2.16 1.03831,0.136391 2.094218,-0.0051 3.06,-0.41 0.981016,-0.564246 1.827311,-1.335466 2.48,-2.26 0.05964,0.818884 0.440675,1.58096 1.06,2.12 0.571085,0.360306 1.22556,0.566982 1.9,0.6 0.798744,0.09275 1.607548,0.04537 2.39,-0.14 0.652598,-0.19313 1.242533,-0.555371 1.71,-1.05 v 1.03 h 1.66 V 6 c 0.05937,-0.8621101 0.01573,-1.7282248 -0.13,-2.58 z M 22.82,3.94 c 0.633131,-1.38779 2.225128,-2.0576465 3.66,-1.54 0.664722,0.24833 1.208794,0.7422902 1.52,1.38 0.283027,0.6460602 0.426161,1.3446916 0.42,2.05 h -6 c 0.02243,-0.6484647 0.157794,-1.288048 0.4,-1.89 z m 15,4.36 c 0.02493,0.5162986 -0.06382,1.0317734 -0.26,1.51 -0.215749,0.413974 -0.569513,0.739437 -1,0.92 -0.495601,0.197382 -1.026891,0.289336 -1.56,0.27 -0.502656,0.02871 -1.006909,-0.0083 -1.5,-0.11 -0.704966,-0.116329 -1.263291,-0.658701 -1.4,-1.36 -0.186706,-0.7302345 0.05298,-1.5034203 0.62,-2 0.594172,-0.3799257 1.297497,-0.5522403 2,-0.49 h 3.08 c 0.02262,0.4199545 0.01594,0.8409749 -0.02,1.26 z" fill="#646464" id="path4" sodipodi:nodetypes="cccscccscccccccccsssccscccscsccccccsscccssccccsccccsccsccccsccccccccccccccccccccccccccccccccccccccccccccccccccccccccc" style="--darkreader-inline-fill: #4b5255;" data-darkreader-inline-fill=""/>
</svg>