<svg width="213" height="45" fill="none" xmlns="http://www.w3.org/2000/svg"><path fill-rule="evenodd" clip-rule="evenodd" d="M209.555 44.338c-1.915 0-3.459-1.64-3.459-3.667s1.544-3.667 3.459-3.667c1.902 0 3.445 1.64 3.445 3.667s-1.543 3.667-3.445 3.667Zm2.963-3.667c0-1.779-1.323-3.226-2.963-3.226-1.64 0-2.963 1.447-2.963 3.226 0 1.792 1.323 3.24 2.963 3.24 1.64 0 2.963-1.448 2.963-3.24Zm-1.943 1.971-1.172-1.737h-.385v1.669h-.676V38.52h1.185c.827 0 1.378.428 1.378 1.186 0 .579-.303.965-.799 1.117l1.13 1.654-.661.166Zm-1.034-3.474h-.51v1.186h.483c.441 0 .716-.18.716-.593 0-.4-.248-.593-.689-.593ZM39.742 0v44.352h-8.599l-.014-11.43H15.847c-.22.387-6.793 11.416-6.793 11.416H0L26.637.014C26.637 0 39.742 0 39.742 0Zm-8.626 7.417s-9.853 16.586-10.5 17.661h10.5V7.418ZM54.184.014v44.338h-8.351V0l8.35.014Zm6.077 0h8.35v44.352h-8.35V.014Zm37.992 34.508c.04 2.937-.772 5.294-2.44 7.045-2.122 2.234-5.567 3.364-10.238 3.364-4.81 0-9.37-1.585-12.044-3.116l-.248-.138 1.157-7.43.51.344c3.432 2.33 7.373 3.667 10.887 3.667 3.348 0 4.616-.827 4.644-3.019.027-2.426-.965-3.185-5.898-4.44-7.455-1.985-10.611-3.915-10.749-10.753-.041-2.537.813-4.812 2.467-6.576 2.094-2.206 5.333-3.42 9.15-3.42 3.969 0 7.69.786 10.803 2.248l.276.138-1.144 7.403-.482-.29c-3.032-1.764-6.56-2.812-9.453-2.812-2.329 0-3.735 1.02-3.831 2.799-.124 1.958.827 2.647 5.374 3.874 7.58 2.027 11.148 3.764 11.259 11.112Zm21.373 9.775-.372.083c-1.227.275-2.619.537-4.879.537-7 0-10.404-3.295-10.404-10.023V17.895h-4.285v-7.224h4.285V.014h8.227V10.67h6.229l-.111 7.224h-6.118v15.69c0 2.509 1.144 3.653 3.624 3.653.992 0 1.723-.083 2.288-.234l.441-.124 1.075 7.417Zm28.883-23.024v23.079h-7.221s-.413-2.73-.579-3.709c-2.907 2.923-6.063 4.357-9.853 4.357-5.498 0-9.026-3.654-9.026-9.306 0-7.652 6.009-12.008 18.342-13.318v-.869c0-3.047-1.557-4.453-4.837-4.453-3.087 0-6.256.8-10.004 2.523l-.469.207-1.075-7.114.303-.124c3.115-1.255 7.042-2.564 12.237-2.564 8.31 0 12.182 3.598 12.182 11.291Zm-8.337 13.8V27.78c-6.587.91-10.06 3.35-10.06 7.073 0 2.096 1.268 3.405 3.335 3.405 2.357 0 4.685-1.117 6.725-3.184Zm30.84 9.224-.358.083c-1.172.261-2.619.537-4.879.537-7 0-10.431-3.295-10.431-10.023V17.895h-4.258v-7.224h4.258V.014h8.24V10.67h6.243l-.11 7.224h-6.133v15.69c0 2.509 1.158 3.653 3.652 3.653.965 0 1.709-.083 2.274-.234l.427-.124 1.075 7.417Zm28.084-10.395 1.02 7.03-.207.153c-3.638 2.578-7.8 3.915-12.402 3.915-9.398 0-15.269-6.659-15.269-17.399 0-5.942 1.585-10.726 4.575-13.8 2.453-2.551 5.719-3.847 9.688-3.833 9.053.014 13.642 5.818 13.642 17.233l-.096 2.303h-19.458c.469 5.473 3.266 8.616 7.745 8.616 3.458 0 6.504-1.158 10.252-3.846l.51-.372Zm-7.152-10.092c-.165-3.571-1.309-7.597-5.636-7.597-3.197 0-5.237 2.771-5.609 7.597h11.245Z" fill="#0033A0"/></svg>