<svg xmlns="http://www.w3.org/2000/svg" viewBox="0 0 120 24" fill="none">
  <style>
    .text { fill: #032325; }
    @media (prefers-color-scheme: dark) {
      .text { fill: white; }
    }
  </style>
  <mask id="mask0_426_3085" style="mask-type:luminance" maskUnits="userSpaceOnUse" x="0" y="0" width="120" height="24"><path d="M0 0H120V24H0V0Z" fill="white"/></mask>
  <g mask="url(#mask0_426_3085)">
    <path class="text" d="M47.5173 4.74334C47.5152 5.33495 47.2837 5.90173 46.8733 6.32015C46.6707 6.52666 46.43 6.69038 46.1652 6.80191C45.9003 6.91345 45.6164 6.9706 45.3299 6.97009C45.0433 6.96959 44.7596 6.91144 44.4951 6.79897C44.2307 6.68651 43.9906 6.52194 43.7886 6.31472C43.3795 5.89475 43.1499 5.32697 43.1499 4.73519C43.1499 4.1434 43.3795 3.57562 43.7886 3.15566C43.9906 2.94851 44.2307 2.78402 44.4952 2.67161C44.7597 2.5592 45.0433 2.50107 45.3299 2.50057C45.6164 2.50006 45.9003 2.55719 46.1651 2.66867C46.43 2.78015 46.6706 2.94379 46.8733 3.15022C47.2833 3.56804 47.5146 4.13531 47.5166 4.72704L47.5173 4.74334ZM47.456 23.4939H43.1966V8.19656H47.456V23.4939ZM54.2433 23.4939H49.9846V2.98718L54.2433 0V23.4939ZM60.9213 23.4939H56.6613V2.98718L60.9213 0V23.4939ZM69.174 23.4939H64.9153V11.8631H62.4066V8.19792H64.916V6.0124L69.1746 3.01639V8.19588H71.7953V11.8624H69.178L69.174 23.4939ZM117.382 23.4939H113.124V11.8631H110.615V8.19792H113.124V6.0124L117.382 3.01639V8.19588H120V11.8624H117.382V23.4939ZM82.0486 11.5818C82.3091 11.5832 82.5671 11.6081 82.8226 11.6566V8.07156C81.3793 8.07156 79.2886 7.72169 77.606 9.78492H77.5453V8.19656H73.284V23.4939H77.5453V16.6092C77.5466 16.4312 77.5602 16.2541 77.586 16.0779C77.611 14.8821 78.0916 13.7431 78.926 12.9019C79.7577 12.0632 80.8785 11.5894 82.0486 11.5818ZM107.425 11.8128C106.816 11.2218 106.025 10.753 105.171 10.753C104.472 10.753 103.773 11.3142 103.773 12.0615C103.773 13.1838 105.324 13.4956 106.846 14.1811C108.397 14.8673 109.919 15.9271 109.919 18.5746C109.919 21.9694 107.24 24.0061 104.107 24.0061C103.099 23.9997 102.105 23.7672 101.195 23.3254C100.285 22.8824 99.4808 22.2404 98.8413 21.4449L100.789 18.8592C101.61 19.794 102.705 20.6344 103.952 20.6344C104.897 20.6344 105.657 19.9788 105.657 18.9836C105.657 17.6425 104.167 17.3307 102.673 16.6751C101.181 16.0202 99.6906 15.1139 99.6906 12.6532C99.6906 9.78628 101.638 7.69791 104.438 7.69791C106.019 7.69791 108.027 8.19724 109.244 9.28695L107.425 11.8128ZM93.61 8.19588V17.9108C93.6064 18.0232 93.594 18.1348 93.5726 18.2458C93.5336 18.5028 93.4546 18.7519 93.3386 18.9836C93.2967 19.0754 93.2497 19.1647 93.198 19.2512C92.9568 19.6528 92.5931 19.9628 92.1626 20.1337C91.8461 20.2785 91.5024 20.3511 91.1555 20.3467C90.8086 20.3422 90.4668 20.2607 90.154 20.1079C90.0719 20.0705 89.9927 20.0267 89.9173 19.9768C89.5767 19.7652 89.2928 19.4712 89.0906 19.1208C88.8879 18.7696 88.773 18.373 88.756 17.9659L88.748 17.9591V8.19588H84.482V17.1995C84.482 21.6562 86.736 23.9918 91.1773 23.9918C95.6186 23.9918 97.8726 21.6555 97.8726 17.1995V8.19588H93.61ZM33.9333 8.12591C32.3823 8.12792 30.8711 8.62651 29.6133 9.55122V0.621621L25.3486 3.61967V23.502H29.6093V22.1188C30.5734 22.8146 31.6856 23.2677 32.8548 23.4409C34.0239 23.6142 35.2166 23.5026 36.3353 23.1155C37.4552 22.7279 38.4695 22.0761 39.2953 21.2132C40.1234 20.3495 40.7399 19.2988 41.0946 18.1466C41.4502 16.9937 41.5356 15.772 41.344 14.5794C41.1523 13.3868 40.6891 12.2566 39.9913 11.2795C39.2941 10.3053 38.3814 9.51209 37.3273 8.96425C36.275 8.41753 35.1105 8.13301 33.9293 8.13406L33.9333 8.12591ZM33.9333 19.4802C33.2246 19.4823 32.5313 19.2692 31.942 18.8681C31.3518 18.4656 30.8916 17.8943 30.6193 17.226C30.3469 16.5567 30.2743 15.8203 30.4107 15.1091C30.547 14.3979 30.8863 13.7435 31.386 13.228C31.884 12.714 32.521 12.3631 33.2157 12.2201C33.9105 12.077 34.6312 12.1484 35.286 12.4249C35.9416 12.7018 36.5019 13.1706 36.896 13.7721C37.2906 14.3747 37.5013 15.0833 37.5026 15.8082V15.8177C37.5057 16.7862 37.1328 17.7167 36.4653 18.4061C36.1354 18.7457 35.743 19.0157 35.3106 19.2005C34.8782 19.3854 34.4142 19.4816 33.9453 19.4836L33.9333 19.4802Z"/>
    <path fill-rule="evenodd" clip-rule="evenodd" d="M11.7239 23.4939H0.335938L4.46127 18.4992H14.1239C15.6939 18.4992 17.7619 15.885 18.3153 13.9501C18.3153 19.2275 16.4586 23.4939 11.7239 23.4939Z" fill="#38B270"/>
    <path fill-rule="evenodd" clip-rule="evenodd" d="M18.3139 13.9529V3.99335L14.1226 9.06686V18.4992C15.7099 18.4992 17.7606 15.8857 18.3139 13.9529Z" fill="#11865D"/>
    <path fill-rule="evenodd" clip-rule="evenodd" d="M6.59133 3.58704H17.9793L13.8547 8.58378H4.192C2.62133 8.58378 0.553333 11.1987 0 13.1321C0 7.85618 1.856 3.58704 6.59133 3.58704Z" fill="#38B270"/>
    <path fill-rule="evenodd" clip-rule="evenodd" d="M0 13.1301V23.0896L4.192 18.0161V8.5838C2.61333 8.5838 0.553333 11.2014 0 13.1301Z" fill="#11865D"/>
  </g>
</svg>
