<svg version="1.2" xmlns="http://www.w3.org/2000/svg" viewBox="0 0 1610 315" width="1610" height="315">
	<title>logo (3)-svg</title>
	<style>
		.s0 { fill: #000000 } 
		.s1 { fill: #53ba65 } 
		.s2 { fill: #008156 } 
		.s3 { fill: #2196cb } 
		.s4 { fill: #154b8e } 
	</style>
	<g id="Full_Color">
		<path id="Layer" fill-rule="evenodd" class="s0" d="m637.4 62.1c0 11.9-7.1 22.6-18.1 27.2-11 4.5-23.6 2-32.1-6.4-8.4-8.4-10.9-21-6.3-32 4.5-11 15.2-18.2 27.1-18.2 3.9 0 7.7 0.8 11.3 2.2 3.6 1.5 6.8 3.7 9.5 6.4 2.8 2.7 4.9 6 6.4 9.6 1.5 3.5 2.2 7.4 2.2 11.2zm-57.9 45.2h57.1v200.4h-57.1zm148.2 200.3h-57.2v-268.6l57.2-39.1zm89.6 0h-57.2v-268.6l57.2-39zm110.7 0h-57.2v-152.3h-33.6v-48.1h33.6v-28.6l57.2-39.2v67.8h35.1v48.1h-35.1zm646.7 0h-57.2v-152.4h-33.6v-48h33.6v-28.6l57.2-39.2v67.8h35.1v48h-35.1zm-496.6-151.4c-7.2 3-13.8 7.3-19.3 12.7-5.5 5.5-10 11.9-13.1 19.1-3 7.1-4.7 14.8-4.9 22.5q-0.1 0.9-0.2 1.8-0.1 0.8-0.2 1.7 0 0.9-0.1 1.7 0 0.9 0 1.8v90.1h-57.2v-200.3h57.2v20.8h0.8c22.6-27 50.6-22.4 70-22.4v46.9q-1.3-0.2-2.6-0.4-1.3-0.2-2.6-0.3-1.3-0.1-2.6-0.2-1.3-0.1-2.6-0.1c-7.8 0.1-15.5 1.6-22.6 4.6zm363-1.6c-8.2-7.7-18.8-13.9-30.2-13.9-9.4 0-18.8 7.4-18.8 17.2 0 14.7 20.8 18.8 41.2 27.7 20.8 9 41.3 22.9 41.3 57.6 0 44.5-36 71.1-78 71.1-6.7-0.1-13.4-0.8-20-2.3-6.6-1.5-13-3.7-19-6.6-6.1-2.9-11.9-6.4-17.2-10.6-5.3-4.1-10.1-8.8-14.4-14l26.1-33.9c11 12.3 25.7 23.3 42.4 23.3 12.7 0 22.9-8.6 22.9-21.6 0-17.6-20-21.7-40-30.2-20-8.6-40-20.4-40-52.7 0-37.5 26.1-64.9 63.7-64.9 21.2 0 48.1 6.5 64.5 20.8zm-128.2-47.3v117.9c0 58.4-30.2 89-89.8 89-59.6 0-89.8-30.6-89.8-89v-117.9h57.3v127.8l0.1 0.1q0.1 4 1.3 7.9 1.1 3.8 3.1 7.2 2.1 3.5 4.9 6.3 2.8 2.9 6.2 5 0.4 0.2 0.8 0.4 0.4 0.3 0.8 0.5 0.4 0.2 0.8 0.4 0.4 0.2 0.8 0.4 3.2 1.5 6.6 2.3 3.4 0.8 6.9 0.8 3.4 0 6.9-0.7 3.4-0.7 6.6-2.1 2.1-0.8 4.1-2 2-1.1 3.7-2.6 1.8-1.5 3.3-3.2 1.5-1.8 2.7-3.7 0.3-0.4 0.6-0.9 0.2-0.4 0.4-0.8 0.3-0.5 0.5-0.9 0.2-0.5 0.4-0.9 0.6-1.2 1.1-2.3 0.5-1.2 0.9-2.4 0.4-1.2 0.7-2.5 0.3-1.2 0.5-2.5 0.1-0.5 0.2-1.1 0.1-0.5 0.1-1.1 0.1-0.5 0.1-1.1 0.1-0.5 0.1-1.1v-127.2zm-857.8-0.8c32.1 0 62.3 15.3 81.3 41.2 19 25.9 24.5 59.3 14.8 89.9-9.7 30.6-33.4 54.8-63.8 65.1-30.4 10.2-64 5.4-90.2-13.1v18.2h-57.2v-260.4l57.2-39.3v116.9q6.3-4.5 13.2-8 7-3.5 14.3-5.8 7.4-2.4 15.1-3.6 7.6-1.2 15.4-1.2zm18.4 145c5.8-2.5 11.1-6 15.5-10.4 4.5-4.5 8-9.8 10.4-15.6 2.4-5.8 3.6-12.1 3.6-18.4 0-19.4-11.7-36.9-29.6-44.3-18-7.4-38.6-3.3-52.4 10.4-13.7 13.8-17.8 34.4-10.3 52.4 7.5 17.9 25 29.5 44.4 29.5 6.3 0 12.6-1.2 18.4-3.6z"/>
		<path id="Layer" fill-rule="evenodd" class="s1" d="m157.3 307.7h-152.8l55.3-65.4h129.7c21 0 48.8-34.3 56.2-59.6 0 69.1-24.9 125-88.4 125z"/>
		<path id="Layer" fill-rule="evenodd" class="s2" d="m189.5 242.3v-123.6l56.2-66.4v130.4c-7.4 25.3-35 59.6-56.2 59.6z"/>
		<path id="Layer" fill-rule="evenodd" class="s3" d="m88.4 47h152.8l-55.3 65.4h-129.7c-21 0-48.8 34.3-56.2 59.6 0-69.1 24.9-125 88.4-125z"/>
		<path id="Layer" fill-rule="evenodd" class="s4" d="m56.2 112.4v123.5l-56.2 66.5v-130.4c7.4-25.3 35.1-59.6 56.2-59.6z"/>
	</g>
</svg>