<svg width="167" height="60" fill="none" xmlns="http://www.w3.org/2000/svg"><path d="M113.338 43.388h-.04c-7.112 5.038-15.502 10.316-24.572 15.873l-.36.2a.279.279 0 0 0-.12.424.279.279 0 0 0 .44.016l.28-.16c7.71-3.998 16.541-8.756 25.411-13.674l.16-.08a9.856 9.856 0 0 1-1.199-2.599Zm46.667-37.823c-11.187-12.354-83.346-1.239-113.99 5.478l-.72.16a.32.32 0 0 0-.24.32.24.24 0 0 0 .32.2l.719-.12c25.411-4.518 78.271-10.795 89.619.48 3.476 3.438 2.677 7.876-1.359 13.114a10.275 10.275 0 0 1 4.395 6.317c15.702-10.436 26.25-20.431 21.256-25.949Z" fill="#CC2427"/><path d="M53.126 33.713a4.154 4.154 0 0 0-2.437.8 3.759 3.759 0 0 0-1.319 2.398c-.24 1.24-.12 2.08.36 2.64a2.838 2.838 0 0 0 2.117.799 4.073 4.073 0 0 0 1.758-.36 3.237 3.237 0 0 0 1.319-1.12 5 5 0 0 0 .76-1.839c.199-1.12.04-1.919-.48-2.479a2.679 2.679 0 0 0-2.078-.84ZM40.7 49.226l3.316-18.712h5.994l-.48 2.4a5.673 5.673 0 0 1 2.517-1.8 10.783 10.783 0 0 1 3.876-.8c1.558 0 2.517.08 3.676.68a4.957 4.957 0 0 1 2.397 2.639 6.722 6.722 0 0 1 .32 3.798 8.281 8.281 0 0 1-3.357 5.478c-1.838 1.32-3.476 1.679-5.833 1.679a8.145 8.145 0 0 1-2.118-.24 4.83 4.83 0 0 1-1.358-.52 6.192 6.192 0 0 1-1.119-1.04l-1.118 6.438H40.7Zm69.162-4.838h-6.952l3.516-19.431 6.752.16-3.316 19.271Zm-34.68-14.034.478-2.838 7.112-1.52-.759 4.358h3.516l-.679 2.839h-3.396l-2.038 11.195h-6.912l2.078-11.195h-2.597l.52-2.799h2.676v-.04ZM19.803 39.39a24.875 24.875 0 0 1-5.674.6c-3.236 0-5.833-1.6-5.673-4.598.08-1.96 2.437-6.117 8.35-6.117a9.704 9.704 0 0 1 5.314 1.44l.84-4.839a16.093 16.093 0 0 0-6.713-1.12c-7.791.08-15.263 3.6-16.182 10.796-.919 7.197 7.991 9.156 11.946 9.156 2.278 0 4.675-.12 6.873-.32l.919-4.998Zm75.794-1.4-1.159.32-2.677.48a4.313 4.313 0 0 0-1.798.56 1.199 1.199 0 0 0-.599.88.88.88 0 0 0 .36.96c.36.24.919.32 1.718.32a6.43 6.43 0 0 0 1.758-.24 4.072 4.072 0 0 0 1.438-.76c.28-.246.487-.564.6-.92a8.973 8.973 0 0 0 .359-1.6Zm7.352-4.597c-.04.68-.16 1.32-.32 2.319l-1.239 6.997a1.282 1.282 0 0 0 .68 1.44v.239h-7.152v-1.8a14.376 14.376 0 0 1-3.436 1.48 12.857 12.857 0 0 1-3.437.4c-2.277 0-3.595-.24-4.514-1.04-.92-.8-1.359-1.359-1.319-2.478a3.8 3.8 0 0 1 .88-2.08 5.314 5.314 0 0 1 1.877-1.319 10.142 10.142 0 0 1 2.837-.8c1.278-.2 3.036-.4 5.394-.6a9.581 9.581 0 0 0 2.317-.52c.48-.199.68-.399.76-.799.08-.4-.08-1.12-1.04-1.32-2.557-.519-7.351.32-9.829.92l1.319-3.598a64.57 64.57 0 0 1 9.55-.8c5.073.04 6.712 1.52 6.672 3.359ZM62.116 44.388l2.477-13.954h6.832l-2.477 13.954h-6.832Zm2.877-17.152c.2-1.16 1.997-2.08 4.035-2.08 2.038 0 3.476.92 3.276 2.08-.2 1.16-1.997 2.079-4.035 2.079-2.038 0-3.476-.96-3.276-2.08ZM34.148 37.95a5.189 5.189 0 0 1-1.16.32l-2.636.48a4.313 4.313 0 0 0-1.838.56 1.278 1.278 0 0 0-.6.919.84.84 0 0 0 .4.92c.51.285 1.095.41 1.678.36a6.466 6.466 0 0 0 1.758-.28 4.075 4.075 0 0 0 1.439-.76 2.04 2.04 0 0 0 .599-.92 5.882 5.882 0 0 0 .36-1.6Zm7.351-4.558c-.04.68-.16 1.28-.32 2.319l-1.238 6.957a1.28 1.28 0 0 0 .68 1.44v.279h-7.153v-1.76a16.056 16.056 0 0 1-3.436 1.44c-1.107.3-2.25.447-3.396.44-2.317 0-3.636-.24-4.515-1.04-.879-.8-1.398-1.359-1.358-2.519.085-.751.391-1.46.879-2.038a5.394 5.394 0 0 1 1.878-1.36c.92-.39 1.887-.659 2.876-.8 1.239-.2 2.997-.4 5.354-.6a6.268 6.268 0 0 0 2.318-.52c.519-.199.679-.399.759-.799.08-.4-.08-1.12-1.04-1.32-2.556-.479-7.35.32-9.828.96l1.319-3.638a65.114 65.114 0 0 1 9.549-.8c5.074 0 6.712 1.48 6.672 3.359Zm96.171 1.88 1.559-.16c.519 0 .959.12.998.6.04.48-.519 2.399-.639 2.919l-1.079 4.678a147.794 147.794 0 0 1-1.278 5.517h2.717l1.518-7.437c4.715-4.878 6.513-6.477 7.591-6.477a.799.799 0 0 1 .879.88c.04.84-.519 2.799-.679 3.358l-1.598 5.398c-.32 1.24-.599 2.319-.559 3.118.04.8.759 1.72 1.798 1.72 1.997 0 3.476-2.08 4.714-4.118l-.359-.68c-.52.8-1.678 2.599-2.637 2.599-.28 0-.56-.2-.56-.68a8.229 8.229 0 0 1 .4-2.199l1.758-6.357c.439-1.76.679-2.879.679-3.479 0-.6-.759-1.719-1.798-1.719-1.798 0-4.195 1.32-9.229 7.117h-.08l.639-2.839c.36-1.559.679-3.158.999-4.278a45.728 45.728 0 0 1-5.794 1.64l.04.88Zm26.73.16c-.04-1.12-.599-1.88-1.758-1.88-2.797 0-5.753 5.478-6.273 7.677 4.555 0 8.151-2.718 8.031-5.797Zm.599 8.596.52.36c-1.359 2.759-4.115 4.998-7.392 4.998-2.677 0-4.834-1.76-4.954-5.078-.24-5.997 5.394-11.555 9.949-11.555 1.957 0 3.795.88 3.875 2.999.16 4.758-6.512 6.197-10.907 6.277a5.725 5.725 0 0 0-.16 1.76c.08 1.998 1.278 3.638 3.715 3.638 2.438 0 4.276-1.72 5.354-3.399Zm-47.106-3.878c.12 4.358 2.876 7.916 6.472 7.916 6.953 0 9.909-8.556 9.709-14.273-.159-4.358-2.956-7.917-6.552-7.917-5.993 0-9.869 8.516-9.629 14.274Zm-3.676-.24c-.28-7.437 5.554-15.033 13.984-15.033 5.674 0 9.349 3.798 9.549 9.555.28 7.837-5.154 15.034-13.984 15.034-5.673 0-9.349-3.759-9.549-9.556Z" fill="#013D5B"/></svg>