<svg width="197" height="50" fill="none" xmlns="http://www.w3.org/2000/svg"><path d="M19.607 0v17.296a14.93 14.93 0 0 0 10.572-4.379 15.038 15.038 0 0 0 4.398-10.594V0h-14.97Zm14.97 35.557V18.26a14.918 14.918 0 0 0-10.567 4.38 15.025 15.025 0 0 0-4.39 10.594v2.323h14.957Z" fill="#FFCE34"/><path d="M14.498 35.557a18.061 18.061 0 0 1-10.412-6.292A18.177 18.177 0 0 1 0 17.778c0-4.187 1.444-8.246 4.087-11.486A18.061 18.061 0 0 1 14.497 0v35.557Z" fill="#F57F29"/><path d="M60.036 32.122c-4.924 0-8.876-1.52-11.708-4.51a13.979 13.979 0 0 1-2.924-4.623 14.018 14.018 0 0 1-.929-5.396 15.114 15.114 0 0 1 4.173-10.674 16.541 16.541 0 0 1 5.749-3.811 16.493 16.493 0 0 1 6.796-1.131 18.62 18.62 0 0 1 8.458 1.853.32.32 0 0 1 .172.284v6.178a.322.322 0 0 1-.258.308h-.062a.307.307 0 0 1-.283-.197c-1.49-3.756-4.395-5.547-8.876-5.547a10.248 10.248 0 0 0-4.586.88 10.284 10.284 0 0 0-3.724 2.826 12.383 12.383 0 0 0-2.807 8.24 12.791 12.791 0 0 0 2.905 8.451 10.8 10.8 0 0 0 3.904 2.925c1.506.664 3.144.973 4.788.905a12.422 12.422 0 0 0 5.089-1.16 12.463 12.463 0 0 0 4.169-3.152.319.319 0 0 1 .184-.061h.111a.308.308 0 0 1 .197.296v2.755c0 .083-.03.162-.086.222a13.945 13.945 0 0 1-4.792 3.173 13.905 13.905 0 0 1-5.66.966Zm59.031-27.304a13.94 13.94 0 0 0-5.527.938 13.979 13.979 0 0 0-4.716 3.04 13.558 13.558 0 0 0-3.989 9.958c-.064 1.768.23 3.53.865 5.18a13.058 13.058 0 0 0 2.829 4.42 13.198 13.198 0 0 0 4.505 2.9c1.683.648 3.48.943 5.282.868a13.821 13.821 0 0 0 5.569-.963 13.868 13.868 0 0 0 4.723-3.114 13.508 13.508 0 0 0 2.941-4.545c.664-1.698.979-3.515.924-5.339a12.867 12.867 0 0 0-.872-5.219 12.821 12.821 0 0 0-2.897-4.421 12.773 12.773 0 0 0-4.43-2.871 12.735 12.735 0 0 0-5.207-.832Zm9.208 14.245a10.511 10.511 0 0 1-2.548 7.326 8.517 8.517 0 0 1-6.574 2.78 9.155 9.155 0 0 1-3.997-.783 9.19 9.19 0 0 1-3.267-2.441 12.312 12.312 0 0 1-2.782-8.327 10.194 10.194 0 0 1 2.462-7.178 8.593 8.593 0 0 1 6.636-2.668 9.217 9.217 0 0 1 7.288 3.15 12.002 12.002 0 0 1 2.758 8.129m14.391-10.897a1.473 1.473 0 0 1 0-.21 2.03 2.03 0 0 1 1.588-1.656.432.432 0 0 0 .32-.457.447.447 0 0 0-.431-.395h-7.312a.432.432 0 0 0-.47.39.432.432 0 0 0 .384.475c.456.09.867.337 1.163.697.296.36.459.812.462 1.28v20.446a2.035 2.035 0 0 1-.462 1.28c-.296.36-.707.606-1.163.697a.233.233 0 0 0-.185.086.463.463 0 0 0-.123.346.446.446 0 0 0 .431.408h7.288a.433.433 0 0 0 .431-.432.37.37 0 0 0-.308-.395 2.018 2.018 0 0 1-1.179-.692 2.033 2.033 0 0 1-.471-1.286V8.154m29.362 17.012a.43.43 0 0 0-.481.111 10.992 10.992 0 0 1-3.675 2.78 10.961 10.961 0 0 1-4.487 1.026 9.463 9.463 0 0 1-4.212-.798 9.497 9.497 0 0 1-3.433-2.575 11.303 11.303 0 0 1-2.56-7.413c-.081-2.64.794-5.22 2.462-7.264a9.048 9.048 0 0 1 3.279-2.48 9.02 9.02 0 0 1 4.033-.77c3.965 0 6.525 1.57 7.83 4.806a.43.43 0 0 0 .48.272.443.443 0 0 0 .357-.432V6.882a.445.445 0 0 0-.234-.396 16.836 16.836 0 0 0-7.571-1.668 14.898 14.898 0 0 0-6.14 1.038 14.952 14.952 0 0 0-5.186 3.46 13.624 13.624 0 0 0-3.779 9.71 12.672 12.672 0 0 0 3.484 9.056 13.953 13.953 0 0 0 4.857 3.163 13.914 13.914 0 0 0 5.718.914c1.754.059 3.501-.25 5.129-.907a12.611 12.611 0 0 0 4.326-2.91.437.437 0 0 0 .123-.297v-2.471a.43.43 0 0 0-.271-.408m24.634-.271a.443.443 0 0 0-.517.247l-.086.172a5.24 5.24 0 0 1-1.925 2.49 5.207 5.207 0 0 1-3 .933h-8.408V19.57h7.793c1.625 0 2.462.469 2.647 1.42a.43.43 0 0 0 .431.371.432.432 0 0 0 .393-.432v-5.436a.434.434 0 0 0-.861-.087c-.197.964-1.084 1.433-2.696 1.433h-7.756V7.92h8.79c.847.01 1.665.31 2.317.852a3.706 3.706 0 0 1 1.265 2.126.457.457 0 0 0 .419.346.43.43 0 0 0 .381-.433V5.868a.432.432 0 0 0-.43-.432h-18.602a.433.433 0 0 0-.062.865 2.018 2.018 0 0 1 1.785 1.989v20.397a2.027 2.027 0 0 1-1.575 1.965h-.087a.43.43 0 0 0-.4.463.433.433 0 0 0 .462.401h18.651a.443.443 0 0 0 .431-.37l.985-5.757a.445.445 0 0 0-.308-.494M99.418 8.265a2.03 2.03 0 0 1 .433-1.26 2.018 2.018 0 0 1 1.119-.716.43.43 0 0 0 .332-.458.445.445 0 0 0-.332-.407h-7.387a.43.43 0 0 0-.413.388.434.434 0 0 0 .327.464 2.002 2.002 0 0 1 1.588 1.977v8.562H80.891v-8.55a2.038 2.038 0 0 1 1.612-1.977.419.419 0 0 0 .308-.445.433.433 0 0 0-.308-.42h-7.386a.43.43 0 0 0-.431.408.421.421 0 0 0 .32.445h.185a2.006 2.006 0 0 1 1.452 1.668v20.731c0 .451-.15.89-.427 1.245a2.019 2.019 0 0 1-1.1.72l-.16.073a.432.432 0 0 0-.27.42.445.445 0 0 0 .43.408h7.387a.43.43 0 0 0 .431-.407.434.434 0 0 0-.27-.433h-.16a2.018 2.018 0 0 1-1.115-.712 2.031 2.031 0 0 1-.437-1.252v-9.093h14.195v8.821a2.48 2.48 0 0 1-.099.914 2.027 2.027 0 0 1-1.428 1.236l-.172.074a.432.432 0 0 0 .184.828h7.387a.431.431 0 0 0 .395-.627.432.432 0 0 0-.21-.201l-.234-.05a2.006 2.006 0 0 1-1.118-.71 2.018 2.018 0 0 1-.434-1.254V8.265Z" fill="#6A634D"/><path d="M87.637 45.119h3.829v-3.348h1.403v8.055h-1.403V46.43h-3.829v3.397h-1.403v-8.055h1.403v3.348Zm15.327 4.843a4.138 4.138 0 0 1-2.3-.707 4.177 4.177 0 0 1-.621-6.4 4.14 4.14 0 0 1 6.378.623c.457.683.702 1.486.704 2.308a4.102 4.102 0 0 1-1.209 2.997 4.075 4.075 0 0 1-3.001 1.179m0-7.03a2.713 2.713 0 0 0-1.961.848 2.74 2.74 0 0 0-.748 2.006 2.777 2.777 0 0 0 1.66 2.65c.339.148.704.226 1.073.229a2.715 2.715 0 0 0 2.539-1.774 2.74 2.74 0 0 0 .17-1.08 2.78 2.78 0 0 0-.759-2.02 2.757 2.757 0 0 0-1.974-.859Zm11.547 6.894v-6.745h-2.548v-1.31h6.513v1.31h-2.549v6.745h-1.416Zm11.45-3.434v2.162h4.592v1.272h-6.008v-8.055h5.946v1.272h-4.53v2.088h4.025v1.26h-4.025Zm11.633 3.434v-8.055h1.404v6.77h4.222v1.285h-5.626Zm13.555-4.67c1.699.42 2.573 1.026 2.573 2.372 0 1.347-1.231 2.471-2.869 2.471a4.913 4.913 0 0 1-3.348-1.235l.849-1.013a3.687 3.687 0 0 0 2.536 1.05 1.227 1.227 0 0 0 1.249-.572 1.25 1.25 0 0 0 .167-.454c0-.58-.32-.902-1.81-1.235-1.711-.42-2.671-.927-2.671-2.471a2.46 2.46 0 0 1 .859-1.77 2.452 2.452 0 0 1 1.874-.578 4.421 4.421 0 0 1 2.905 1.014l-.739 1a3.683 3.683 0 0 0-2.179-.827 1.106 1.106 0 0 0-1.305.963c0 .63.37.914 1.909 1.236" fill="#F57F29"/><path d="M155.519 43.513a1.62 1.62 0 0 1 .136-.643 1.686 1.686 0 0 1 .886-.889c.395-.16.836-.16 1.231 0 .399.171.716.49.887.89.158.396.158.839 0 1.235a1.773 1.773 0 0 1-.357.531 1.74 1.74 0 0 1-.53.358 1.656 1.656 0 0 1-1.231 0 1.688 1.688 0 0 1-1.022-1.544m.296 0c0 .183.038.364.111.532.138.328.399.59.726.728a1.376 1.376 0 0 0 1.059 0 1.385 1.385 0 0 0 .837-1.26 1.367 1.367 0 0 0-.111-.531 1.371 1.371 0 0 0-.726-.729 1.377 1.377 0 0 0-1.059 0c-.327.139-.588.4-.726.729a1.331 1.331 0 0 0-.111.531Zm.726-.964h.739c.18-.014.36.039.504.149a.551.551 0 0 1 .161.42.504.504 0 0 1-.124.37.54.54 0 0 1-.32.15l.493.802h-.394l-.48-.778h-.259v.877h-.345V42.55l.025-.063Zm.345.828h.566a.225.225 0 0 0 .148-.222.225.225 0 0 0-.148-.222h-.566v.531-.087Z" fill="#231F20"/></svg>