<svg width="220" height="27" fill="none" xmlns="http://www.w3.org/2000/svg"><path d="M45.86 3.748c-.493-.135-2.22-.416-4.123-.416-2.269 0-7.543.781-7.543 8.024v3.724c0 7.45 5.774 8.029 7.543 8.029 2.1 0 3.813-.328 4.139-.42.246-.074.759-.23.759-.848v-1.688c0-.51-.3-.815-.793-.815h-.079c-.556.053-2.482.206-3.977.206-2.318 0-3.44-1.458-3.44-4.464v-3.724c0-3.044 1.092-4.459 3.44-4.459 1.495 0 3.421.152 4.006.201h.05c.492 0 .793-.298.793-.804V4.598c0-.618-.534-.783-.776-.85Zm6.932 7.758c0-3.15 1.06-4.557 3.437-4.557 2.382 0 3.444 1.408 3.444 4.557v3.422c0 3.158-1.062 4.566-3.444 4.566-2.378 0-3.437-1.408-3.437-4.566v-3.422Zm3.437-8.174c-4.893 0-7.587 2.903-7.587 8.174v3.422c0 5.275 2.694 8.18 7.587 8.18 4.902 0 7.592-2.905 7.592-8.18v-3.422c0-5.271-2.69-8.174-7.592-8.174ZM77.17 19.544h-4.718c-1.35 0-1.723-.413-1.723-1.903V4.313a.79.79 0 0 0-.793-.78h-2.535a.785.785 0 0 0-.792.78v13.328c0 4.848 3.311 5.468 6.198 5.468 1.414 0 3.646-.18 4.423-.362.44-.09.732-.259.732-.798v-1.623a.783.783 0 0 0-.792-.782Zm6.8-12.573a39.047 39.047 0 0 1 2.002-.074c2.47 0 3.571.752 3.571 2.435v.228c0 1.964-.935 2.662-3.57 2.662-.36 0-1.432-.035-2.003-.06v-5.19Zm6.324 7.894c2.195-.955 3.345-2.786 3.345-5.305v-.228c0-3.872-2.72-6-7.667-6-1.822 0-3.67.118-5.073.33-.45.07-1.058.249-1.058 1.032v17.428c0 .436.358.783.79.783h2.572a.768.768 0 0 0 .767-.784V15.55c.117.008.242.01.375.022.543.03 1.17.066 1.627.066h.192l3.613 6.612.029.052c.129.256.304.603.738.603h3.13a.558.558 0 0 0 .584-.578c0-.07 0-.213-.085-.333l-3.879-7.129Zm20.058-11.332h-2.542c-.447 0-.792.334-.792.758v11.37c0 2.976-.814 3.981-3.208 3.981-2.403 0-3.213-1.005-3.213-3.981V4.29c0-.424-.345-.758-.792-.758h-2.54c-.446 0-.797.334-.797.758v11.37c0 4.944 2.47 7.448 7.342 7.448 4.864 0 7.333-2.504 7.333-7.448V4.29c0-.424-.347-.758-.791-.758Zm17.01 0h-2.824c-.384 0-.646.314-.747.58l-3.079 7.548c-.102.254-.179.317-.174.337-.025-.02-.1-.088-.201-.336l-3.078-7.541c-.1-.274-.359-.588-.742-.588h-2.853c-.393 0-.694.282-.694.655 0 .097.033.193.075.312l3.877 8.793c.429.984.922 1.602 1.539 1.914v6.915a.77.77 0 0 0 .766.783h2.567a.77.77 0 0 0 .771-.784v-6.914c.618-.312 1.106-.93 1.541-1.914l3.907-8.814.017-.043a.624.624 0 0 0 .054-.248c0-.366-.321-.655-.722-.655Zm14.784 0h-12.547c-.442 0-.794.334-.794.758v2.003c0 .418.344.73.794.73h4.209v15.098c0 .436.354.783.792.783h2.54a.785.785 0 0 0 .794-.784V7.025h4.212c.451 0 .793-.312.793-.73V4.29c0-.424-.351-.758-.793-.758Zm13.784.126c-1.215-.138-2.404-.255-4.656-.255-2.015 0-6.708.806-6.708 8.258v3.141c0 5.249 2.44 8.257 6.708 8.257 1.994 0 3.163-.148 4.279-.287l.352-.047a.764.764 0 0 0 .683-.753v-8.54c0-.43-.304-.753-.717-.753h-.25c-.41 0-.718.323-.718.754v7.82c-.577.06-1.785.188-3.629.188-3.287 0-5.023-2.293-5.023-6.639v-3.142c0-5.51 2.733-6.662 5.023-6.662 1.91 0 2.72.081 4.522.254h.15c.442 0 .668-.227.668-.655V4.34c0-.272-.117-.613-.684-.681Zm5.923 1.444c.784-.06 2.044-.082 3.028-.082 4.005 0 5.565 1.074 5.565 3.827v.127c0 2.866-1.402 3.827-5.565 3.827-.384 0-1.047-.004-1.702-.008a99.19 99.19 0 0 0-1.326-.014V5.103Zm5.874 9.106c3.008-.618 4.414-2.294 4.414-5.234v-.127c0-3.812-2.175-5.444-7.26-5.444-1.092 0-3.112.057-4.032.106-.373.04-.691.388-.691.76v17.876c0 .429.318.759.719.759h.258c.401 0 .718-.33.718-.76v-7.743c.646 0 2.235.015 3.028.015h.951l5.391 8.154c.1.127.359.334.612.334h.335c.404 0 .688-.268.688-.655 0-.145-.059-.309-.176-.503l-4.955-7.538Zm14.116 7.233c-3.422 0-5.157-2.227-5.157-6.639v-3.142c0-4.405 1.735-6.64 5.157-6.64 3.421 0 5.161 2.235 5.161 6.64v3.143c0 4.411-1.74 6.638-5.161 6.638Zm0-18.038c-4.417 0-6.853 2.936-6.853 8.258v3.141c0 5.32 2.436 8.257 6.853 8.257 4.414 0 6.843-2.936 6.843-8.256V11.66c0-5.321-2.429-8.257-6.843-8.257Zm21.863.129h-.262c-.397 0-.715.334-.715.758v11.654c0 3.821-1.43 5.526-4.648 5.526-3.181 0-4.67-1.762-4.67-5.526V4.291c0-.416-.322-.758-.715-.758h-.257c-.401 0-.719.334-.719.758v11.654c0 4.652 2.2 7.115 6.361 7.115 4.144 0 6.339-2.462 6.339-7.115V4.291c0-.424-.314-.758-.714-.758Zm8.463 9.878c-.776 0-1.758-.044-2.52-.081V5.008c.685-.042 1.554-.06 2.52-.06 3.96 0 5.574 1.124 5.574 3.879v.43c0 2.952-1.614 4.154-5.574 4.154Zm0-10.007c-1.058 0-2.49.075-3.515.13-.372.042-.688.386-.688.757v17.855c0 .429.316.759.715.759h.256c.404 0 .712-.33.712-.76v-7.274c.527.03 1.502.083 2.52.083 4.89 0 7.264-1.866 7.264-5.698v-.43c0-3.596-2.441-5.422-7.264-5.422ZM17.616 13.221c0 2.304-1.893 4.171-4.234 4.171-2.332 0-4.226-1.867-4.226-4.17 0-2.307 1.894-4.175 4.226-4.175.51 0 .998.088 1.444.25l3.875-8.202A13.452 13.452 0 0 0 13.382 0C5.99 0 0 5.92 0 13.221c0 7.297 5.99 13.22 13.382 13.22 7.4 0 13.399-5.923 13.399-13.22 0-1.01-.125-1.994-.342-2.939h-10.05a4.123 4.123 0 0 1 1.227 2.94Z" fill="#1F2937"/></svg>