<svg width="186" height="45" fill="none" xmlns="http://www.w3.org/2000/svg"><path d="M0 18.037C0 7.331 6.711 0 17.939 0c9.155 0 14.557 4.776 15.964 12.396l-4.789.48c-1.082-5.496-5.073-8.874-11.411-8.874-8.078 0-12.867 5.5-12.867 13.989 0 8.198 4.837 14.13 13.007 14.13 6.012 0 10.05-3.086 11.505-8.45l4.546.821c-1.97 6.993-7.144 11.672-16.152 11.672C6.198 36.172 0 28.457 0 18.037Zm36.722 5.114c0-7.813 5.399-12.783 13.422-12.783s13.384 4.97 13.384 12.783c0 7.814-5.348 12.784-13.377 12.784-8.03 0-13.43-4.97-13.43-12.784Zm22.446 0c0-5.836-3.475-9.116-9.017-9.116-5.543 0-9.015 3.28-9.015 9.116 0 5.837 3.475 9.117 9.015 9.117 5.54 0 9.017-3.282 9.017-9.117Zm20.24-12.734c.597-.003 1.194.046 1.783.145v4.149c-.483-.06-.97-.093-1.456-.098-2.958 0-4.79.87-6.106 2.317-2.113 2.224-2.442 5.352-2.442 8.487v9.784h-4.13V11.093h3.849v6.126c1.221-3.907 4.321-6.802 8.502-6.802Zm4.695.667h3.993v4.736c1.924-3.473 5.728-5.456 10.283-5.456 7.185 0 11.974 5.065 11.974 12.83 0 7.626-5.072 12.74-12.21 12.74-4.508 0-8.359-2.123-9.909-4.822v13.494h-4.13V11.084Zm21.884 12.105c0-5.69-3.289-9.116-8.688-9.116-5.4 0-9.158 3.375-9.158 8.536v1.112c0 5.16 3.522 8.49 8.876 8.49 5.54.008 8.97-3.37 8.97-9.013v-.009Zm6.761 5.595c0-2.315 1.032-4.292 2.911-5.497 1.732-1.063 3.993-1.779 8.734-2.223l8.735-.668v-.444c0-4.196-2.489-6.173-7.278-6.173-4.547 0-7.374 1.78-7.794 5.063h-4.51c.516-5.047 5.212-8.478 12.304-8.478 7.7 0 11.457 3.237 11.457 10.086v6.368c0 4.1.188 6.226.705 8.392h-4.33a34.258 34.258 0 0 1-.374-4.67c-1.786 3.473-5.495 5.404-11.041 5.404-5.763-.01-9.519-2.762-9.519-7.152v-.008Zm20.426-5.352-9.526.916c-4.836.531-6.48 1.779-6.48 4.34 0 2.46 2.254 3.858 6.246 3.858 5.77.009 9.76-3.078 9.76-7.9v-1.214Zm7.326 17.617c.67.09 1.344.139 2.02.144 3.71 0 5.964-1.687 7.185-4.823l.515-1.303-11.597-23.974h4.789l8.125 17.7c.306.735.556 1.493.751 2.268h.046c.187-.579.433-1.35.75-2.268l7.604-17.7h4.602l-11.458 25.66c-2.67 6.074-6.054 8.247-10.897 8.247-.815.003-1.63-.061-2.435-.194V41.05Z" fill="#000"/><path d="M186 15.069h-4.921l-3.821-8.56-3.821 8.56h-4.921l6.28-14.073h4.921L186 15.07Z" fill="#BE1549"/></svg>