<svg width="220" height="48" fill="none" xmlns="http://www.w3.org/2000/svg"><path d="M64.084 10.65h-9.049v26.7h9.198C72.54 37.35 77.88 32.1 77.88 24c0-7.95-5.637-13.35-13.796-13.35Zm-.148 22.2h-3.412V15.3h3.709c4.895 0 8.307 3.75 8.307 8.85s-3.56 8.7-8.604 8.7ZM0 12v24l20.62 12 20.62-12V12L20.62 0 0 12Zm35.602 3.3v17.55l-14.982 8.7L5.637 32.7V15.3L20.62 6.6l14.982 8.7Zm147.454-2.25c0 1.5-1.187 2.85-2.819 2.85a2.832 2.832 0 0 1-2.818-2.85c0-1.5 1.187-2.85 2.818-2.85 1.484 0 2.819 1.35 2.819 2.85Zm-.445 6h-4.747v18.3h4.747v-18.3Zm-74.469 7.05c-2.076-.75-2.67-1.2-2.67-2.1 0-.75.594-1.35 1.78-1.35 1.78 0 3.116 1.05 4.302 2.1l2.671-3c-1.781-1.95-4.302-3-6.973-3-3.857 0-6.527 2.25-6.527 5.4 0 3.6 2.819 5.1 5.489 6 .297.15.593.15.89.3 1.483.45 2.374.75 2.374 1.65 0 .6-.297 1.35-2.226 1.35-1.78 0-3.56-.9-4.45-2.25l-2.819 3c1.929 2.25 4.302 3.3 7.269 3.3 4.302 0 6.973-2.1 6.973-5.55.148-3.3-2.226-4.35-6.083-5.85Zm105.769 0c-2.076-.75-2.67-1.2-2.67-2.1 0-.75.594-1.35 1.78-1.35 1.78 0 3.115 1.05 4.302 2.1l2.67-3c-1.78-1.95-4.302-3-6.972-3-3.857 0-6.527 2.25-6.527 5.4 0 3.6 2.819 5.1 5.489 6 .297.15.593.15.89.3 1.483.45 2.373.75 2.373 1.65 0 .6-.296 1.35-2.225 1.35-1.78 0-3.56-.9-4.45-2.25l-2.819 3c1.929 2.25 4.302 3.3 7.269 3.3 4.302 0 6.972-2.1 6.972-5.55.149-3.3-2.225-4.35-6.082-5.85Zm-91.083-13.05c0 1.5-1.186 2.85-2.818 2.85a2.832 2.832 0 0 1-2.819-2.85c0-1.65 1.187-2.85 2.819-2.85 1.483 0 2.818 1.35 2.818 2.85Zm-5.637 31.35c3.116 0 5.192-2.1 5.192-6.45v-18.9h-4.747V37.8c0 1.65-.741 2.55-1.78 2.55-.593 0-1.038-.15-1.631-.45l-.742 4.05c1.187.3 2.077.45 3.708.45Zm20.472-24.3c-1.335-.9-2.967-1.35-4.896-1.35-2.966 0-5.34 1.05-6.823 3 .296.3 2.373 2.55 2.818 3 .742-1.05 1.484-1.65 2.522-1.95.445-.15.742-.15 1.187-.15.593 0 1.187.15 1.632.3 1.186.45 1.78 1.35 1.78 2.55v1.2c-.149 0-1.632-.75-4.006-.75-3.857 0-6.675 2.55-6.675 5.85s2.522 5.7 5.934 5.7c2.076 0 3.412-.9 4.598-1.95h.149v1.65h4.45v-12c0-2.25-.89-3.9-2.67-5.1Zm-1.78 11.25c0 .9-1.929 2.4-4.154 2.4-1.335 0-2.373-.9-2.373-2.1 0-.75.445-2.25 2.818-2.25 1.78 0 3.709.6 3.709.6v1.35Zm13.202-10.2-.148-2.1h-4.747v18.3h4.747V29.1c0-3.3 1.632-5.55 5.637-5.55v-4.8c-2.374 0-4.302.75-5.489 2.4Zm20.323 14.55h.149v1.65h4.45v-26.7h-4.747v9.9h-.148c-.89-1.2-3.116-1.8-4.599-1.8-5.785 0-8.752 4.8-8.752 9.45 0 3.45 1.483 5.7 2.67 6.9a8.607 8.607 0 0 0 6.082 2.55c1.038 0 2.818-.3 4.895-1.95Zm-4.598-2.4c-2.522 0-4.599-2.25-4.599-5.1 0-2.85 2.077-5.1 4.599-5.1 2.818 0 4.598 2.7 4.598 5.1 0 2.85-2.077 5.1-4.598 5.1Zm26.553-12.75h-.148v-1.5h-4.747v18.3h4.747V27.9c0-4.2 2.522-4.8 4.153-4.8 2.671 0 3.709 2.25 3.709 4.35v9.9h4.747v-9.9c0-5.4-2.967-8.7-7.714-8.7-3.412 0-4.747 1.8-4.747 1.8Zm-93.16 7.5c0-5.4-3.708-9.3-8.9-9.3s-8.9 3.9-8.9 9.45c0 5.55 3.856 9.45 9.345 9.45 3.263 0 5.934-1.2 7.714-3.3-.297-.45-2.374-2.55-2.819-3-.89 1.05-2.522 2.1-4.45 2.1-2.374 0-4.154-1.35-4.747-3.75h12.757v-1.65Zm-12.906-1.8c.594-2.25 2.077-3.45 4.154-3.45s3.56 1.2 4.005 3.45h-8.159Z" fill="#00874E"/></svg>