<svg width="219" height="39" fill="none" xmlns="http://www.w3.org/2000/svg"><path d="m23.448 20.538-2.116-.637c-.424-.14-.622-.283-.593-.423.056-.142.353-.214.889-.214h9.311c.509 0 .763.085.763.255.028.113-.113.227-.424.34l-1.82.68c-.82.31-1.228.862-1.228 1.654 0 2.46.156 4.923.466 7.383-3.64 2.094-7.66 3.14-12.062 3.14-3.133 0-5.898-.594-8.297-1.781C3.484 28.474.733 24.23.085 18.205A22.563 22.563 0 0 1 0 16.208c0-4.893 1.622-8.727 4.867-11.5C8.563 1.57 13.05 0 18.327 0c3.047 0 6.306.523 9.776 1.569l-.677 7.596c-.028.424-.14.622-.338.594-.17-.028-.31-.267-.423-.72l-.805-3.735c-.113-.566-.268-.975-.466-1.232-.197-.253-.62-.522-1.269-.805-1.609-.736-3.556-1.104-5.841-1.104-3.556 0-6.617.835-9.184 2.504-3.697 2.406-5.489 6.338-5.376 11.798.056 2.461.508 4.682 1.354 6.662 1.073 2.518 2.652 4.356 4.74 5.515 2.37 1.302 4.712 1.953 7.027 1.953 2.06 0 4.106-.51 6.137-1.527 1.24-.623 1.876-1.514 1.904-2.673.086-2.433-.07-4.145-.464-5.135-.113-.312-.438-.552-.974-.722Z" fill="#231F20"/><path d="M35.509 5.474c0-1.16-.028-1.839-.085-2.037-.084-.538-.324-.863-.72-.976l-2.37-.72c-.48-.142-.72-.298-.72-.468 0-.141.283-.212.847-.212h9.693c.564 0 .847.07.847.212 0 .17-.24.326-.72.467l-2.37.72c-.424.114-.678.44-.763.977-.056.198-.084.878-.084 2.037-.085 2.716-.127 6.352-.127 10.906 0 4.47.042 8.444.127 11.923 0 .736.324 1.104.974 1.104h7.153c.677 0 1.15-.05 1.417-.148.269-.1.473-.346.614-.743l1.186-3.098c.111-.396.267-.594.464-.594.141 0 .212.099.212.297l-.212 6.577h-18.41c-.565 0-.848-.07-.848-.212 0-.169.24-.325.72-.467l2.37-.72c.396-.114.636-.411.72-.892.057-.226.085-.933.085-2.122.084-2.744.127-6.379.127-10.905s-.044-8.162-.127-10.906Zm37.923 26.224H52.946c-.564 0-.846-.07-.846-.212 0-.17.24-.326.72-.467l2.37-.722c.395-.112.635-.409.72-.89.056-.227.084-.933.084-2.122.085-2.942.127-6.577.127-10.905 0-4.414-.042-8.049-.127-10.906 0-1.16-.028-1.839-.084-2.038-.085-.536-.325-.862-.72-.975l-2.37-.722c-.48-.14-.72-.297-.72-.467 0-.14.282-.212.846-.212 4.882 0 8.874-.027 11.978-.084 2.935-.056 5.418-.17 7.45-.34v5.728c0 .538-.07.821-.21.85-.115.028-.256-.185-.425-.637-.705-1.896-1.227-2.956-1.566-3.182-.339-.228-1.608-.34-3.809-.34h-5.799c-.452 0-.734.063-.847.19-.113.128-.168.433-.168.913l-.128 10.651h8.254c.536 0 .903-.048 1.1-.148.198-.099.409-.39.636-.87.196-.397.394-.905.591-1.528.085-.226.198-.325.34-.297.169 0 .253.1.253.297v8.02c0 .567-.07.878-.211.933-.198.085-.353-.083-.466-.509-.226-.82-.494-1.752-.803-2.8-.2-.65-.678-.976-1.44-.976h-8.254l.128 11.372c0 .736.324 1.104.973 1.104h9.185c.677 0 1.149-.049 1.417-.148.268-.1.48-.34.635-.722.156-.382.543-1.421 1.164-3.118.141-.397.31-.595.508-.595.141 0 .212.1.212.297l-.212 6.577Zm32.962.552h-2.285c-.988-1.273-2.907-3.536-5.757-6.79-4.12-4.47-10.031-10.806-17.733-19.01-.057 2.349-.085 5.658-.085 9.93 0 4.414.042 8.048.127 10.904 0 1.16.027 1.854.084 2.08.084.51.324.822.72.934l2.412.721c.452.142.678.298.678.467 0 .142-.269.213-.805.213h-8.676c-.565 0-.847-.071-.847-.213 0-.17.24-.325.72-.467l2.37-.721c.394-.112.634-.424.72-.933.055-.198.085-.89.085-2.08.084-2.857.127-6.491.127-10.906 0-4.271-.043-7.906-.127-10.905 0-1.075-.072-2.815-.212-5.22h2.2c1.016 1.301 3.147 3.791 6.391 7.468l17.184 18.417c.057-2.093.085-5.345.085-9.76 0-4.271-.042-7.906-.127-10.905 0-1.16-.028-1.84-.085-2.038-.084-.536-.338-.862-.761-.975l-2.37-.722c-.481-.14-.72-.297-.72-.467 0-.141.283-.212.846-.212h8.677c.537 0 .805.07.805.212 0 .17-.227.327-.678.467l-2.412.722c-.395.113-.635.425-.72.933-.057.226-.085.92-.085 2.08a398.172 398.172 0 0 0-.127 10.905c0 4.415.043 8.05.127 10.905 0 1.076.085 2.732.254 4.965Zm8.842-2.885c-4.6-3.367-6.771-7.88-6.518-13.536.14-2.491.832-4.825 2.074-7.003 1.41-2.461 3.427-4.498 6.052-6.11C119.807.904 123.347 0 127.468 0c2.82 0 5.586.425 8.295 1.272v7.214c0 .426-.084.637-.253.637-.171 0-.34-.31-.508-.934-.425-1.669-.876-2.857-1.355-3.564-.648-.99-1.665-1.656-3.047-1.994-1.044-.255-2.201-.382-3.471-.382-4.628 0-8.296 1.386-11.005 4.158-2.371 2.461-3.555 5.87-3.555 10.227 0 1.386.14 2.631.424 3.734 1.353 5.064 4.541 8.305 9.565 9.719 1.015.283 2.201.423 3.556.423 3.78 0 6.588-.862 8.422-2.589.536-.508 1.1-1.343 1.692-2.503.085-.14.297-.664.636-1.57.254-.623.465-.934.635-.934.112 0 .169.085.169.255l-1.185 7.51c-3.726 1.358-7.111 2.037-10.159 2.037-4.317 0-8.012-1.116-11.088-3.351ZM151.119 2.95a14.053 14.053 0 0 1 3.259-.383c3.724 0 6.984 1.345 9.777 4.031 1.298 1.245 2.314 2.858 3.048 4.838a17.12 17.12 0 0 1 .973 5.729c0 1.358-.17 2.617-.508 3.776-1.326 4.724-4.43 7.68-9.312 8.87-.988.226-2.031.34-3.132.34-3.978 0-7.251-1.366-9.818-4.096-2.569-2.73-3.853-6.146-3.853-10.249 0-1.47.198-2.842.593-4.116 1.468-4.696 4.458-7.608 8.973-8.74Zm-4.359-.807c-5.193 2.574-8.141 6.649-8.846 12.22a15.859 15.859 0 0 0-.085 1.698c0 2.235.408 4.414 1.227 6.536.96 2.602 2.37 4.696 4.232 6.28 3.104 2.659 6.632 3.987 10.582 3.987 1.89 0 3.879-.31 5.968-.933 2.765-.791 5.15-2.12 7.153-3.989 2.145-2.008 3.569-4.37 4.275-7.086.367-1.386.55-2.844.55-4.37 0-4.244-1.129-7.751-3.386-10.525-3.16-3.875-7.365-5.813-12.612-5.813-.903 0-1.807.057-2.709.17-2.428.34-4.544.947-6.349 1.825Z" fill="#231F20"/><path d="M179.177 16.316c-.425 0-.833-.015-1.228-.043l-.042-8.74V5.536l.042-1.188c0-.451.268-.792.805-1.019.423-.17.988-.255 1.692-.255 1.693 0 3.133.368 4.317 1.104 2.173 1.359 3.188 3.268 3.048 5.73-.141 2.517-1.382 4.342-3.724 5.474-1.271.623-2.907.933-4.91.933ZM170.5 1.378c0 .17.24.327.719.467l2.371.722c.395.113.634.439.718.975.057.199.086.878.086 2.038.084 3 .127 6.634.127 10.905 0 4.415-.043 8.05-.127 10.907 0 1.189-.029 1.88-.086 2.079-.084.51-.323.82-.718.934l-2.371.72c-.479.142-.719.297-.719.467 0 .142.282.213.847.213h9.691c.566 0 .848-.071.848-.213 0-.17-.241-.325-.72-.467l-2.37-.72c-.424-.113-.678-.439-.762-.977-.058-.254-.085-.934-.085-2.036v-8.828c.62.03 1.002.03 1.143 0l8.93 9.293c3.047 3.17 8.664 7.82 10.569 8.684 2.703 1.227 8.394 2.85 12.15.516.245-.154-4.02-.32-5.502-.551-1.669-.26-3.895-1.222-4.179-1.36-2.751-1.325-6.366-4.547-8.201-6.472l-9.28-10.534c3.328-.791 5.628-2.235 6.898-4.328.791-1.33 1.185-2.83 1.185-4.498 0-1.527-.324-2.843-.973-3.946-1.213-2.038-2.85-3.353-4.911-3.947-1.156-.34-3.073-.48-5.755-.425l-8.676.17c-.565 0-.847.072-.847.212Z" fill="#231F20"/><path d="M218.042 31.735h-20.484c-.566 0-.847-.07-.847-.212 0-.17.24-.326.72-.467l2.368-.722c.396-.112.636-.409.72-.89.057-.227.085-.933.085-2.122.085-2.942.128-6.577.128-10.906 0-4.413-.043-8.048-.128-10.905 0-1.16-.028-1.84-.085-2.038-.084-.537-.324-.862-.72-.975l-2.368-.722c-.48-.14-.72-.297-.72-.466 0-.141.281-.213.847-.213 4.88 0 8.873-.029 11.976-.085 2.935-.056 5.418-.169 7.451-.339v5.728c0 .538-.072.821-.213.85-.113.028-.254-.185-.424-.638-.704-1.895-1.226-2.955-1.565-3.181-.339-.228-1.609-.34-3.809-.34h-5.798c-.453 0-.735.063-.848.19-.113.128-.168.433-.168.913l-.128 10.651h8.255c.536 0 .902-.049 1.1-.148.197-.099.409-.39.635-.87.197-.397.394-.905.591-1.528.085-.226.199-.325.339-.297.171 0 .254.099.254.297v8.02c0 .567-.07.878-.211.933-.198.085-.353-.083-.465-.509-.227-.82-.495-1.754-.806-2.8-.196-.65-.676-.976-1.437-.976h-8.255l.128 11.372c0 .736.325 1.104.973 1.104h9.184c.678 0 1.151-.05 1.418-.148.268-.1.48-.34.635-.722.155-.382.543-1.422 1.164-3.119.141-.396.311-.595.508-.595.141 0 .212.1.212.298l-.212 6.577Z" fill="#231F20"/></svg>