<svg width="180" height="50" fill="none" xmlns="http://www.w3.org/2000/svg"><path d="M155.418 28.333c6.14 8.437 7.684 17.714 3.448 20.721-4.236 3.007-12.648-1.394-18.788-9.83-6.14-8.437-7.684-17.714-3.448-20.721 4.236-3.008 12.648 1.394 18.788 9.83Z" fill="url(#hmh__a)"/><path d="M174.415 18.76c-4.634 9.378-9.966 16.222-11.908 15.285-1.942-.936.241-9.297 4.876-18.675 4.634-9.377 9.966-16.22 11.908-15.284 1.942.936-.241 9.297-4.876 18.675Z" fill="url(#hmh__b)"/><path d="M169.799 3.572c.564 2.957-7.355 6.91-17.688 8.83-10.332 1.921-19.164 1.081-19.728-1.876-.563-2.956 7.356-6.91 17.688-8.83 10.332-1.921 19.165-1.081 19.728 1.876Z" fill="url(#hmh__c)"/><path d="M30.547 5.421c2.021 0 3.448 1.41 3.448 3.405v38.27H27.1V28.724H6.894v18.372H0V8.826C0 6.83 1.426 5.42 3.447 5.42c2.02 0 3.447 1.41 3.447 3.405v14.028h20.207V8.826c0-1.996 1.426-3.405 3.447-3.405Zm13.848 0c1.367 0 2.496.587 3.328 1.937l13.015 20.427L73.754 7.358c.832-1.35 1.961-1.937 3.328-1.937 2.02 0 3.506 1.41 3.506 3.405v38.27H74.17V18.1L63.472 34.887c-.713 1.175-1.545 1.703-2.734 1.703-1.188 0-2.02-.529-2.733-1.703L47.306 18.1v28.996h-6.419V8.826c0-1.996 1.486-3.405 3.507-3.405Zm73.635 0c2.02 0 3.447 1.41 3.447 3.405v38.27h-6.894V28.724H94.376v18.372h-6.894V8.826c0-1.996 1.426-3.405 3.447-3.405 2.02 0 3.447 1.41 3.447 3.405v14.028h20.207V8.826c0-1.996 1.426-3.405 3.447-3.405Z" fill="#000"/><defs><linearGradient id="hmh__a" x1="50.485" y1="40.636" x2="69.97" y2="-84.016" gradientUnits="userSpaceOnUse"><stop stop-color="#FF00B3"/><stop offset=".131" stop-color="#FF1F90"/><stop offset=".344" stop-color="#FF4B5D"/><stop offset=".545" stop-color="#FF6F35"/><stop offset=".727" stop-color="#FF8818"/><stop offset=".885" stop-color="#FF9806"/><stop offset="1" stop-color="#FF9D00"/></linearGradient><linearGradient id="hmh__b" x1="-59.106" y1="62.786" x2="-51.352" y2="-24.09" gradientUnits="userSpaceOnUse"><stop offset=".06" stop-color="#FF00B3"/><stop offset=".183" stop-color="#FF1F90"/><stop offset=".384" stop-color="#FF4B5D"/><stop offset=".572" stop-color="#FF6F35"/><stop offset=".744" stop-color="#FF8818"/><stop offset=".892" stop-color="#FF9806"/><stop offset="1" stop-color="#FF9D00"/></linearGradient><linearGradient id="hmh__c" x1="6.552" y1="141.366" x2="85.629" y2="-126.011" gradientUnits="userSpaceOnUse"><stop stop-color="#FF00B3"/><stop offset=".078" stop-color="#FF05AD"/><stop offset=".18" stop-color="#FF139D"/><stop offset=".296" stop-color="#FF2B82"/><stop offset=".422" stop-color="#FF4C5C"/><stop offset=".554" stop-color="#FF762C"/><stop offset=".66" stop-color="#FF9D00"/></linearGradient></defs></svg>