<svg width="220" height="55" fill="none" xmlns="http://www.w3.org/2000/svg"><path fill-rule="evenodd" clip-rule="evenodd" d="M57.608 40.61c0-.611.5-1.135 1.116-1.135.647 0 1.146.495 1.146 1.134v13.053c0 .64-.47 1.134-1.116 1.134a1.123 1.123 0 0 1-1.146-1.133V40.608Zm-.205-5.7c0-.726.587-1.191 1.321-1.191.764 0 1.351.465 1.351 1.192v.378c0 .698-.587 1.191-1.35 1.191-.735 0-1.322-.493-1.322-1.191v-.378Zm8.117 5.7c0-.611.498-1.135 1.115-1.135.646 0 1.145.495 1.145 1.134v1.628c1-1.628 2.585-2.936 5.199-2.936 3.671 0 5.815 2.442 5.815 6.017v8.345c0 .639-.5 1.133-1.116 1.133a1.122 1.122 0 0 1-1.145-1.133V45.87c0-2.79-1.527-4.535-4.2-4.535-2.614 0-4.553 1.89-4.553 4.71v7.617c0 .639-.47 1.133-1.115 1.133a1.123 1.123 0 0 1-1.146-1.133V40.608Zm18.348 10.058v-9.07h-1.233c-.53 0-1-.466-1-.989 0-.552.47-.989 1-.989h1.233v-3.546c0-.61.47-1.134 1.115-1.134.617 0 1.147.523 1.147 1.134v3.546h3.935c.558 0 1.028.465 1.028.99 0 .552-.47.988-1.028.988H86.13v8.779c0 1.832 1.027 2.5 2.554 2.5.793 0 1.205-.203 1.381-.203.529 0 .97.436.97.96 0 .406-.265.727-.647.871-.647.262-1.351.407-2.232.407-2.438 0-4.288-1.192-4.288-4.244Zm21.69-4.361c-.234-2.732-1.82-5.117-4.845-5.117-2.644 0-4.64 2.181-4.935 5.117h9.78ZM101.065 55c-4.17 0-7.578-3.169-7.578-7.82v-.059c0-4.331 3.084-7.82 7.284-7.82 4.494 0 7.049 3.634 7.049 7.617 0 .61-.499 1.046-1.058 1.046H95.778c.323 3.257 2.643 5.088 5.345 5.088 1.881 0 3.261-.727 4.377-1.745.176-.145.381-.261.646-.261.558 0 .998.435.998.96a.962.962 0 0 1-.352.727c-1.44 1.365-3.142 2.267-5.727 2.267Zm10.677-14.39c0-.611.5-1.135 1.117-1.135.645 0 1.145.495 1.145 1.134v2.82c1.116-2.5 3.319-4.011 5.228-4.011.675 0 1.116.493 1.116 1.133 0 .611-.411 1.047-.999 1.134-2.937.348-5.345 2.529-5.345 6.86v5.117c0 .61-.47 1.134-1.116 1.134a1.123 1.123 0 0 1-1.146-1.133V40.608Zm21.133 8.517v-1.453a15.954 15.954 0 0 0-4.463-.64c-2.85 0-4.435 1.22-4.435 3.11v.058c0 1.89 1.762 2.995 3.818 2.995 2.79 0 5.08-1.686 5.08-4.07Zm-11.189 1.163v-.058c0-3.17 2.644-4.856 6.491-4.856 1.938 0 3.319.263 4.67.64v-.523c0-2.703-1.675-4.1-4.524-4.1-1.527 0-2.819.35-3.935.844a1.148 1.148 0 0 1-.411.087c-.529 0-.998-.436-.998-.96 0-.464.322-.814.616-.93a12.08 12.08 0 0 1 4.963-1.017c2.144 0 3.789.552 4.905 1.657 1.028 1.018 1.557 2.471 1.557 4.39v8.228c0 .639-.47 1.104-1.087 1.104-.646 0-1.086-.465-1.086-1.047v-1.366c-1.058 1.366-2.82 2.587-5.493 2.587-2.819 0-5.668-1.599-5.668-4.68Zm16.674-3.081v-.059c0-4.244 3.348-7.85 7.783-7.85 2.525 0 4.229.96 5.58 2.18.176.147.352.438.352.786 0 .61-.498 1.076-1.086 1.076-.294 0-.558-.116-.734-.261-1.087-.989-2.321-1.803-4.141-1.803-3.084 0-5.434 2.587-5.434 5.814v.058c0 3.257 2.408 5.844 5.58 5.844 1.733 0 3.113-.785 4.23-1.832.146-.145.352-.29.646-.29.558 0 1.027.494 1.027 1.016 0 .263-.117.524-.293.699-1.439 1.424-3.172 2.413-5.727 2.413-4.435 0-7.783-3.576-7.783-7.791Zm17.501 3.459v-9.07h-1.233c-.529 0-.999-.466-.999-.989 0-.552.47-.989.999-.989h1.233v-3.546c0-.61.47-1.134 1.116-1.134.617 0 1.146.523 1.146 1.134v3.546h3.935c.558 0 1.028.465 1.028.99 0 .552-.47.988-1.028.988h-3.935v8.779c0 1.832 1.027 2.5 2.555 2.5.792 0 1.204-.203 1.38-.203.529 0 .969.436.969.96 0 .406-.264.727-.646.871-.646.262-1.351.407-2.232.407-2.438 0-4.288-1.192-4.288-4.244Zm11.206-10.058c0-.611.499-1.135 1.116-1.135.646 0 1.146.495 1.146 1.134v13.053c0 .64-.47 1.134-1.117 1.134a1.122 1.122 0 0 1-1.145-1.133V40.608Zm-.206-5.7c0-.726.587-1.191 1.322-1.191.764 0 1.351.465 1.351 1.192v.378c0 .698-.587 1.191-1.351 1.191-.735 0-1.322-.493-1.322-1.191v-.378Zm19.756 12.299v-.059c0-3.227-2.437-5.872-5.639-5.872-3.289 0-5.55 2.645-5.55 5.814v.058c0 3.227 2.408 5.844 5.609 5.844 3.29 0 5.58-2.617 5.58-5.785Zm-13.509 0v-.059c0-4.244 3.348-7.85 7.929-7.85 4.553 0 7.9 3.548 7.9 7.792v.058c0 4.245-3.377 7.85-7.959 7.85-4.552 0-7.87-3.547-7.87-7.791Zm18.91-6.599c0-.611.499-1.135 1.117-1.135.646 0 1.145.495 1.145 1.134v1.628c.998-1.628 2.584-2.936 5.198-2.936 3.672 0 5.816 2.442 5.816 6.017v8.345c0 .639-.499 1.133-1.117 1.133a1.122 1.122 0 0 1-1.145-1.133V45.87c0-2.79-1.527-4.535-4.199-4.535-2.615 0-4.553 1.89-4.553 4.71v7.617c0 .639-.47 1.133-1.116 1.133a1.123 1.123 0 0 1-1.146-1.133V40.608Zm16.733 12.442a1.008 1.008 0 0 1-.411-.814c0-.524.441-.96.999-.96.205 0 .411.059.557.175 1.557 1.046 3.173 1.599 4.817 1.599 1.821 0 3.143-.93 3.143-2.384v-.058c0-1.512-1.791-2.094-3.789-2.646-2.378-.669-5.022-1.483-5.022-4.244v-.058c0-2.588 2.174-4.303 5.169-4.303 1.615 0 3.378.494 4.846 1.28.293.174.558.493.558.93 0 .523-.441.959-.999.959a1.15 1.15 0 0 1-.499-.117c-1.292-.726-2.673-1.163-3.965-1.163-1.791 0-2.936.93-2.936 2.181v.059c0 1.424 1.879 1.976 3.905 2.586 2.35.698 4.876 1.6 4.876 4.303v.059c0 2.848-2.379 4.506-5.404 4.506-1.998 0-4.2-.727-5.845-1.89Z" fill="#45494B"/><path fill-rule="evenodd" clip-rule="evenodd" d="M24.299 3.923c11.205 0 20.32 9.033 20.32 20.135v7.547l3.962 5.251V24.058C48.58 10.792 37.688 0 24.299 0 10.9 0 0 10.792 0 24.058c0 13.258 10.9 24.044 24.299 24.044h22.659c.575 0 1.028-.182 1.425-.575.39-.387.58-.848.58-1.411 0-.567-.192-1.038-.588-1.441-.368-.375-.805-.542-1.417-.542H24.299c-11.214 0-20.337-9.006-20.337-20.075 0-11.102 9.123-20.135 20.337-20.135Z" fill="#FF6418"/><path fill-rule="evenodd" clip-rule="evenodd" d="M36.676 36.273H24.337c-6.817 0-12.349-5.466-12.349-12.217 0-6.75 5.532-12.226 12.35-12.226 6.817 0 12.338 5.477 12.338 12.226v12.217Zm4.141-2.11V24.058c0-8.943-7.315-16.2-16.348-16.2-9.032 0-16.361 7.257-16.361 16.2 0 8.944 7.329 16.186 16.361 16.186h20.787l-4.439-6.081Z" fill="#FF6418"/></svg>