<svg width="220" height="32" fill="none" xmlns="http://www.w3.org/2000/svg"><path d="M13.342 20.104h4.17c.126 0 .226.1.226.225v4.16c0 .125-.1.225-.225.225h-4.17a.225.225 0 0 1-.226-.225v-4.16c0-.125.1-.226.225-.226Zm-6.557 0h4.17c.125 0 .226.1.226.225v4.16c0 .125-.1.225-.226.225h-4.17a.225.225 0 0 1-.226-.225v-4.16c0-.125.101-.226.226-.226Zm-6.56 0h4.17c.126 0 .227.1.227.225v4.16a.225.225 0 0 1-.226.225H.226A.225.225 0 0 1 0 24.489v-4.16c0-.125.1-.226.226-.226Zm19.677 0h4.17c.125 0 .226.1.226.225v4.16a.225.225 0 0 1-.226.225h-4.17a.225.225 0 0 1-.226-.225v-4.16c0-.125.1-.226.226-.226ZM.226 13.56h4.17c.125 0 .226.1.226.225v4.16a.225.225 0 0 1-.226.225H.226A.225.225 0 0 1 0 17.945v-4.16c0-.125.1-.225.226-.225Zm0-6.542h4.17c.125 0 .226.1.226.225v4.16a.226.226 0 0 1-.226.226H.226A.225.225 0 0 1 0 11.404v-4.16c0-.125.1-.226.226-.226Zm0-6.543h4.17c.125 0 .226.1.226.225v4.16a.225.225 0 0 1-.226.225H.226A.225.225 0 0 1 0 4.86V.7C0 .575.1.475.226.475ZM6.785 13.56h4.17c.125 0 .226.1.226.225v4.16c0 .125-.1.225-.226.225h-4.17a.225.225 0 0 1-.226-.225v-4.16c0-.125.101-.225.226-.225Zm0-13.085h4.17c.125 0 .226.1.226.225v4.16c0 .125-.1.225-.226.225h-4.17a.225.225 0 0 1-.226-.225V.7c0-.125.101-.225.226-.225Zm6.557 13.085h4.17c.126 0 .226.1.226.225v4.16c0 .125-.1.225-.225.225h-4.17a.225.225 0 0 1-.226-.225v-4.16c0-.125.1-.225.225-.225Zm0-6.542h4.17c.126 0 .226.1.226.225v4.16c0 .125-.1.226-.225.226h-4.17a.225.225 0 0 1-.226-.225v-4.16c0-.125.1-.226.225-.226Zm0-6.543h4.17c.126 0 .226.1.226.225v4.16c0 .125-.1.225-.225.225h-4.17a.225.225 0 0 1-.226-.225V.7c0-.125.1-.225.225-.225Zm6.56 13.085h4.17c.125 0 .226.1.226.225v4.16a.225.225 0 0 1-.226.225h-4.17a.225.225 0 0 1-.226-.225v-4.16c0-.125.1-.225.226-.225Zm0-6.542h4.17c.125 0 .226.1.226.225v4.16a.226.226 0 0 1-.226.226h-4.17a.225.225 0 0 1-.226-.225v-4.16c0-.125.1-.226.226-.226Zm0-6.543h4.17c.125 0 .226.1.226.225v4.16a.225.225 0 0 1-.226.225h-4.17a.225.225 0 0 1-.226-.225V.7c0-.125.1-.225.226-.225Zm91.899 0h-4.17c-.124 0-.225.1-.225.225v4.16c0 .124.101.225.225.225h4.17c.125 0 .226-.1.226-.225V.7a.225.225 0 0 0-.226-.225Z" fill="#EA4224"/><path d="M149.826 7.018h-3.998a.228.228 0 0 0-.227.225v1.978c-1.017-1.623-2.821-2.677-5.267-2.677-4.383 0-7.193 3.981-7.193 9.33 0 5.238 2.946 8.832 7.33 8.832 2.411 0 4.011-1.101 5.028-2.686v2.86c0 2.374-1.257 3.627-3.873 3.627-2.046 0-3.036-.953-3.447-1.967a.226.226 0 0 0-.203-.145h-4.17a.227.227 0 0 0-.226.264c.587 3.232 3.481 5.341 8.113 5.341 2.582 0 4.825-.608 6.286-1.965 1.292-1.187 2.074-2.84 2.074-5.29V7.242a.228.228 0 0 0-.227-.225Zm-8.31 13.83c-2.459 0-3.687-2.162-3.687-5.225 0-3.193 1.261-5.351 3.524-5.351 2.456 0 3.975 2.231 3.975 5.253 0 3.063-1.033 5.323-3.812 5.323Zm65.843 1.696v1.943a.226.226 0 0 1-.228.227h-3.997c-.126 0-.228-.101-.228-.531V.406c0 .18.102.079.228.079h4.168a.226.226 0 0 1 .226.225v8.418c.951-1.459 2.55-2.576 4.961-2.576 4.384 0 7.511 3.915 7.511 9.33 0 5.627-2.991 9.331-7.375 9.331-2.446.008-4.247-1.043-5.266-2.67Zm7.952-6.662c0-3.22-1.291-5.61-3.875-5.61-2.922 0-4.01 2.49-4.01 5.712 0 3.186 1.598 5.373 4.181 5.373 2.379 0 3.704-2.118 3.704-5.475Zm-19.637 8.832a.228.228 0 0 1-.226-.227V22.68c-1.189 1.594-2.643 2.509-5.097 2.509-3.863 0-6.049-2.475-6.049-6.272V7.243a.226.226 0 0 1 .226-.225h4.135a.223.223 0 0 1 .161.065.236.236 0 0 1 .05.074.233.233 0 0 1 .017.086v10.893c0 2.028.917 3.154 2.889 3.154 2.174 0 3.499-1.623 3.499-3.933V7.243a.21.21 0 0 1 .018-.086.22.22 0 0 1 .123-.122.227.227 0 0 1 .087-.017h4.16a.226.226 0 0 1 .226.225v17.242a.228.228 0 0 1-.226.227l-3.993.002ZM176.895.474h4.168a.228.228 0 0 1 .228.225v23.788a.226.226 0 0 1-.228.227h-4.168a.228.228 0 0 1-.226-.227V.7a.226.226 0 0 1 .226-.225Zm-24.52 12.206c0-7.187 4.486-12.68 11.655-12.68 5.87 0 9.384 3.428 9.994 7.91a.226.226 0 0 1-.228.256h-4.451a.224.224 0 0 1-.141-.052.223.223 0 0 1-.078-.128c-.499-2.339-2.312-3.854-5.096-3.854-4.485 0-6.626 3.728-6.626 8.543 0 4.95 2.582 8.51 6.661 8.51 2.814 0 4.823-1.643 5.205-4.08a.226.226 0 0 1 .224-.192h4.381a.23.23 0 0 1 .168.073c.022.023.038.05.048.08.01.03.014.06.012.092a8.56 8.56 0 0 1-2.664 5.477c-1.665 1.56-4.011 2.576-7.374 2.576-6.832.01-11.69-5.243-11.69-12.531Zm-32.839-3.29c1.19-1.866 2.889-2.84 5.268-2.84 3.601 0 6.015 2.713 6.015 6.508v11.436a.226.226 0 0 1-.228.227h-4.168a.228.228 0 0 1-.226-.227v-10.75c0-1.865-1.088-3.187-3.025-3.187-2.034 0-3.534 1.623-3.534 4v9.939a.228.228 0 0 1-.226.227h-4.168a.226.226 0 0 1-.161-.066.226.226 0 0 1-.067-.161V7.256c0-.03.006-.06.017-.087a.238.238 0 0 1 .05-.073.22.22 0 0 1 .161-.066h4.066a.226.226 0 0 1 .226.226V9.39Zm-11.905-2.373h4.168a.224.224 0 0 1 .216.137.222.222 0 0 1 .018.088v17.242c0 .03-.006.06-.017.087a.237.237 0 0 1-.049.073.233.233 0 0 1-.161.067h-4.169a.226.226 0 0 1-.225-.227V7.243a.225.225 0 0 1 .219-.225Zm-20.326 8.864c0-5.424 3.092-9.33 7.441-9.33 2.44 0 4.08 1.117 5.03 2.576V.7a.225.225 0 0 1 .226-.225h4.169c.126 0 .227.101.227-.08v23.788c0 .43-.101.531-.227.531h-3.998a.228.228 0 0 1-.228-.227v-2.045c-1.016 1.661-2.82 2.78-5.266 2.78-4.383 0-7.374-3.721-7.374-9.34Zm12.573.102c0-3.323-1.087-5.712-4.044-5.712-2.547 0-3.84 2.39-3.84 5.61 0 3.357 1.325 5.477 3.704 5.477 2.753-.002 4.18-2.189 4.18-5.375ZM73.7 9.39c1.19-1.866 2.89-2.84 5.268-2.84 3.601 0 6.015 2.713 6.015 6.508v11.436a.227.227 0 0 1-.226.227h-4.168a.228.228 0 0 1-.228-.227v-10.75c0-1.865-1.088-3.187-3.023-3.187-2.04-.01-3.53 1.612-3.53 3.986v9.939a.227.227 0 0 1-.228.227h-4.168a.225.225 0 0 1-.226-.227V7.24a.223.223 0 0 1 .226-.225h4.066a.224.224 0 0 1 .226.225L73.7 9.39Zm-24.035 6.457c0-5.152 3.499-9.304 8.596-9.304 5.539 0 8.524 4.318 8.597 10.395a.225.225 0 0 1-.14.214.228.228 0 0 1-.088.017H54.227c.34 2.678 1.83 4.493 4.451 4.493 1.737 0 2.778-.756 3.308-1.996a.221.221 0 0 1 .204-.14h4.117a.226.226 0 0 1 .222.278c-.749 2.962-3.47 5.416-7.818 5.416-5.785 0-9.046-4.186-9.046-9.373Zm4.623-1.864h7.747c-.134-2.203-1.596-3.883-3.702-3.883-2.45 0-3.638 1.611-4.045 3.883ZM33.018.474h4.474a.226.226 0 0 1 .225.226v19.91h10.66a.225.225 0 0 1 .226.228v3.65a.222.222 0 0 1-.065.161.224.224 0 0 1-.16.067h-15.36a.228.228 0 0 1-.225-.227V.699a.225.225 0 0 1 .225-.224Z" fill="#1F2937"/></svg>