<svg width="220" height="33" fill="none" xmlns="http://www.w3.org/2000/svg"><path d="M180.507 0v22.918c0 1.132.583 1.794 1.184 2.21.644.44 1.59.66 2.865.66.806 0 1.871-.272 1.871-.272V23.46c-.32.02-.603.038-.917.038-1.897 0-2.177-.752-2.177-1.59V0h-2.826Zm-59.698.233c-2.13 0-4.056.678-5.424 1.9a6.142 6.142 0 0 0-2.062 4.614c0 1.959.78 3.489 2.406 4.693 1.434 1.063 3.33 1.749 5.156 2.404 3.175 1.146 6.15 2.192 6.15 5.118 0 1.302-.436 2.417-1.261 3.18-.906.839-2.21 1.241-3.934 1.241-3.021 0-5.22-1.698-6.455-5.002l-2.711.736c.584 1.34 1.577 3.274 3.017 4.576 1.579 1.438 3.538 2.133 5.997 2.133 2.911 0 5.121-.762 6.569-2.288 1.501-1.588 1.833-3.62 1.833-5.04 0-2.037-.847-3.609-2.559-4.848-1.494-1.088-3.427-1.79-5.309-2.443-3.065-1.065-5.991-2.077-5.958-4.692.011-1.22.427-2.169 1.184-2.831.771-.673 1.87-1.008 3.285-1.008 1.485 0 2.81.421 3.819 1.24.928.747 1.603 1.854 1.91 3.103l2.635-.35c-1.156-4.001-3.982-6.436-8.288-6.436ZM0 .582v24.895h2.826V2.714l.077.078 6.722 22.685h2.177l6.76-22.685.039-.078v22.763h2.826V.582H16.73l-5.996 20.01v.077l-.039-.078L4.698.581H0Zm134.559.504v5.972h-2.712v2.287h2.712v13.573c0 1.132.508 1.794 1.108 2.21.645.44 1.588.66 2.864.66.808 0 1.91-.272 1.91-.272V23.46c-.314.02-.642.038-.955.038-1.9 0-2.101-.752-2.101-1.59V9.346h3.056V7.058h-3.056V1.086h-2.826ZM32.885 6.709c-2.38 0-4.397.973-5.805 2.792-1.307 1.697-2.024 4.094-2.024 6.747 0 2.655.717 5.048 2.024 6.747 1.408 1.823 3.425 2.792 5.805 2.792 2.39 0 4.401-.968 5.806-2.792 1.307-1.699 2.024-4.092 2.024-6.747 0-2.653-.717-5.05-2.024-6.747-1.405-1.819-3.416-2.792-5.806-2.792Zm163.053.038c-1.209 0-2.332.226-3.285.66a6.414 6.414 0 0 0-2.406 1.9c-1.282 1.63-2.025 4.049-2.025 6.98 0 3.262.923 5.75 2.597 7.406 1.766 1.75 4.016 2.094 5.577 2.094 4.055 0 6.045-2.227 6.875-4.265l-2.254-1.125c-.548 1.24-1.807 3.141-4.621 3.141-1.609 0-2.925-.669-3.858-1.9-.901-1.192-1.408-2.841-1.413-4.808H203.5v-1.745c0-3.015-.791-5.263-2.253-6.631-1.246-1.163-2.993-1.707-5.309-1.707Zm-134.101.04c-3.189 0-7.716 2.178-7.716 9.5 0 7.11 4.513 9.5 7.563 9.5 1.78 0 3.398-1.001 4.507-2.443l.153-.077v3.49c0 2.447-2.087 3.955-4.316 3.955-2.168 0-4.086-.42-5.653-1.163v2.482c1.32.574 3.466.93 5.309.93 5.017 0 7.41-2.803 7.41-6.863V7.134h-2.1l-.612 1.939c-1.037-1.372-2.395-2.288-4.545-2.288Zm18.257 0c-4.014 0-5.915 2.44-6.722 3.955l2.253 1.202c.316-.866 1.455-2.87 4.507-2.87 2.407 0 3.628 1.078 3.628 3.219v.659s.02.2-.038.271c-.09.115-.343.208-.955.272-3.37.381-5.609.943-7.257 2.016-1.788 1.167-2.902 2.801-2.902 5.041 0 1.591.758 2.95 1.757 3.917.928.89 2.192 1.354 3.59 1.396 2.975.097 4.933-1.16 5.882-2.637.073 1.015.432 1.594 1.222 2.016.742.403 1.96.323 2.483.194V23.5c-.63-.031-1.032-.336-1.032-1.124V12.33c0-1.832-.708-3.335-2.062-4.304-1.116-.804-2.677-1.24-4.354-1.24Zm19.44 0c-1.839 0-3.721.967-5.308 2.791V7.135h-2.827v18.38h2.827V11.867c.962-1.043 3.117-2.792 5.08-2.792 1.967 0 2.826.98 2.826 3.18v13.262h2.826v-13.34c0-3.971-2.781-5.39-5.423-5.39Zm51.143 0c-4.012 0-5.912 2.44-6.722 3.955l2.253 1.202c.318-.866 1.455-2.87 4.507-2.87 2.407 0 3.629 1.078 3.629 3.219v.659s-.02.2-.077.271c-.088.115-.302.208-.916.272-3.37.38-5.61.943-7.257 2.016-1.788 1.167-2.903 2.801-2.903 5.041 0 1.591.757 2.949 1.757 3.917.928.89 2.194 1.354 3.59 1.396 2.973.097 4.934-1.16 5.882-2.637.075 1.014.431 1.594 1.222 2.016.741.403 1.959.323 2.483.194V23.5c-.629-.031-1.031-.336-1.031-1.124V12.33c0-1.832-.745-3.335-2.101-4.304-1.117-.804-2.639-1.24-4.316-1.24Zm19.441 0c-1.844 0-3.722.967-5.309 2.791V7.135h-2.826v18.38h2.826V11.867c.963-1.044 3.115-2.792 5.08-2.792 1.964 0 2.826.98 2.826 3.18v13.262h2.827v-13.34c0-3.971-2.782-5.39-5.424-5.39Zm-117.066.077c-2.868 0-4.567 1.128-6.035 3.8V7.135h-2.826v18.342h2.826V15.085c.698-3.776 2.667-5.546 6.035-5.546V6.864Zm152.358.232 6.302 18.226v.155c-.377 1.747-1.466 3.903-2.445 4.576-.864.595-1.8.66-2.52.66-.348 0-1.067-.12-1.375-.195v2.21c.391.098 1.293.272 1.871.272 1.347 0 2.483-.342 3.438-1.047 1.143-.844 2.409-3.042 3.017-4.925L220 7.096h-2.75l-4.125 14.116-.038.31-.077-.31-4.85-14.116h-2.75Zm-172.525 1.9c3.043 0 4.851 2.712 4.851 7.252 0 4.541-1.808 7.251-4.85 7.251-3.038 0-4.851-2.71-4.851-7.251 0-4.54 1.813-7.252 4.85-7.252Zm29.143.04c1.594 0 2.994.699 4.316 2.365v8.764c-.732 2.113-2.827 3.334-4.316 3.334-2.915 0-4.927-1.842-4.927-7.367 0-4.646 1.806-7.097 4.927-7.097Zm133.986 0c3.238 0 4.686 1.738 4.698 5.506h-9.511c.247-3.765 1.8-5.507 4.813-5.507ZM83.837 15.51v4.654c-.13 1.606-3.088 3.55-5.5 3.412-1.331-.074-2.614-1.162-2.75-2.947-.221-2.983 1.986-4.22 6.913-4.77.343-.032 1.006-.155 1.337-.349Zm70.583 0v4.654c-.13 1.605-3.087 3.55-5.5 3.412-1.329-.075-2.617-1.163-2.75-2.947-.224-2.983 1.986-4.22 6.913-4.77.341-.032 1.009-.155 1.337-.349Z" fill="#000"/></svg>