<svg xmlns="http://www.w3.org/2000/svg" viewBox="0 0 120 24" fill="none">
  <style>
    .text { fill: #706259; }
    @media (prefers-color-scheme: dark) {
      .text { fill: white; }
    }
  </style>
  <g transform="translate(1.5, 0) scale(0.555)">
    <!-- Icon: gold diamond -->
    <path d="M19.58,21.31a.72.72,0,0,1-.51-.21l-6.36-6.36a5.79,5.79,0,0,1,0-8.17L19.08.21a.72.72,0,0,1,1,0l6.36,6.36a5.79,5.79,0,0,1,0,8.17L20.09,21.1a.72.72,0,0,1-.51.21m0-19.58L13.73,7.58a4.35,4.35,0,0,0,0,6.15l5.86,5.85,5.85-5.85a4.36,4.36,0,0,0,0-6.15Z" fill="#c7b000"/>
    <!-- Icon: large green diamond -->
    <path d="M19.56,43.28h0a.71.71,0,0,1-.51-.21L1.69,25.71a5.78,5.78,0,0,1,0-8.17l4-4a.72.72,0,0,1,1,0L24,30.92a5.79,5.79,0,0,1,0,8.17l-4,4a.71.71,0,0,1-.51.21M6.18,15.07,2.7,18.55a4.35,4.35,0,0,0,0,6.14L19.56,41.55,23,38.07a4.36,4.36,0,0,0,0-6.15Z" fill="#63a70a"/>
    <!-- Icon: small green diamond -->
    <path d="M30.55,32.29a.71.71,0,0,1-.51-.21l-4-4a5.79,5.79,0,0,1,0-8.17l6.37-6.37a.72.72,0,0,1,1,0l4,4a5.78,5.78,0,0,1,0,8.17l-6.37,6.38a.71.71,0,0,1-.51.21M33,15.09,27.08,21a4.35,4.35,0,0,0,0,6.15l3.47,3.47,5.87-5.87a4.35,4.35,0,0,0,0-6.15Z" fill="#63a70a"/>
    <!-- Text: P -->
    <path class="text" d="M52.88,28.36a1.12,1.12,0,1,1-2.24,0V18.48a1.06,1.06,0,0,1,1.12-1.12h5.06c3.1,0,4.46,1.65,4.46,3.6s-1.36,3.61-4.46,3.61H52.88Zm4.2-9.14h-4.2V22.7h4.2c1.31,0,2-.72,2-1.74s-.64-1.74-2-1.74"/>
    <!-- Text: A -->
    <path class="text" d="M69.22,17.78l5,10.22a1.17,1.17,0,0,1,.14.53,1,1,0,0,1-1,1,1.11,1.11,0,0,1-1.05-.74l-1.17-2.41H65.38l-1.17,2.41a1.12,1.12,0,0,1-1.05.74,1,1,0,0,1-1-1A1.17,1.17,0,0,1,62.3,28l5-10.22a1,1,0,0,1,1.91,0m-3.06,6.83h4.2l-2.1-4.46Z"/>
    <!-- Text: L -->
    <path class="text" d="M85.66,27.36a1,1,0,0,1,1,1,1,1,0,0,1-1,1h-7a1.06,1.06,0,0,1-1.12-1.12V18.29a1.12,1.12,0,1,1,2.24,0v9.07Z"/>
    <!-- Text: M -->
    <path class="text" d="M100.85,17.88a1.14,1.14,0,0,1,1.07-.72,1,1,0,0,1,1.1,1.12V28.41a1.07,1.07,0,0,1-1.07,1.07,1.05,1.05,0,0,1-1.07-1.07V22l-3.56,6.88a1.07,1.07,0,0,1-2,0L91.8,22v6.45a1.05,1.05,0,0,1-1.07,1.07,1.07,1.07,0,0,1-1.07-1.07V18.29a1,1,0,0,1,1.1-1.12,1.14,1.14,0,0,1,1.07.72l4.51,8.69Z"/>
    <!-- Text: E -->
    <path class="text" d="M109.6,27.38h6.47a1,1,0,1,1,0,1.91h-7.59a1.08,1.08,0,0,1-1.12-1.12V18.48a1.07,1.07,0,0,1,1.1-1.12h7.33a1,1,0,1,1,0,1.91H109.6V22.2h3.6a1,1,0,1,1,0,1.91h-3.6Z"/>
    <!-- Text: T -->
    <path class="text" d="M126.14,19.26v9.1a1.12,1.12,0,0,1-2.24,0v-9.1h-3.58a1,1,0,1,1,0-1.91h9.41a1,1,0,1,1,0,1.91Z"/>
    <!-- Text: T -->
    <path class="text" d="M139.83,19.26v9.1a1.12,1.12,0,0,1-2.24,0v-9.1H134a1,1,0,1,1,0-1.91h9.41a1,1,0,1,1,0,1.91Z"/>
    <!-- Text: O -->
    <path class="text" d="M146.16,23.32a6.4,6.4,0,0,1,12.8,0,6.4,6.4,0,0,1-12.8,0m10.55,0a4.16,4.16,0,1,0-8.31,0,4.16,4.16,0,1,0,8.31,0"/>
    <!-- Text: G -->
    <path class="text" d="M177.18,23.11h3.89A.86.86,0,0,1,182,24v2.89a.9.9,0,0,1-.29.67,7.34,7.34,0,0,1-5.16,2c-4.44,0-6.66-2.75-6.66-6.26s2.72-6.25,6.61-6.25a6.89,6.89,0,0,1,4.56,1.57,1.07,1.07,0,0,1,.4.79,1,1,0,0,1-1,1,.93.93,0,0,1-.6-.19A5.31,5.31,0,0,0,176.51,19a4.11,4.11,0,0,0-4.37,4.32c0,2.29,1.19,4.42,4.42,4.42a5.29,5.29,0,0,0,3.29-1.07V24.95h-2.67a.9.9,0,0,1-.93-.91.92.92,0,0,1,.93-.93"/>
    <!-- Text: B -->
    <path class="text" d="M195.62,20.27a2.87,2.87,0,0,1-2.08,2.7c2,.26,2.82,1.46,2.82,2.86,0,1.77-1.36,3.46-4.7,3.46h-4.75a1.07,1.07,0,0,1-1.12-1.12V18.48a1.08,1.08,0,0,1,1.12-1.12h4.68c2.53,0,4,1.05,4,2.91M188,22.15h3.51c1.27,0,1.82-.72,1.82-1.55s-.67-1.39-1.91-1.39H188ZM188,24v3.41h3.77c1.7,0,2.34-.79,2.34-1.77S193.23,24,191.75,24Z"/>
    <!-- Text: A -->
    <path class="text" d="M205.79,17.78l5,10.22a1.17,1.17,0,0,1,.14.53,1,1,0,0,1-1,1,1.11,1.11,0,0,1-1.05-.74l-1.17-2.41h-5.78l-1.17,2.41a1.12,1.12,0,0,1-1.05.74,1,1,0,0,1-1-1,1.17,1.17,0,0,1,.14-.53l5-10.22a1,1,0,0,1,1.91,0m-3.06,6.83h4.2l-2.1-4.46Z"/>
  </g>
</svg>
