<svg width="112" height="23" viewBox="0 0 112 23" fill="none" xmlns="http://www.w3.org/2000/svg">
<path d="M10.36 0.88359C9.55335 0.427525 8.60571 0.199207 7.51707 0.199207H0.5V17.6141H3.54887V10.9341H7.51707C8.60571 10.9341 9.55335 10.7064 10.36 10.2498C11.1666 9.79369 11.7834 9.16125 12.2108 8.353C12.6383 7.54476 12.852 6.61779 12.852 5.57267C12.852 4.52754 12.6378 3.59886 12.2108 2.78605C11.7834 1.97324 11.1661 1.33908 10.36 0.883019V0.88359ZM9.48895 6.92259C9.30353 7.325 9.0193 7.64408 8.63625 7.88039C8.25319 8.1167 7.77133 8.23485 7.19064 8.23485H3.54887V2.89849H7.19064C8.04557 2.89849 8.68898 3.14964 9.12033 3.65137C9.55169 4.1531 9.76764 4.79353 9.76764 5.57324C9.76764 6.07097 9.67493 6.52076 9.48951 6.92317L9.48895 6.92259ZM35.1079 5.0755L30.0028 19.6045C29.6319 20.6656 29.144 21.4453 28.5389 21.943C27.9337 22.4402 27.1798 22.6891 26.2766 22.6891H24.7233V20.2638H26.059C26.4781 20.2638 26.8251 20.1125 27.0994 19.81C27.3736 19.5069 27.8577 18.2238 27.9787 17.8134L23.4581 5.0755H26.4099L29.3377 14.0689C29.5315 13.3309 32.2089 5.0755 32.2089 5.0755H35.1085H35.1079ZM44.0364 11.413C44.5526 11.9479 44.8108 12.767 44.8108 13.8697C44.8108 14.6329 44.6154 15.3127 44.224 15.9098C43.8326 16.5068 43.3063 16.9737 42.6452 17.3093C41.984 17.645 41.2656 17.8134 40.4917 17.8134H39.4997C38.7014 17.8134 37.9569 17.6552 37.2674 17.3407C36.5779 17.0257 36.0178 16.5907 35.6281 15.9725C35.2273 15.3367 35.0391 14.4885 35.023 13.7088H37.8298C37.8781 14.2145 37.9641 14.8412 38.3078 15.1392C38.6942 15.4742 39.08 15.5621 39.5236 15.5621H40.3463C40.7976 15.5621 41.1768 15.4463 41.4832 15.214C41.7897 14.9816 41.9429 14.6209 41.9429 14.1317C41.9429 13.7173 41.8258 13.396 41.592 13.1677C41.3578 12.9399 40.9991 12.7801 40.515 12.6888L38.1801 12.2161C37.2042 12.0169 36.4603 11.6128 35.9479 11.0032C35.4355 10.3936 35.1795 9.62074 35.1795 8.6835C35.1795 7.95402 35.3688 7.29875 35.748 6.71825C36.1272 6.13775 36.6351 5.69025 37.2724 5.3746C37.9097 5.05952 38.5954 4.90198 39.3293 4.90198H40.2608C41.0025 4.90198 41.6925 5.05553 42.3298 5.36204C42.9671 5.66913 43.4829 6.10236 43.8781 6.66174C44.2734 7.22169 44.4788 8.23942 44.4949 8.96889H41.7608C41.7281 8.53794 41.6564 7.92491 41.3073 7.583C40.973 7.25537 40.615 7.14064 40.2119 7.14064H39.4253C39.0139 7.14064 38.6753 7.2548 38.4088 7.48254C38.1429 7.71086 38.0097 8.02366 38.0097 8.4215C38.0097 8.74514 38.1207 9.02711 38.3422 9.26742C38.5637 9.50772 38.8885 9.67382 39.3159 9.76515L41.6992 10.2754C42.7395 10.4998 43.5178 10.8788 44.0341 11.4136L44.0364 11.413ZM56.0281 14.8464C55.9315 14.7099 55.8827 14.5005 55.8827 14.2185V9.55396C55.8827 8.6835 55.7011 7.88952 55.3381 7.17203C54.975 6.45511 54.4509 5.89288 53.7653 5.48648C53.0797 5.08007 52.2731 4.87687 51.3454 4.87687H50.4622C49.6395 4.87687 48.8734 5.05324 48.1633 5.40542C47.4533 5.75817 46.8726 6.25762 46.4213 6.90433C45.9694 7.55104 45.784 8.1401 45.7196 8.96946H48.5625C48.603 8.38897 48.7318 8.05733 49.0949 7.7257C49.4574 7.39407 49.9298 7.25308 50.4622 7.25308H51.3454C51.6519 7.25308 51.9383 7.34669 52.2042 7.53277C52.4702 7.71942 52.68 7.98085 52.8332 8.31647C52.9864 8.6521 53.0631 9.02768 53.0631 9.44208V9.69152L49.8327 10.1887C48.5342 10.4044 47.4955 10.84 46.7172 11.4947C45.9388 12.1499 45.5497 13.0455 45.5497 14.1814C45.5497 14.9114 45.7168 15.5502 46.0515 16.097C46.3863 16.6444 46.8598 17.0673 47.4733 17.3658C48.0862 17.6644 48.7956 17.8139 49.6028 17.8139C50.4655 17.8139 51.2277 17.6398 51.8895 17.2916C52.5507 16.9435 53.0386 16.4668 53.3534 15.8612C53.3856 16.4668 53.5771 16.9104 53.928 17.1923C54.2788 17.4743 54.7563 17.6153 55.3614 17.6153H57.2605V15.1649C56.8975 15.1649 56.6249 15.1466 56.4439 15.1089C56.2624 15.0718 56.123 14.9851 56.0264 14.8475L56.0281 14.8464ZM53.0642 12.4148C53.0642 13.0284 52.9409 13.5718 52.695 14.0444C52.4491 14.517 52.1021 14.884 51.6547 15.1455C51.2066 15.4069 50.6926 15.537 50.1119 15.537C49.6195 15.537 49.2164 15.4006 48.9022 15.1266C48.5875 14.8532 48.4304 14.4965 48.4304 14.057C48.4304 13.5096 48.6058 13.1094 48.9566 12.8566C49.3075 12.6037 49.8499 12.4108 50.5838 12.2784L53.0636 11.8057V12.4153L53.0642 12.4148ZM24.8321 15.1637C24.4691 15.1637 24.1965 15.1455 24.0155 15.1078C23.834 15.0707 23.6946 14.9839 23.598 14.8464C23.5014 14.7099 23.4526 14.5005 23.4526 14.2185V9.55396C23.4526 8.6835 23.2711 7.88952 22.908 7.17203C22.5449 6.45511 22.0209 5.89288 21.3353 5.48648C20.6496 5.08007 19.843 4.87687 18.9154 4.87687H18.0321C17.2094 4.87687 16.4433 5.05324 15.7333 5.40542C15.0232 5.75817 14.4425 6.25762 13.9912 6.90433C13.5393 7.55104 13.3539 8.1401 13.2895 8.96946H16.1324C16.1729 8.38897 16.3017 8.05733 16.6648 7.7257C17.0273 7.39407 17.4997 7.25308 18.0321 7.25308H18.9154C19.2218 7.25308 19.5083 7.34669 19.7742 7.53277C20.0401 7.71942 20.2499 7.98085 20.4032 8.31647C20.5564 8.6521 20.633 9.02768 20.633 9.44208V9.69152L17.4026 10.1887C16.1041 10.4044 15.0654 10.84 14.2871 11.4947C13.5088 12.1499 13.1196 13.0455 13.1196 14.1814C13.1196 14.9114 13.2867 15.5502 13.6215 16.097C13.9562 16.6444 14.4298 17.0673 15.0432 17.3658C15.6561 17.6644 16.3656 17.8139 17.1728 17.8139C18.0355 17.8139 18.7977 17.6398 19.4594 17.2916C20.1206 16.9435 20.6086 16.4668 20.9233 15.8612C20.9555 16.4668 21.1471 16.9104 21.4979 17.1923C21.8488 17.4743 22.3262 17.6153 22.9313 17.6153H24.8305V15.1649L24.8321 15.1637ZM20.6341 12.4148C20.6341 13.0284 20.5109 13.5718 20.2649 14.0444C20.019 14.517 19.672 14.884 19.2246 15.1455C18.7766 15.4069 18.2625 15.537 17.6818 15.537C17.1894 15.537 16.7864 15.4006 16.4722 15.1266C16.1574 14.8532 16.0003 14.4965 16.0003 14.057C16.0003 13.5096 16.1757 13.1094 16.5266 12.8566C16.8774 12.6037 17.4198 12.4108 18.1537 12.2784L20.6335 11.8057V12.4153L20.6341 12.4148ZM64.9976 7.50138H61.6828V17.6141H58.8399V7.50138H56.4689V5.0755H58.8399V3.89396C58.8399 2.69187 59.1342 1.77517 59.7232 1.14501C60.3116 0.514857 61.1382 0.199778 62.203 0.199778H64.9976V2.62565H63.0618C62.5938 2.62565 62.2469 2.75237 62.0215 3.00523C61.7955 3.25809 61.6828 3.64566 61.6828 4.16851V5.07665H64.9976V7.50252V7.50138ZM73.7201 5.68511C72.9618 5.14628 72.1068 4.8763 71.1553 4.8763H70.2238C69.3206 4.8763 68.4634 5.13943 67.6529 5.66628C66.8424 6.19312 66.1868 6.94999 65.6871 7.93632C65.1869 8.92323 64.9371 10.0471 64.9371 11.3074C64.9371 12.5678 65.1686 13.6814 65.6327 14.6723C66.0963 15.6632 66.7375 16.4343 67.5563 16.9857C68.3746 17.5371 69.28 17.8128 70.2721 17.8128H71.1675C72.0141 17.8128 72.7947 17.6216 73.5086 17.2403C74.2225 16.859 74.8087 16.3344 75.269 15.6666C75.7286 14.9993 75.9984 14.255 76.0795 13.4336H73.3693C73.2643 13.981 73.0123 14.4394 72.6131 14.8081C72.214 15.1774 71.7399 15.3618 71.1914 15.3618H70.296C69.828 15.3618 69.4027 15.194 69.0197 14.8578C68.6366 14.5222 68.3318 14.041 68.1065 13.4148C67.9505 12.9827 67.85 12.5033 67.8017 11.9781H76.14C76.1489 11.8908 76.1883 11.1864 76.1883 10.8959C76.1883 9.80168 75.9662 8.79366 75.5227 7.87297C75.0791 6.95285 74.4779 6.2228 73.7201 5.68397V5.68511ZM67.9088 9.82737C67.9654 9.5648 68.0398 9.31594 68.1309 9.08134C68.3729 8.45974 68.6894 7.98713 69.0807 7.66349C69.4716 7.34042 69.8813 7.17831 70.3087 7.17831H71.1553C71.5345 7.17831 71.8892 7.29475 72.2201 7.52649C72.551 7.75881 72.8147 8.08016 73.0123 8.49057C73.2094 8.90097 73.3165 9.34676 73.3326 9.82794H67.9083L67.9088 9.82737ZM111.53 9.00143V9.0117C111.53 9.10874 111.492 9.20235 111.426 9.27084L102.976 17.9589C102.943 17.9932 102.897 18.0126 102.85 18.0126H102.797C102.698 18.0126 102.618 17.9304 102.618 17.8293V9.0117C102.618 9.10874 102.581 9.20235 102.514 9.27084L94.1162 17.9052C94.0496 17.9737 93.9586 18.0126 93.8642 18.0126H93.8542C93.7598 18.0126 93.6688 17.9737 93.6022 17.9052L85.2045 9.27084C85.1378 9.20235 85.1001 9.10874 85.1001 9.0117V9.00143C85.1001 8.90439 85.1378 8.81078 85.2045 8.74229L93.6011 0.107309C93.6677 0.038814 93.7587 0 93.8531 0H93.8631C93.9575 0 94.0485 0.038814 94.1151 0.107309L102.513 8.74172C102.579 8.81021 102.617 8.90382 102.617 9.00086V0.183225C102.617 0.0821944 102.697 0 102.795 0H102.849C102.896 0 102.941 0.019407 102.975 0.0536547L111.425 8.74172C111.491 8.81021 111.529 8.90382 111.529 9.00086L111.53 9.00143Z" fill="#141414"/>
</svg>
