<svg width="200" height="48" fill="none" xmlns="http://www.w3.org/2000/svg"><path d="M16.241 0c9.046 0 16.242 7.07 16.242 15.957 0 8.889-7.196 15.957-16.242 15.957C7.195 31.915 0 24.846 0 15.957 0 7.07 7.195 0 16.241 0ZM8.138 9.3v2.641h16.207V9.3H8.138Zm16.207 13.315v-7.997H8.138v7.996h2.69v-3.02c0-.858.21-1.338.523-1.681.35-.412.874-.652 1.503-.652.629 0 1.152.24 1.501.652.315.343.524.823.524 1.68v3.021h2.725v-3.02c0-.858.21-1.338.524-1.681.35-.412.874-.652 1.502-.652s1.152.24 1.502.652c.314.343.524.823.524 1.68v3.021l2.689.001Z" fill="#FA5B35"/><path d="M42.371 9.952c0 2.882 4.192 3.466 7.335 5.25 1.956 1.098 3.562 2.883 3.562 5.903 0 4.323-3.597 7.035-7.579 7.035-3.982 0-6.846-1.888-7.963-3.09l1.571-3.26h.14c1.327 1.27 3.353 2.471 5.973 2.471 1.712 0 3.562-.995 3.562-2.951 0-2.917-4.191-3.5-7.335-5.285-1.956-1.098-3.562-2.882-3.562-5.902 0-4.324 3.632-7.036 7.684-7.036 3.807 0 6.392 1.889 7.51 2.918l-1.572 3.26h-.14c-1.362-1.202-3.073-2.3-5.449-2.3-1.886 0-3.737.996-3.737 2.987Zm11.526 3.946h4.122l2.444 6.967h.14l3.457-9.712h2.795l3.632 9.815h.14l3.493-9.815h3.911L72.06 27.625h-2.725l-3.842-10.363h-.14L61.65 27.625h-2.794l-4.959-13.727ZM79.744 4.29h4.157v3.946h-4.157V4.29Zm.07 6.863h4.017v16.471h-4.017V11.153ZM93.191 28.14c-2.375 0-4.68-.893-6.287-2.402l1.117-2.952h.14c1.257 1.098 2.864 1.957 4.715 1.957 1.397 0 2.305-.584 2.305-1.614 0-1.064-1.153-1.476-2.585-1.922-2.305-.72-5.343-1.819-5.343-5.25 0-3.158 2.515-5.32 6.112-5.32 1.956 0 3.947.686 5.588 1.956l-1.117 2.985h-.14c-1.188-.927-2.724-1.544-4.016-1.544-1.572 0-2.48.584-2.48 1.613 0 1.064 1.152 1.476 2.584 1.922 2.306.72 5.344 1.819 5.344 5.25 0 3.159-2.513 5.32-5.937 5.32Zm14.356 0c-2.376 0-4.681-.893-6.288-2.402l1.118-2.952h.14c1.257 1.098 2.863 1.957 4.715 1.957 1.397 0 2.305-.584 2.305-1.614 0-1.064-1.152-1.476-2.584-1.922-2.306-.72-5.344-1.819-5.344-5.25 0-3.158 2.515-5.32 6.112-5.32 1.956 0 3.947.686 5.589 1.956l-1.118 2.985h-.14c-1.188-.927-2.724-1.544-4.017-1.544-1.572 0-2.479.584-2.479 1.613 0 1.064 1.152 1.476 2.584 1.922 2.306.72 5.344 1.819 5.344 5.25 0 3.159-2.514 5.32-5.937 5.32Zm24.414-16.987v23.679h-4.017v-8.409c-1.152 1.065-2.829 1.717-4.436 1.717-4.749 0-7.788-3.605-7.788-8.58 0-4.667 3.248-8.922 8.208-8.922 1.536 0 3.038.583 4.225 1.51h.141v-.996h3.667Zm-4.017 4.29c-.838-.756-2.165-1.201-3.387-1.201-2.864 0-4.716 2.196-4.716 5.284 0 2.78 1.607 5.01 4.471 5.01 1.363 0 2.655-.514 3.633-1.543l-.001-7.55Zm11.422 5.559c0 1.441.244 2.059.663 2.573.524.618 1.362 1.029 2.306 1.029.942 0 1.781-.411 2.305-1.029.419-.514.663-1.132.663-2.573v-9.85h4.017v9.438c0 2.677-.733 4.358-1.99 5.56-1.258 1.235-3.039 1.99-5.17 1.99-1.956 0-3.667-.721-4.889-1.923-1.223-1.2-1.922-2.917-1.922-5.627v-9.437h4.017V21Zm12.713-1.442c0-5.25 3.634-8.922 8.733-8.922s8.731 3.672 8.731 8.58c0 5.25-3.632 8.922-8.731 8.922s-8.733-3.673-8.733-8.58Zm8.733-5.318c-2.69 0-4.611 2.23-4.611 5.147 0 2.916 1.922 5.147 4.611 5.147s4.61-2.23 4.61-5.147c0-2.918-1.921-5.147-4.61-5.147Zm22.353 10.157v3.053c-1.083.446-2.27.687-3.598.687-1.781 0-3.108-.516-4.016-1.408-.979-.96-1.468-2.368-1.468-4.872v-7.276h-3.841v-3.431h3.841v-5.49h4.017v5.49h5.065v3.432H178.1v7.79c0 .858.175 1.339.454 1.647.489.549 1.293.687 2.166.687.908 0 1.99-.206 2.305-.31h.14Zm9.85 3.74c-4.889 0-8.558-3.396-8.558-8.58 0-4.735 2.934-8.921 8.139-8.921 4.436 0 7.404 3.466 7.404 8.236v1.304h-11.351c.105 2.573 1.921 4.496 4.576 4.496 1.711 0 3.283-.687 4.714-1.854h.14l1.503 2.745c-1.572 1.648-3.912 2.575-6.567 2.575Zm2.969-11.05c-.035-1.544-1.258-3.088-3.318-3.088-2.026 0-3.387 1.338-3.807 3.088h7.125ZM37.727 41.99h4.62v.925H40.55v4.96h-1.026v-4.96h-1.796v-.925Zm9.498 3.32h-2.952v2.563h-1.026V41.99h1.026v2.396h2.952V41.99h1.026v5.884h-1.026V45.31Zm2.483-3.32h3.507v.907h-2.48v1.488h2.352v.882h-2.353v1.7h2.481v.906h-3.507V41.99Zm7.497 1.555c0 .707 1.026.85 1.796 1.287.479.268.873.706.873 1.445 0 1.06-.882 1.723-1.857 1.723s-1.676-.462-1.95-.755l.385-.799h.034c.324.311.821.605 1.463.605.419 0 .872-.244.872-.723 0-.715-1.026-.856-1.796-1.294-.48-.269-.873-.706-.873-1.446 0-1.06.89-1.722 1.882-1.722.933 0 1.566.461 1.84.714l-.386.798h-.034c-.334-.293-.752-.563-1.334-.563-.462-.001-.915.243-.915.73Zm3.03-1.555h1.053l1.497 4.035h.034l1.394-4.035h.727l1.437 4.035h.034l1.497-4.035h1.01l-2.181 5.884h-.728l-1.428-4.077h-.035l-1.403 4.077h-.727l-2.18-5.884Zm9.431 0h1.026v5.884h-1.026V41.99Zm3.234 1.555c0 .707 1.027.85 1.796 1.287.48.268.873.706.873 1.445 0 1.06-.881 1.723-1.856 1.723-.976 0-1.677-.462-1.95-.755l.384-.799h.034a2.11 2.11 0 0 0 1.463.605c.42 0 .873-.244.873-.723 0-.715-1.026-.856-1.797-1.294-.479-.269-.873-.706-.873-1.446 0-1.06.89-1.722 1.883-1.722a2.73 2.73 0 0 1 1.84.714l-.386.798h-.034c-.334-.293-.753-.563-1.335-.563-.461-.001-.915.243-.915.73Zm4.536 0c0 .707 1.026.85 1.796 1.287.479.268.873.706.873 1.445 0 1.06-.882 1.723-1.857 1.723s-1.676-.462-1.95-.755l.385-.799h.034c.324.311.821.605 1.463.605.419 0 .872-.244.872-.723 0-.715-1.026-.856-1.796-1.294-.48-.269-.873-.706-.873-1.446 0-1.06.89-1.722 1.882-1.722.933 0 1.565.461 1.84.714l-.386.798h-.034c-.334-.293-.752-.563-1.335-.563-.46-.001-.914.243-.914.73Zm5.803-1.555h1.026v4.959h2.481v.925H83.24V41.99Zm4.416 0h3.507v.907h-2.48v1.488h2.352v.882h-2.353v1.7h2.481v.906h-3.507V41.99Zm3.937 5.883 2.685-5.884h.728l2.694 5.884h-1.086l-.693-1.513h-2.583l-.693 1.513h-1.052Zm3.01-4.37-.864 1.975h1.772l-.873-1.974h-.034Zm3.759-1.513h1.925c1.009 0 1.779.32 2.318.85a2.83 2.83 0 0 1 .847 2.05c0 .84-.325 1.58-.864 2.118-.539.538-1.292.866-2.301.866h-1.925V41.99Zm1.026.925v4.033h.788c.804 0 1.335-.236 1.702-.621.324-.344.522-.815.522-1.353 0-.58-.188-1.068-.522-1.428-.368-.396-.899-.63-1.702-.63l-.787-.001Zm5.153-.925h3.507v.907h-2.48v1.488h2.352v.882h-2.352v1.7h2.48v.906h-3.507V41.99Zm7.067 3.42 2.318 2.464h-1.342l-2.258-2.463h-.034v2.463h-1.027V41.99h1.898c.677 0 1.139.185 1.455.496.317.311.496.74.496 1.21 0 .933-.65 1.632-1.505 1.68l-.001.035Zm-1.316-2.513v1.673h.743c.462 0 .702-.117.856-.302a.736.736 0 0 0 .172-.488.953.953 0 0 0-.18-.572c-.153-.194-.385-.311-.847-.311h-.744Zm6.11-.907h1.027v5.884h-1.027V41.99Zm7.914 5.883h-.685l-3.686-4.085h-.035v4.085h-1.026V41.99h.684l3.687 4.085h.035V41.99h1.026v5.884Zm6.155-6.009c1.762 0 3.036 1.293 3.036 3.025 0 1.816-1.275 3.11-3.036 3.11-1.762 0-3.037-1.294-3.037-3.025 0-1.816 1.275-3.11 3.037-3.11Zm0 .94c-1.164 0-1.985.884-1.985 2.128 0 1.243.821 2.127 1.985 2.127 1.163 0 1.984-.884 1.984-2.127 0-1.244-.821-2.127-1.984-2.127Zm9.566 5.069h-.685l-3.687-4.085h-.034v4.085h-1.027V41.99h.684l3.688 4.085h.034V41.99h1.027v5.884Zm1.457-5.883h1.027v4.959H145v.925h-3.508l.001-5.884Zm4.416 0h1.026v5.884h-1.026V41.99Zm7.914 5.883h-.685l-3.687-4.085h-.034v4.085h-1.027V41.99h.684l3.688 4.085h.034V41.99h1.027v5.884Zm1.457-5.883h3.507v.907h-2.48v1.488h2.352v.882h-2.352v1.7h2.48v.906h-3.507V41.99Zm10.028 2.756c.462.203.864.748.864 1.404 0 .47-.205.891-.514 1.202-.324.328-.769.522-1.437.522h-2.198V41.99h2.053c.633 0 1.052.177 1.352.47.299.296.487.707.487 1.143 0 .48-.247.9-.607 1.11v.033Zm-2.258-1.849v1.488h.882c.462 0 .701-.126.829-.328a.693.693 0 0 0 .102-.369c0-.21-.06-.378-.162-.513-.137-.176-.342-.278-.769-.278h-.882Zm0 2.37v1.7h1.035c.47 0 .71-.127.864-.321a.807.807 0 0 0 .171-.488.958.958 0 0 0-.137-.503c-.146-.244-.41-.388-.898-.388h-1.035Zm3.365 2.606 2.685-5.884h.728l2.695 5.884h-1.086l-.694-1.513h-2.583l-.692 1.513h-1.053Zm3.011-4.37-.864 1.975h1.771l-.873-1.974h-.034Zm9.189 4.37h-.684l-3.687-4.085h-.034v4.085h-1.026V41.99h.684l3.687 4.085h.035V41.99h1.025v5.884Zm2.518-2.975 2.412-2.908h1.189l-2.506 3.026 2.591 2.858h-1.317l-2.369-2.631h-.034v2.631h-1.027V41.99h1.027v2.908h.034Zm4.348-2.908h1.027v5.884h-1.027V41.99Zm7.914 5.883h-.685l-3.686-4.085h-.034v4.085h-1.027V41.99h.684l3.688 4.085h.034V41.99h1.026v5.884Zm5.581-1.26v-1.85h.984v2.178c-.385.47-1.181 1.058-2.361 1.058-1.873 0-3.113-1.293-3.113-3.025 0-1.824 1.309-3.11 3.079-3.11 1.173 0 1.908.53 2.31.95l-.488.748h-.034c-.41-.396-1.001-.757-1.754-.757-1.257 0-2.061.941-2.061 2.127 0 1.21.753 2.143 2.061 2.143.581 0 1.078-.201 1.377-.462Z" fill="#1F2937"/></svg>