<svg xmlns="http://www.w3.org/2000/svg" width="182" height="44" fill="none" viewBox="0 0 182 44">
  <path fill="#FA5B35" d="M14.745 0C22.958 0 29.49 6.466 29.49 14.595c0 8.13-6.532 14.596-14.745 14.596S0 22.725 0 14.595C0 6.466 6.532 0 14.745 0ZM7.388 8.506v2.416h14.714V8.506H7.388Zm14.714 12.179V13.37H7.388v7.313H9.83v-2.762c0-.785.19-1.224.476-1.538.317-.376.793-.596 1.364-.596.57 0 1.046.22 1.363.596.285.314.476.753.476 1.538v2.762h2.473v-2.762c0-.785.19-1.224.476-1.538.317-.376.793-.596 1.364-.596.57 0 1.046.22 1.363.596.285.314.476.753.476 1.538v2.762h2.44Z"/>
  <path fill="#FFF9F9" d="M38.468 9.102c0 2.637 3.805 3.17 6.659 4.803 1.775 1.004 3.234 2.636 3.234 5.398 0 3.954-3.266 6.435-6.881 6.435s-6.215-1.727-7.23-2.825l1.427-2.983h.127c1.205 1.162 3.044 2.26 5.422 2.26 1.555 0 3.235-.91 3.235-2.7 0-2.667-3.806-3.2-6.66-4.833-1.775-1.004-3.234-2.636-3.234-5.398 0-3.955 3.298-6.435 6.976-6.435 3.457 0 5.803 1.727 6.818 2.668l-1.427 2.982h-.127c-1.236-1.1-2.79-2.104-4.946-2.104-1.713.001-3.393.912-3.393 2.732Zm10.464 3.61h3.742l2.219 6.372h.127l3.139-8.883h2.537l3.298 8.977h.127l3.17-8.977h3.552L65.42 25.267h-2.473l-3.488-9.478h-.127l-3.361 9.478h-2.537l-4.502-12.555Zm23.466-8.788h3.773v3.61h-3.773v-3.61Zm.063 6.277h3.647v15.065h-3.647V10.201Zm12.145 15.537c-2.156 0-4.25-.816-5.708-2.197l1.015-2.7h.126c1.142 1.004 2.6 1.79 4.28 1.79 1.269 0 2.094-.534 2.094-1.476 0-.973-1.047-1.35-2.347-1.758-2.093-.659-4.851-1.664-4.851-4.802 0-2.889 2.283-4.866 5.549-4.866 1.776 0 3.583.627 5.073 1.79l-1.014 2.73h-.127c-1.078-.848-2.474-1.413-3.647-1.413-1.426 0-2.251.534-2.251 1.475 0 .974 1.046 1.35 2.347 1.759 2.093.658 4.851 1.663 4.851 4.802 0 2.889-2.282 4.866-5.39 4.866Zm13.033 0c-2.156 0-4.25-.816-5.708-2.197l1.014-2.7h.127c1.142 1.004 2.6 1.79 4.281 1.79 1.269 0 2.093-.534 2.093-1.476 0-.973-1.046-1.35-2.346-1.758-2.093-.659-4.852-1.664-4.852-4.802 0-2.889 2.284-4.866 5.55-4.866 1.775 0 3.583.627 5.073 1.79l-1.014 2.73h-.127c-1.079-.848-2.474-1.413-3.648-1.413-1.426 0-2.25.534-2.25 1.475 0 .974 1.046 1.35 2.346 1.759 2.093.658 4.852 1.663 4.852 4.802 0 2.889-2.283 4.866-5.391 4.866Zm22.165-15.537v21.658h-3.646v-7.69c-1.046.973-2.569 1.57-4.028 1.57-4.312 0-7.071-3.298-7.071-7.849 0-4.268 2.95-8.16 7.452-8.16 1.395 0 2.758.534 3.836 1.38h.128v-.91h3.329Zm-3.646 3.923c-.762-.69-1.966-1.098-3.076-1.098-2.6 0-4.281 2.009-4.281 4.834 0 2.542 1.458 4.582 4.059 4.582 1.237 0 2.41-.47 3.298-1.412v-6.906Zm10.369 5.085c0 1.319.222 1.883.602 2.354.475.566 1.237.94 2.093.94.856 0 1.617-.375 2.093-.94.381-.47.602-1.035.602-2.354v-9.008h3.647v8.631c0 2.449-.666 3.987-1.807 5.086-1.142 1.13-2.759 1.82-4.693 1.82-1.776 0-3.33-.66-4.439-1.758-1.111-1.099-1.745-2.669-1.745-5.148v-8.631h3.647v9.008Zm11.542-1.318c0-4.802 3.299-8.16 7.928-8.16s7.927 3.358 7.927 7.847c0 4.802-3.298 8.16-7.927 8.16s-7.928-3.359-7.928-7.847Zm7.928-4.865c-2.442 0-4.186 2.04-4.186 4.708 0 2.667 1.745 4.708 4.186 4.708s4.186-2.04 4.186-4.708-1.744-4.708-4.186-4.708Zm20.295 9.29v2.793c-.984.408-2.062.628-3.267.628-1.617 0-2.822-.471-3.647-1.288-.888-.878-1.332-2.165-1.332-4.456V13.34h-3.487V10.2h3.487V5.179h3.647V10.2h4.598v3.138h-4.598v7.125c0 .785.159 1.225.412 1.507.444.502 1.174.628 1.966.628.825 0 1.807-.189 2.093-.283h.128Zm8.942 3.422c-4.439 0-7.769-3.107-7.769-7.848 0-4.33 2.663-8.16 7.388-8.16 4.027 0 6.722 3.17 6.722 7.533v1.192H171.27c.095 2.355 1.744 4.113 4.154 4.113 1.554 0 2.981-.629 4.28-1.696h.127l1.364 2.511c-1.426 1.507-3.551 2.355-5.961 2.355Zm2.695-10.107c-.031-1.412-1.142-2.825-3.012-2.825-1.839 0-3.076 1.224-3.456 2.825h6.468ZM34.252 38.406h4.193v.847h-1.63v4.535h-.932v-4.535h-1.63l-.001-.847Zm8.622 3.036h-2.68v2.346h-.931v-5.382h.932v2.191h2.68v-2.191h.931v5.382h-.932v-2.346Zm2.255-3.036h3.184v.83h-2.252v1.361h2.136v.807H46.06v1.554h2.252v.83h-3.184v-5.382Zm6.806 1.423c0 .646.932.777 1.63 1.176.435.246.793.647.793 1.323 0 .969-.8 1.575-1.686 1.575-.885 0-1.522-.422-1.77-.69l.35-.731h.03c.295.285.746.553 1.328.553.381 0 .793-.223.793-.66 0-.655-.932-.784-1.632-1.185-.434-.245-.792-.646-.792-1.322 0-.97.808-1.576 1.709-1.576.846 0 1.421.423 1.67.654l-.35.73h-.03c-.304-.268-.684-.515-1.213-.515-.418-.001-.83.222-.83.668Zm2.751-1.423h.956L57 42.096h.03l1.267-3.69h.66l1.304 3.69h.031l1.36-3.69h.916l-1.98 5.382h-.66L58.63 40.06h-.03l-1.275 3.73h-.66l-1.98-5.383Zm8.562 0h.932v5.382h-.932v-5.382Zm2.937 1.423c0 .646.931.777 1.63 1.176.435.246.793.647.793 1.323 0 .969-.8 1.575-1.686 1.575-.885 0-1.522-.422-1.77-.69l.349-.731h.03c.295.285.747.553 1.329.553.38 0 .792-.223.792-.66 0-.655-.932-.784-1.631-1.185-.435-.245-.792-.646-.792-1.322 0-.97.808-1.576 1.709-1.576.846 0 1.42.423 1.67.654l-.35.73h-.031c-.303-.268-.683-.515-1.212-.515-.419-.001-.83.222-.83.668Zm4.117 0c0 .646.932.777 1.63 1.176.436.246.793.647.793 1.323 0 .969-.8 1.575-1.685 1.575-.886 0-1.523-.422-1.771-.69l.35-.731h.03c.295.285.746.553 1.329.553.38 0 .792-.223.792-.66 0-.655-.932-.784-1.631-1.185-.435-.245-.793-.646-.793-1.322 0-.97.808-1.576 1.709-1.576.847 0 1.421.423 1.67.654l-.35.73h-.03c-.304-.268-.684-.515-1.213-.515-.418-.001-.83.222-.83.668Zm5.268-1.423h.933v4.536h2.252v.846h-3.184v-5.382Zm4.01 0h3.184v.83h-2.252v1.361h2.136v.807h-2.136v1.554h2.252v.83H79.58v-5.382Zm3.574 5.382 2.438-5.382h.66l2.447 5.382h-.986l-.63-1.385H84.74l-.63 1.385h-.955Zm2.734-3.997-.785 1.805h1.608l-.792-1.805h-.031Zm3.412-1.385h1.747c.916 0 1.616.293 2.105.777.49.477.77 1.145.77 1.876 0 .768-.296 1.445-.785 1.937-.49.492-1.174.792-2.09.792H89.3v-5.382Zm.931.846v3.69h.715c.73 0 1.212-.217 1.546-.569a1.79 1.79 0 0 0 .473-1.237c0-.53-.17-.977-.474-1.307-.334-.361-.815-.576-1.545-.576l-.715-.001Zm4.679-.846h3.184v.83H95.84v1.361h2.136v.807H95.84v1.554h2.253v.83h-3.185v-5.382Zm6.416 3.129 2.104 2.253h-1.219l-2.05-2.253h-.031v2.253h-.932v-5.382h1.724c.614 0 1.033.17 1.32.454.288.285.451.676.451 1.107 0 .853-.59 1.492-1.367 1.537v.031Zm-1.196-2.3v1.531h.676c.419 0 .636-.107.776-.276a.675.675 0 0 0 .156-.446.875.875 0 0 0-.163-.523c-.139-.178-.349-.285-.769-.285h-.676Zm5.548-.829h.932v5.382h-.932v-5.382Zm7.185 5.382h-.622l-3.347-3.737h-.031v3.736h-.932v-5.381h.621l3.348 3.736h.031v-3.736h.932v5.382Zm5.587-5.497c1.6 0 2.757 1.183 2.757 2.767 0 1.661-1.157 2.844-2.757 2.844-1.599 0-2.757-1.183-2.757-2.767 0-1.66 1.158-2.844 2.757-2.844Zm0 .86c-1.056 0-1.802.808-1.802 1.947 0 1.136.746 1.944 1.802 1.944s1.802-.808 1.802-1.944c0-1.139-.746-1.947-1.802-1.947Zm8.685 4.637h-.622l-3.347-3.737h-.031v3.736h-.932v-5.381h.621l3.348 3.736h.031v-3.736h.932v5.382Zm1.323-5.382h.932v4.536h2.252v.846h-3.185l.001-5.382Zm4.009 0h.932v5.382h-.932v-5.382Zm7.185 5.382h-.622l-3.347-3.737h-.031v3.736h-.932v-5.381h.621l3.348 3.736h.031v-3.736h.932v5.382Zm1.323-5.382h3.184v.83h-2.251v1.361h2.135v.807h-2.135v1.554h2.251v.83h-3.184v-5.382Zm9.104 2.521c.42.186.784.684.784 1.284 0 .43-.186.815-.466 1.1-.294.3-.698.477-1.305.477h-1.995v-5.382h1.864c.574 0 .955.162 1.227.43.272.27.443.647.443 1.046 0 .439-.225.823-.552 1.015v.03Zm-2.05-1.691v1.361h.801c.419 0 .636-.116.752-.3a.635.635 0 0 0 .093-.337.754.754 0 0 0-.147-.47c-.125-.161-.31-.254-.698-.254h-.801Zm0 2.168v1.554h.94c.427 0 .644-.116.784-.293a.74.74 0 0 0 .156-.446.882.882 0 0 0-.125-.46c-.133-.224-.372-.355-.815-.355h-.94Zm3.055 2.384 2.438-5.382h.661l2.447 5.382h-.987l-.629-1.385h-2.345l-.629 1.385h-.956Zm2.734-3.997-.784 1.805h1.607l-.792-1.805h-.031Zm8.343 3.997h-.621l-3.348-3.737h-.031v3.736h-.931v-5.381h.621l3.347 3.736h.031v-3.736h.932v5.382Zm2.286-2.722 2.189-2.66h1.079l-2.275 2.768 2.353 2.614h-1.196l-2.151-2.406h-.031v2.406h-.932v-5.382h.932v2.66h.032Zm3.947-2.66h.932v5.382h-.932v-5.382Zm7.185 5.382h-.622l-3.347-3.737h-.031v3.736h-.932v-5.381h.621l3.348 3.736h.031v-3.736h.932v5.382Zm5.066-1.153v-1.692h.894v1.992c-.349.43-1.072.968-2.143.968-1.701 0-2.827-1.183-2.827-2.767 0-1.668 1.188-2.844 2.796-2.844 1.064 0 1.732.483 2.097.868l-.443.684h-.031c-.373-.362-.909-.693-1.592-.693-1.142 0-1.872.861-1.872 1.947 0 1.106.684 1.96 1.872 1.96.527 0 .978-.185 1.249-.423Z"/>
</svg>
