<svg xmlns="http://www.w3.org/2000/svg" width="60" height="60" fill="none" viewBox="0 0 60 60">
  <rect width="59" height="59" x=".5" y=".5" fill="#fff" stroke="#E7E7E7" rx="3.5"/>
  <path fill="#646464" d="M23.502 24.486a3.58 3.58 0 0 0-3.23-1.47 4 4 0 0 0-2.77 1c-1.13 1.13-1.38 2.88-1.38 4.73 0 1.85.25 3.59 1.38 4.72a3.9 3.9 0 0 0 2.74 1 3.66 3.66 0 0 0 3.18-1.47v1.78c0 1.94-.92 3.48-3.11 3.48a3.49 3.49 0 0 1-2.72-1.13l-1.09 1.06a5 5 0 0 0 3.85 1.52 4.51 4.51 0 0 0 4.73-4.86v-11.66h-1.58v1.3Zm-2.84 8.48c-2.47 0-2.83-2.12-2.83-4.24s.37-4.24 2.83-4.24 2.81 2.12 2.81 4.24-.39 4.25-2.86 4.25l.05-.01Zm-10.16-9.95c-1.9 0-3 .37-4.06 1.68l1.13 1a3 3 0 0 1 2.86-1.26c2.07 0 2.9.83 2.9 2.49v1.09h-3.41c-2.54 0-3.92 1.29-3.92 3.27a3.27 3.27 0 0 0 .85 2.31 4 4 0 0 0 3.21 1 4 4 0 0 0 3.27-1.22v1.08h1.66v-7.66c0-2.47-1.49-3.78-4.49-3.78Zm2.83 7.47a2.62 2.62 0 0 1-.58 2 3.31 3.31 0 0 1-2.53.7c-1.8 0-2.61-.62-2.61-1.94 0-1.32.83-2 2.54-2h3.18v1.24Zm38.17-2.38-1.82-.16c-1.43-.12-2-.69-2-1.66 0-1.15.87-1.87 2.53-1.87a4.85 4.85 0 0 1 3 .9l1.13-1.13a6.42 6.42 0 0 0-4.08-1.17c-2.42 0-4.17 1.25-4.17 3.32 0 1.85 1.17 2.85 3.41 3.04l1.87.16c1.31.11 1.89.67 1.89 1.66 0 1.34-1.15 2-3 2a4.65 4.65 0 0 1-3.58-1.31l-1.1 1.11a6.24 6.24 0 0 0 4.66 1.64c2.74 0 4.61-1.27 4.61-3.46s-1.35-2.88-3.35-3.07Zm-6.69-2.47a3.11 3.11 0 0 0-1.4-1.94 5.789 5.789 0 0 0-3-.68 4.84 4.84 0 0 0-3.53 1.17c-.06.06-.53.52-.48.57l.34.31.77.71a2.85 2.85 0 0 1 2-1.25 4.57 4.57 0 0 1 2.68.32c.595.356.97.988 1 1.68v1.53h-3.06a6.148 6.148 0 0 0-2.11.29 6 6 0 0 0-2.4 2 14.761 14.761 0 0 1-1.75 2c-.43.378-.94.655-1.49.81a4.48 4.48 0 0 1-1.59.09 3 3 0 0 1-2-1 4.09 4.09 0 0 1-.82-2.33v-.55h7.65v-.84a5.76 5.76 0 0 0-1.77-4.56 4.81 4.81 0 0 0-4.58-.66 4.7 4.7 0 0 0-2.77 3.59 9.899 9.899 0 0 0-.13 3.06 6.5 6.5 0 0 0 .73 2.48 4.4 4.4 0 0 0 3.58 2.16 5.921 5.921 0 0 0 3.06-.41 7.791 7.791 0 0 0 2.48-2.26c.06.819.44 1.581 1.06 2.12.57.36 1.225.567 1.9.6a6.913 6.913 0 0 0 2.39-.14 3.861 3.861 0 0 0 1.71-1.05v1.03h1.66v-6.3a10.87 10.87 0 0 0-.13-2.58v.03Zm-16.49.49a2.93 2.93 0 0 1 3.66-1.54 2.77 2.77 0 0 1 1.52 1.38 5 5 0 0 1 .42 2.05h-6a5.579 5.579 0 0 1 .4-1.89Zm15 4.36a3.53 3.53 0 0 1-.26 1.51 2 2 0 0 1-1 .92 3.842 3.842 0 0 1-1.56.27 5.792 5.792 0 0 1-1.5-.11 1.71 1.71 0 0 1-1.4-1.36 2 2 0 0 1 .62-2 3.19 3.19 0 0 1 2-.49h3.08c.022.42.016.841-.02 1.26h.04Z"/>
</svg>
