<svg xmlns="http://www.w3.org/2000/svg" width="60" height="60" fill="none" viewBox="0 0 60 60">
  <rect width="60" height="60" fill="#016FD0" rx="4"/>
  <path fill="#016FD0" d="M2 2h55.861v30.23l-2.765 4.332 2.765 3.854V58H2V29.502l1.728-1.992L2 25.604V2Z"/>
  <path fill="#fff" d="M12.844 41.022V32.23h9.286l.996 1.302 1.03-1.302H57.86v8.186s-.881.597-1.9.606H37.297l-1.124-1.386v1.386h-3.68v-2.365s-.503.33-1.59.33H29.65v2.035h-5.573l-.995-1.33-1.01 1.33h-9.228ZM2 25.604l2.094-4.895h3.621l1.189 2.742v-2.742h4.502l.707 1.982.686-1.982h20.208v.996s1.062-.995 2.808-.995l6.557.023 1.167 2.705v-2.729h3.768l1.037 1.555v-1.555h3.801v8.793h-3.801l-.994-1.56v1.56h-5.535l-.556-1.387H41.77l-.548 1.387h-3.754c-1.502 0-2.462-.976-2.462-.976v.976h-5.66l-1.123-1.387v1.387H7.18l-.556-1.387H5.139l-.552 1.387H2v-3.898Z"/>
  <path fill="#016FD0" d="m4.835 21.794-2.824 6.583H3.85l.521-1.318h3.03l.518 1.318H9.8l-2.822-6.583H4.835Zm1.045 1.532.924 2.303h-1.85l.926-2.303Zm4.112 5.05v-6.583l2.613.01 1.52 4.244 1.484-4.255H18.2v6.583h-1.642v-4.85l-1.74 4.85h-1.44l-1.745-4.85v4.85H9.992Zm9.332 0v-6.583h5.357v1.473h-3.698v1.126h3.612v1.386h-3.612v1.17h3.698v1.428h-5.357Zm6.308-6.582v6.582h1.642v-2.338h.69l1.97 2.338h2.006l-2.16-2.425a2.003 2.003 0 0 0 1.8-2.022c0-1.385-1.084-2.135-2.294-2.135h-3.654Zm1.641 1.472h1.877c.45 0 .778.353.778.693 0 .437-.425.693-.754.693h-1.9v-1.387.001Zm6.654 5.11H32.25v-6.583h1.676v6.583Zm3.975 0h-.362c-1.75 0-2.814-1.383-2.814-3.265 0-1.881 1.052-3.318 3.262-3.318h1.815v1.559h-1.881c-.898 0-1.532.702-1.532 1.776 0 1.275.725 1.81 1.77 1.81h.433l-.691 1.438Zm3.572-6.582-2.825 6.582h1.84l.52-1.318h3.03l.519 1.319h1.88l-2.823-6.583h-2.141Zm1.045 1.532.923 2.303h-1.85l.927-2.303Zm4.109 5.05v-6.583h2.087l2.665 4.136v-4.136h1.642v6.583h-2.02l-2.733-4.244v4.244h-1.642.001Zm-32.661 11.52v-6.583h5.357v1.473h-3.698v1.126h3.612v1.386h-3.612v1.17h3.698v1.429h-5.357Zm26.25 0v-6.583h5.357v1.473h-3.698v1.126h3.595v1.386h-3.595v1.17h3.698v1.429h-5.357Zm-20.685 0 2.608-3.25-2.67-3.333h2.068l1.59 2.06 1.596-2.06h1.988l-2.636 3.291 2.613 3.292h-2.068l-1.544-2.028-1.507 2.028h-2.04Zm7.353-6.581v6.582h1.685V37.82h1.728c1.462 0 2.57-.778 2.57-2.29 0-1.253-.869-2.215-2.357-2.215h-3.626Zm1.685 1.488h1.82c.472 0 .81.29.81.758 0 .44-.336.758-.815.758H28.57v-1.516Zm5.011-1.49v6.583h1.642v-2.339h.691l1.969 2.34h2.006l-2.16-2.426a2.003 2.003 0 0 0 1.801-2.022c0-1.386-1.085-2.136-2.295-2.136h-3.653Zm1.642 1.473h1.876c.45 0 .778.353.778.693 0 .437-.425.692-.753.692h-1.9v-1.386h-.001Zm11.112 5.11v-1.43h3.285c.486 0 .697-.262.697-.552 0-.289-.21-.556-.697-.556h-1.484c-1.291 0-2.01-.788-2.01-1.971 0-1.056.658-2.074 2.576-2.074H51.9l-.69 1.481h-2.765c-.529 0-.691.278-.691.544 0 .265.2.573.604.573h1.556c1.438 0 2.063.818 2.063 1.89 0 1.152-.696 2.095-2.142 2.095h-3.499Zm6.025 0v-1.43h3.285c.486 0 .697-.262.697-.552 0-.289-.21-.556-.697-.556h-1.484c-1.291 0-2.01-.788-2.01-1.971 0-1.056.658-2.074 2.576-2.074h3.197l-.69 1.481h-2.765c-.529 0-.691.278-.691.544 0 .265.2.573.604.573h1.556c1.438 0 2.063.818 2.063 1.89 0 1.152-.696 2.095-2.142 2.095H52.36Z"/>
</svg>
