<?xml version="1.0" encoding="UTF-8"?>
<!-- Glencore "G" lettermark. Not an official published logomark: this is the G glyph
     lifted verbatim from the official wordmark https://www.glencore.com/.resources/gc/webresources/img/Glencore_logo.svg
     and matches the G that Glencore itself ships as its site favicon. -->
<svg xmlns="http://www.w3.org/2000/svg" viewBox="0 0 32.14 30.87">
<path fill="#FFFFFF" d="M31.3092 18.6756L29.524 19.3241C28.7001 19.5835 28.2881 20.1023 28.2881 20.8804C28.2881 23.2149 28.4254 25.5493 28.7001 27.8838C25.1297 29.8291 21.0101 30.8667 16.6158 30.8667C13.4574 30.8667 10.711 30.3479 8.37657 29.1807C3.57034 26.8462 0.823925 22.8258 0.137321 17.249C0.137321 16.6006 0 15.9521 0 15.4333C0 10.8941 1.64785 7.26275 4.80623 4.66891C8.65121 1.42661 13.1828 0 18.401 0C21.4221 0 24.7178 0.518768 28.1508 1.42661L27.4642 8.55967C27.4642 8.94874 27.3268 9.20813 27.1895 9.07844C27.0522 9.07844 26.9149 8.81905 26.7776 8.42998L25.9536 4.92829C25.8163 4.40953 25.679 4.02045 25.5417 3.76107C25.4044 3.50168 24.8551 3.2423 24.3058 2.98291C22.6579 2.33445 20.7354 1.94538 18.5383 1.94538C14.968 1.94538 11.9469 2.72353 9.33782 4.27983C5.63015 6.4846 3.84498 10.2457 3.9823 15.4333C3.9823 17.7678 4.53159 19.8429 5.35551 21.6586C6.45408 23.993 7.96461 25.8087 10.0244 26.8462C12.3589 28.0135 14.6933 28.6619 17.0278 28.6619C19.0876 28.6619 21.1474 28.1432 23.2072 27.2353C24.4431 26.5868 25.1297 25.8087 25.1297 24.7712C25.267 22.4367 24.9924 20.8804 24.7178 19.9726C24.5804 19.7132 24.3058 19.4538 23.7565 19.3241L21.6967 18.6756C21.2847 18.5459 21.0101 18.4163 21.1474 18.2866C21.1474 18.1569 21.5594 18.0272 21.9713 18.0272H31.3092C31.8584 18.0272 32.1331 18.1569 32.1331 18.2866C31.8584 18.4163 31.7211 18.5459 31.3092 18.6756Z"/>
</svg>
