<svg xmlns="http://www.w3.org/2000/svg" width="60" height="60" fill="none" viewBox="0 0 60 60">
  <rect width="59" height="59" x=".5" y=".5" stroke="#E7E7E7" rx="3.5"/>
  <g clip-path="url(#a)">
    <path fill="#027E6F" d="M30.5 51A20.455 20.455 0 0 0 45 44.997 20.43 20.43 0 0 0 51 30.5c0-5.665-2.296-10.783-6-14.497A20.455 20.455 0 0 0 30.5 10 20.455 20.455 0 0 0 16 16.003 20.445 20.445 0 0 0 10 30.5V51h20.5Z"/>
    <path fill="#fff" d="M44.634 28.555h-9.19l-2.176 3.77h7.567c-.868 4.925-5.17 8.676-10.341 8.676-5.787 0-10.505-4.711-10.505-10.501 0-5.79 4.711-10.5 10.505-10.5 3.12 0 5.925 1.367 7.85 3.53l1.956-3.393a14.22 14.22 0 0 0-9.806-3.908c-7.882 0-14.273 6.386-14.273 14.271 0 7.885 6.385 14.271 14.273 14.271S44.766 38.385 44.766 30.5c0-.659-.05-1.305-.132-1.945Z"/>
  </g>
  <defs>
    <clipPath id="a">
      <path fill="#fff" d="M10 10h41v41H10z"/>
    </clipPath>
  </defs>
</svg>
