<?xml version="1.0" encoding="UTF-8"?>
<svg viewBox="0 0 84 46" version="1.1" xmlns="http://www.w3.org/2000/svg" xmlns:xlink="http://www.w3.org/1999/xlink" xmlns:sketch="http://www.bohemiancoding.com/sketch/ns">
    <!-- Generator: Sketch 3.4.2 (15855) - http://www.bohemiancoding.com/sketch -->
    <title>Artboard 1</title>
    <desc>Created with Sketch.</desc>
    <defs>
        <linearGradient x1="50%" y1="0%" x2="50%" y2="100%" id="linearGradient-1">
            <stop stop-color="#EE007F" offset="0%"></stop>
            <stop stop-color="#000000" offset="100%"></stop>
        </linearGradient>
        <path d="M3.15917969,9.140625 L3.15917969,17.2148438 L0.328125,17.2148438 L0.328125,0.380859375 L3.15917969,0.380859375 L3.15917969,8.04882812 L11.6142578,8.04882812 L11.6142578,0.380859375 L14.4453125,0.380859375 L14.4453125,17.2148438 L11.6142578,17.2148438 L11.6142578,9.140625 L3.15917969,9.140625 Z M27.5595703,17.6083984 C26.2561784,17.6083984 25.0395564,17.3756534 23.909668,16.9101562 C22.7797795,16.4446591 21.7980185,15.807784 20.9643555,14.9995117 C20.1306924,14.1912394 19.4747745,13.247564 18.996582,12.168457 C18.5183895,11.0893501 18.2792969,9.93620405 18.2792969,8.70898438 C18.2792969,7.9049439 18.387206,7.13053758 18.6030273,6.38574219 C18.8188487,5.6409468 19.1256491,4.94694332 19.5234375,4.30371094 C19.9212259,3.66047855 20.4015271,3.07438416 20.9643555,2.54541016 C21.5271838,2.01643616 22.1513638,1.56364121 22.8369141,1.18701172 C23.5224644,0.810382231 24.2630169,0.518392964 25.0585938,0.311035156 C25.8541706,0.103677349 26.6878212,0 27.5595703,0 C28.4313195,0 29.26497,0.103677349 30.0605469,0.311035156 C30.8561238,0.518392964 31.5987921,0.810382231 32.2885742,1.18701172 C32.9783563,1.56364121 33.6025363,2.01643616 34.1611328,2.54541016 C34.7197294,3.07438416 35.2000305,3.66047855 35.6020508,4.30371094 C36.004071,4.94694332 36.3129872,5.6409468 36.5288086,6.38574219 C36.74463,7.13053758 36.8525391,7.9049439 36.8525391,8.70898438 C36.8525391,9.52148844 36.74463,10.3064741 36.5288086,11.0639648 C36.3129872,11.8214556 36.004071,12.5302701 35.6020508,13.1904297 C35.2000305,13.8505892 34.7197294,14.4514947 34.1611328,14.9931641 C33.6025363,15.5348334 32.9783563,16.0003236 32.2885742,16.3896484 C31.5987921,16.7789733 30.8561238,17.079426 30.0605469,17.2910156 C29.26497,17.5026052 28.4313195,17.6083984 27.5595703,17.6083984 L27.5595703,17.6083984 Z M27.5595703,16.7705078 C28.5244189,16.7705078 29.3771122,16.5695007 30.1176758,16.1674805 C30.8582394,15.7654602 31.4824193,15.2047562 31.9902344,14.4853516 C32.4980494,13.7659469 32.8810208,12.9153695 33.1391602,11.9335938 C33.3972995,10.951818 33.5263672,9.87695896 33.5263672,8.70898438 C33.5263672,7.54947337 33.3972995,6.48730951 33.1391602,5.52246094 C32.8810208,4.55761236 32.4980494,3.72607771 31.9902344,3.02783203 C31.4824193,2.32958635 30.8582394,1.7879251 30.1176758,1.40283203 C29.3771122,1.01773896 28.5244189,0.825195312 27.5595703,0.825195312 C26.5777946,0.825195312 25.7166378,1.01773896 24.9760742,1.40283203 C24.2355106,1.7879251 23.6134465,2.32958635 23.1098633,3.02783203 C22.60628,3.72607771 22.2275403,4.55761236 21.9736328,5.52246094 C21.7197253,6.48730951 21.5927734,7.54947337 21.5927734,8.70898438 C21.5927734,9.87695896 21.7197253,10.951818 21.9736328,11.9335938 C22.2275403,12.9153695 22.60628,13.7659469 23.1098633,14.4853516 C23.6134465,15.2047562 24.2355106,15.7654602 24.9760742,16.1674805 C25.7166378,16.5695007 26.5777946,16.7705078 27.5595703,16.7705078 L27.5595703,16.7705078 Z M46.1708984,16.5419922 C46.5856141,16.5419922 46.9960917,16.4848639 47.4023438,16.3706055 C47.8085958,16.2563471 48.1725244,16.0870779 48.4941406,15.862793 C48.8157568,15.638508 49.0738923,15.3634456 49.2685547,15.0375977 C49.4632171,14.7117497 49.5605469,14.33301 49.5605469,13.9013672 C49.5605469,13.3850886 49.4272474,12.925946 49.1606445,12.5239258 C48.8940416,12.1219055 48.544924,11.7537452 48.1132812,11.4194336 C47.6816385,11.085122 47.1886421,10.7698583 46.6342773,10.4736328 C46.0799126,10.1774074 45.5149768,9.88118638 44.9394531,9.58496094 C44.3639294,9.2887355 43.7989937,8.97770345 43.2446289,8.65185547 C42.6902642,8.32600749 42.1972678,7.96207883 41.765625,7.56005859 C41.3339822,7.15803835 40.9848646,6.70947513 40.7182617,6.21435547 C40.4516588,5.71923581 40.3183594,5.15006832 40.3183594,4.50683594 C40.3183594,3.86360355 40.4389636,3.26692983 40.6801758,2.71679688 C40.9213879,2.16666392 41.2747373,1.69059446 41.7402344,1.28857422 C42.2057315,0.886553979 42.7791307,0.571290205 43.4604492,0.342773438 C44.1417677,0.11425667 44.9225216,0 45.8027344,0 C46.5983113,0 47.3092417,0.0846345703 47.9355469,0.25390625 C48.5618521,0.42317793 49.1119768,0.672849912 49.5859375,1.00292969 C50.0598982,1.33300946 50.4619124,1.7392554 50.7919922,2.22167969 C51.122072,2.70410397 51.3886709,3.26269214 51.5917969,3.89746094 L50.1445312,4.55761719 C49.9752596,4.04133856 49.7594414,3.56950083 49.4970703,3.14208984 C49.2346992,2.71467885 48.9215513,2.34863434 48.5576172,2.04394531 C48.1936831,1.73925629 47.7726261,1.50439536 47.2944336,1.33935547 C46.8162411,1.17431558 46.2766957,1.09179688 45.6757812,1.09179688 C45.1425755,1.09179688 44.6770853,1.16585212 44.2792969,1.31396484 C43.8815084,1.46207756 43.5493177,1.65673708 43.2827148,1.89794922 C43.0161119,2.13916136 42.8172207,2.40999199 42.6860352,2.71044922 C42.5548496,3.01090645 42.4892578,3.31770677 42.4892578,3.63085938 C42.4892578,4.07096574 42.6246731,4.47509582 42.8955078,4.84326172 C43.1663425,5.21142762 43.5260394,5.55842936 43.9746094,5.88427734 C44.4231793,6.21012533 44.9331026,6.5253891 45.5043945,6.83007812 C46.0756865,7.13476715 46.6575491,7.44368333 47.25,7.75683594 C47.8424509,8.06998854 48.4243135,8.39583164 48.9956055,8.734375 C49.5668974,9.07291836 50.0768207,9.4431946 50.5253906,9.84521484 C50.9739606,10.2472351 51.3336575,10.6873348 51.6044922,11.1655273 C51.8753269,11.6437198 52.0107422,12.1790335 52.0107422,12.7714844 C52.0107422,13.4401075 51.8837903,14.0685192 51.6298828,14.6567383 C51.3759753,15.2449574 50.9951197,15.7569965 50.4873047,16.1928711 C49.9794896,16.6287457 49.3489621,16.9736315 48.5957031,17.2275391 C47.8424442,17.4814466 46.9664763,17.6083984 45.9677734,17.6083984 C45.1552694,17.6083984 44.4316438,17.5195321 43.796875,17.3417969 C43.1621062,17.1640616 42.6014022,16.9059262 42.1147461,16.5673828 C41.62809,16.2288395 41.2112648,15.8162459 40.8642578,15.3295898 C40.5172509,14.8429338 40.2337251,14.2864615 40.0136719,13.6601562 L41.5244141,13.0380859 C41.7021493,13.5882189 41.941242,14.0790994 42.2416992,14.5107422 C42.5421565,14.942385 42.8912741,15.3084295 43.2890625,15.6088867 C43.6868509,15.909344 44.1290666,16.1399732 44.6157227,16.3007812 C45.1023787,16.4615893 45.6207655,16.5419922 46.1708984,16.5419922 L46.1708984,16.5419922 Z M69.1748047,0.380859375 L69.1748047,1.47265625 L63.0810547,1.47265625 L63.0810547,17.2148438 L60.25,17.2148438 L60.25,1.47265625 L54.15625,1.47265625 L54.15625,0.380859375 L69.1748047,0.380859375 Z" id="path-2"></path>
    </defs>
    <g id="Page-1" stroke="none" stroke-width="1" fill="none" fill-rule="evenodd" sketch:type="MSPage">
        <g id="Artboard-1" sketch:type="MSArtboardGroup">
            <path d="M21.6825385,43.6666648 L20.7619038,43.6666648 L20.7619038,42.8888874 L20.7619038,42.1111099 L20.7619038,41.3333324 L20.7619038,40.5555549 L20.7619038,39.7777775 L20.7619038,39 L19.8412692,39 L19.8412692,39.7777775 L18.9206346,39.7777775 L18.9206346,40.5555549 L19.8412692,40.5555549 L19.8412692,41.3333324 L19.8412692,42.1111099 L19.8412692,42.8888874 L19.8412692,43.6666648 L18.9206346,43.6666648 L18,43.6666648 L18,44.4444423 L18.9206346,44.4444423 L19.8412692,44.4444423 L20.7619038,44.4444423 L21.6825385,44.4444423 L22.6031731,44.4444423 L22.6031731,43.6666648 L21.6825385,43.6666648 Z M23.5238099,40.5555549 L24.4444445,40.5555549 L24.4444445,39.7777775 L23.5238099,39.7777775 L23.5238099,40.5555549 Z M27.2063483,44.4444423 L28.1269829,44.4444423 L28.1269829,43.6666648 L28.1269829,42.8888874 L27.2063483,42.8888874 L27.2063483,43.6666648 L26.2857137,43.6666648 L25.3650791,43.6666648 L24.4444445,43.6666648 L24.4444445,42.8888874 L23.5238099,42.8888874 L23.5238099,43.6666648 L23.5238099,44.4444423 L24.4444445,44.4444423 L25.3650791,44.4444423 L26.2857137,44.4444423 L27.2063483,44.4444423 Z M24.4444445,42.8888874 L25.3650791,42.8888874 L25.3650791,42.1111099 L24.4444445,42.1111099 L24.4444445,42.8888874 Z M26.2857137,41.3333324 L25.3650791,41.3333324 L25.3650791,42.1111099 L26.2857137,42.1111099 L27.2063483,42.1111099 L27.2063483,41.3333324 L26.2857137,41.3333324 Z M27.2063483,41.3333324 L28.1269829,41.3333324 L28.1269829,40.5555549 L28.1269829,39.7777775 L27.2063483,39.7777775 L27.2063483,40.5555549 L27.2063483,41.3333324 Z M27.2063483,39.7777775 L27.2063483,39 L26.2857137,39 L25.3650791,39 L24.4444445,39 L24.4444445,39.7777775 L25.3650791,39.7777775 L26.2857137,39.7777775 L27.2063483,39.7777775 Z M30.888889,44.4444423 L31.8095236,44.4444423 L31.8095236,43.6666648 L31.8095236,42.8888874 L31.8095236,42.1111099 L30.888889,42.1111099 L30.888889,42.8888874 L30.888889,43.6666648 L30.888889,44.4444423 Z M29.0476197,40.5555549 L29.9682543,40.5555549 L29.9682543,39.7777775 L30.888889,39.7777775 L31.8095236,39.7777775 L32.7301582,39.7777775 L32.7301582,40.5555549 L32.7301582,41.3333324 L31.8095236,41.3333324 L31.8095236,42.1111099 L32.7301582,42.1111099 L32.7301582,41.3333324 L33.6507928,41.3333324 L33.6507928,40.5555549 L33.6507928,39.7777775 L33.6507928,39 L32.7301582,39 L31.8095236,39 L30.888889,39 L29.9682543,39 L29.0476197,39 L29.0476197,39.7777775 L29.0476197,40.5555549 Z M36.4126988,44.4444423 L37.3333334,44.4444423 L37.3333334,43.6666648 L36.4126988,43.6666648 L36.4126988,44.4444423 Z M42.8571433,43.6666648 L41.9365087,43.6666648 L41.0158741,43.6666648 L41.0158741,44.4444423 L41.9365087,44.4444423 L42.8571433,44.4444423 L43.7777779,44.4444423 L43.7777779,43.6666648 L42.8571433,43.6666648 Z M43.7777779,43.6666648 L44.6984125,43.6666648 L44.6984125,42.8888874 L44.6984125,42.1111099 L44.6984125,41.3333324 L44.6984125,40.5555549 L44.6984125,39.7777775 L43.7777779,39.7777775 L43.7777779,40.5555549 L42.8571433,40.5555549 L42.8571433,41.3333324 L41.9365087,41.3333324 L41.9365087,42.1111099 L41.0158741,42.1111099 L41.0158741,41.3333324 L41.0158741,40.5555549 L41.0158741,39.7777775 L40.0952394,39.7777775 L40.0952394,40.5555549 L40.0952394,41.3333324 L40.0952394,42.1111099 L40.0952394,42.8888874 L40.0952394,43.6666648 L41.0158741,43.6666648 L41.0158741,42.8888874 L41.9365087,42.8888874 L41.9365087,42.1111099 L42.8571433,42.1111099 L42.8571433,41.3333324 L43.7777779,41.3333324 L43.7777779,42.1111099 L43.7777779,42.8888874 L43.7777779,43.6666648 Z M43.7777779,39.7777775 L43.7777779,39 L42.8571433,39 L41.9365087,39 L41.0158741,39 L41.0158741,39.7777775 L41.9365087,39.7777775 L42.8571433,39.7777775 L43.7777779,39.7777775 Z M47.4603185,44.4444423 L48.3809532,44.4444423 L48.3809532,43.6666648 L47.4603185,43.6666648 L47.4603185,44.4444423 Z M53.904763,43.6666648 L52.9841284,43.6666648 L52.0634938,43.6666648 L52.0634938,44.4444423 L52.9841284,44.4444423 L53.904763,44.4444423 L54.8253976,44.4444423 L54.8253976,43.6666648 L53.904763,43.6666648 Z M54.8253976,43.6666648 L55.7460322,43.6666648 L55.7460322,42.8888874 L55.7460322,42.1111099 L55.7460322,41.3333324 L55.7460322,40.5555549 L55.7460322,39.7777775 L54.8253976,39.7777775 L54.8253976,40.5555549 L53.904763,40.5555549 L53.904763,41.3333324 L52.9841284,41.3333324 L52.9841284,42.1111099 L52.0634938,42.1111099 L52.0634938,41.3333324 L52.0634938,40.5555549 L52.0634938,39.7777775 L51.1428592,39.7777775 L51.1428592,40.5555549 L51.1428592,41.3333324 L51.1428592,42.1111099 L51.1428592,42.8888874 L51.1428592,43.6666648 L52.0634938,43.6666648 L52.0634938,42.8888874 L52.9841284,42.8888874 L52.9841284,42.1111099 L53.904763,42.1111099 L53.904763,41.3333324 L54.8253976,41.3333324 L54.8253976,42.1111099 L54.8253976,42.8888874 L54.8253976,43.6666648 Z M54.8253976,39.7777775 L54.8253976,39 L53.904763,39 L52.9841284,39 L52.0634938,39 L52.0634938,39.7777775 L52.9841284,39.7777775 L53.904763,39.7777775 L54.8253976,39.7777775 Z M58.5079383,44.4444423 L59.4285729,44.4444423 L59.4285729,43.6666648 L58.5079383,43.6666648 L58.5079383,44.4444423 Z M65.8730174,43.6666648 L64.9523827,43.6666648 L64.9523827,42.8888874 L64.9523827,42.1111099 L64.9523827,41.3333324 L64.9523827,40.5555549 L64.9523827,39.7777775 L64.9523827,39 L64.0317481,39 L64.0317481,39.7777775 L63.1111135,39.7777775 L63.1111135,40.5555549 L64.0317481,40.5555549 L64.0317481,41.3333324 L64.0317481,42.1111099 L64.0317481,42.8888874 L64.0317481,43.6666648 L63.1111135,43.6666648 L62.1904789,43.6666648 L62.1904789,44.4444423 L63.1111135,44.4444423 L64.0317481,44.4444423 L64.9523827,44.4444423 L65.8730174,44.4444423 L66.793652,44.4444423 L66.793652,43.6666648 L65.8730174,43.6666648 Z" id="127.0.0.1" fill="#000000" sketch:type="MSShapeGroup"></path>
            <g id="Rectangle-1" sketch:type="MSLayerGroup" fill="url(#linearGradient-1)">
                <path d="M0,0.380859375 L2.83105469,0.380859375 L2.83105469,16.1230469 L11.3115234,16.1230469 L11.3115234,17.2148438 L0,17.2148438 L0,0.380859375 L0,0.380859375 Z M22.3691406,17.6083984 C21.0657487,17.6083984 19.8491267,17.3756534 18.7192383,16.9101562 C17.5893498,16.4446591 16.6075888,15.807784 15.7739258,14.9995117 C14.9402628,14.1912394 14.2843448,13.247564 13.8061523,12.168457 C13.3279598,11.0893501 13.0888672,9.93620405 13.0888672,8.70898438 C13.0888672,7.9049439 13.1967763,7.13053758 13.4125977,6.38574219 C13.628419,5.6409468 13.9352194,4.94694332 14.3330078,4.30371094 C14.7307963,3.66047855 15.2110974,3.07438416 15.7739258,2.54541016 C16.3367541,2.01643616 16.9609341,1.56364121 17.6464844,1.18701172 C18.3320347,0.810382231 19.0725872,0.518392964 19.8681641,0.311035156 C20.663741,0.103677349 21.4973915,0 22.3691406,0 C23.2408898,0 24.0745403,0.103677349 24.8701172,0.311035156 C25.6656941,0.518392964 26.4083624,0.810382231 27.0981445,1.18701172 C27.7879266,1.56364121 28.4121066,2.01643616 28.9707031,2.54541016 C29.5292997,3.07438416 30.0096009,3.66047855 30.4116211,4.30371094 C30.8136413,4.94694332 31.1225575,5.6409468 31.3383789,6.38574219 C31.5542003,7.13053758 31.6621094,7.9049439 31.6621094,8.70898438 C31.6621094,9.52148844 31.5542003,10.3064741 31.3383789,11.0639648 C31.1225575,11.8214556 30.8136413,12.5302701 30.4116211,13.1904297 C30.0096009,13.8505892 29.5292997,14.4514947 28.9707031,14.9931641 C28.4121066,15.5348334 27.7879266,16.0003236 27.0981445,16.3896484 C26.4083624,16.7789733 25.6656941,17.079426 24.8701172,17.2910156 C24.0745403,17.5026052 23.2408898,17.6083984 22.3691406,17.6083984 L22.3691406,17.6083984 L22.3691406,17.6083984 Z M22.3691406,16.7705078 C23.3339892,16.7705078 24.1866825,16.5695007 24.9272461,16.1674805 C25.6678097,15.7654602 26.2919896,15.2047562 26.7998047,14.4853516 C27.3076197,13.7659469 27.6905912,12.9153695 27.9487305,11.9335938 C28.2068698,10.951818 28.3359375,9.87695896 28.3359375,8.70898438 C28.3359375,7.54947337 28.2068698,6.48730951 27.9487305,5.52246094 C27.6905912,4.55761236 27.3076197,3.72607771 26.7998047,3.02783203 C26.2919896,2.32958635 25.6678097,1.7879251 24.9272461,1.40283203 C24.1866825,1.01773896 23.3339892,0.825195312 22.3691406,0.825195312 C21.3873649,0.825195312 20.5262081,1.01773896 19.7856445,1.40283203 C19.0450809,1.7879251 18.4230168,2.32958635 17.9194336,3.02783203 C17.4158503,3.72607771 17.0371106,4.55761236 16.7832031,5.52246094 C16.5292956,6.48730951 16.4023438,7.54947337 16.4023438,8.70898438 C16.4023438,9.87695896 16.5292956,10.951818 16.7832031,11.9335938 C17.0371106,12.9153695 17.4158503,13.7659469 17.9194336,14.4853516 C18.4230168,15.2047562 19.0450809,15.7654602 19.7856445,16.1674805 C20.5262081,16.5695007 21.3873649,16.7705078 22.3691406,16.7705078 L22.3691406,16.7705078 L22.3691406,16.7705078 Z M38.1367188,8.86132812 C38.1367188,10.0377663 38.3144513,11.0935826 38.6699219,12.0288086 C39.0253924,12.9640346 39.514157,13.7553679 40.1362305,14.402832 C40.7583039,15.0502962 41.4925088,15.5454084 42.3388672,15.8881836 C43.1852256,16.2309587 44.1035107,16.4023438 45.09375,16.4023438 C45.6862009,16.4023438 46.2574842,16.2880871 46.8076172,16.0595703 C47.3577501,15.8310535 47.8676734,15.5327167 48.3374023,15.1645508 C48.8071313,14.7963849 49.2281882,14.3816755 49.6005859,13.9204102 C49.9729836,13.4591448 50.2776681,12.9915388 50.5146484,12.5175781 L51.7080078,13.2792969 C51.3610009,13.846357 50.9505232,14.3901341 50.4765625,14.9106445 C50.0026018,15.4311549 49.454593,15.8924134 48.8325195,16.2944336 C48.2104461,16.6964538 47.5079792,17.0159493 46.7250977,17.2529297 C45.9422161,17.48991 45.0683642,17.6083984 44.1035156,17.6083984 C42.7070243,17.6083984 41.4396216,17.3756534 40.3012695,16.9101562 C39.1629175,16.4446591 38.1875041,15.8141316 37.375,15.0185547 C36.5624959,14.2229778 35.9340843,13.2941134 35.4897461,12.2319336 C35.0454079,11.1697538 34.8232422,10.0462299 34.8232422,8.86132812 C34.8232422,8.07421481 34.9248037,7.30615609 35.1279297,6.55712891 C35.3310557,5.80810172 35.6251608,5.10563479 36.0102539,4.44970703 C36.395347,3.79377927 36.8650688,3.19287382 37.4194336,2.64697266 C37.9737983,2.10107149 38.6000942,1.63134962 39.2983398,1.23779297 C39.9965855,0.844236313 40.7604125,0.53955186 41.5898438,0.323730469 C42.419275,0.107909077 43.3037062,0 44.2431641,0 C45.140304,0 45.9676069,0.120604263 46.7250977,0.361816406 C47.4825884,0.60302855 48.1723602,0.922524053 48.7944336,1.3203125 C49.416507,1.71810095 49.9708635,2.17724349 50.4575195,2.69775391 C50.9441756,3.21826432 51.3610009,3.76204144 51.7080078,4.32910156 L50.4765625,5.14160156 C49.774085,3.77896454 48.9869835,2.78239248 48.1152344,2.15185547 C47.2434852,1.52131846 46.2405656,1.20605469 45.1064453,1.20605469 C44.1331332,1.20605469 43.2233115,1.38378729 42.3769531,1.73925781 C41.5305947,2.09472834 40.7921581,2.60253576 40.1616211,3.26269531 C39.5310841,3.92285486 39.0359719,4.72476742 38.6762695,5.66845703 C38.3165672,6.61214665 38.1367188,7.67642637 38.1367188,8.86132812 L38.1367188,8.86132812 L38.1367188,8.86132812 Z M62.2324219,0 L70.1542969,17.2148438 L67.2724609,17.2148438 L64.7080078,11.6035156 L57.484375,11.6035156 L54.8310547,17.2148438 L53.4091797,17.2148438 L61.5214844,0 L62.2324219,0 L62.2324219,0 Z M57.9794922,10.5117188 L64.1875,10.5117188 L61.1279297,3.84667969 L57.9794922,10.5117188 L57.9794922,10.5117188 Z M72.4902344,0.380859375 L75.3212891,0.380859375 L75.3212891,16.1230469 L83.8017578,16.1230469 L83.8017578,17.2148438 L72.4902344,17.2148438 L72.4902344,0.380859375 L72.4902344,0.380859375 Z" id="Mask" sketch:type="MSShapeGroup"></path>
            </g>
            <g id="Rectangle-1" sketch:type="MSLayerGroup" transform="translate(7.000000, 19.000000)">
                <mask id="mask-3" sketch:name="Mask" fill="white">
                    <use xlink:href="#path-2"></use>
                </mask>
                <use id="Mask" fill="url(#linearGradient-1)" sketch:type="MSShapeGroup" xlink:href="#path-2"></use>
            </g>
        </g>
    </g>
</svg>