<svg xmlns="http://www.w3.org/2000/svg" width="64" height="60" fill="none" viewBox="0 0 64 60">
  <rect width="64" height="60" fill="#002C51" rx="4"/>
  <path fill="#002C51" d="M3 1h58v58H3V1Zm10.06 17.995c.005 2.964-.007 5.929.006 8.89.386 0 .773-.002 1.159-.006.015-2.619-.04-5.238.013-7.857.727 2.632 1.52 5.246 2.3 7.864.3-.003.6-.003.901.001.765-2.609 1.556-5.21 2.298-7.823.042 2.606.005 5.212.017 7.818h1.248c.005-2.96.001-5.92.003-8.88a47.98 47.98 0 0 0-2.068 0c-.615 2.213-1.302 4.406-1.9 6.623-.666-2.203-1.289-4.42-1.926-6.632-.684-.001-1.367-.006-2.052.003m17.464 3.26c.006-.341.002-.681-.002-1.025-.4.002-.802 0-1.205 0 .004 2.218-.004 4.434.003 6.654l1.205-.003c.02-1.472-.034-2.948.025-4.419.343-.815 1.218-1.448 2.135-1.265 0-.383.002-.765-.003-1.148-.92-.173-1.69.487-2.158 1.207Zm3.142-.29c-.825 1.03-.857 2.463-.664 3.711.17 1.055.911 2.092 2.022 2.263.813.22 1.627-.119 2.276-.593-.014.679.025 1.538-.597 1.979-.946.544-2.097.174-2.966-.345-.162.317-.327.633-.496.95 1.182.675 2.698.934 3.967.352.877-.406 1.346-1.376 1.328-2.313.017-2.244-.002-4.487.01-6.732a76.267 76.267 0 0 0-1.219-.001c-.001.132-.006.394-.008.524-1.017-.915-2.769-.87-3.654.206m6.018.497c.223.246.487.452.738.67.611-.669 1.522-1.294 2.465-.957.601.16.646.873.667 1.386-1.144.34-2.453.427-3.362 1.286-.873.835-.637 2.54.53 2.98.98.44 2.064.035 2.873-.567.338.654 1.107.725 1.757.616l.012-.866c-.212-.05-.423-.101-.634-.154-.024-1.229.006-2.455-.013-3.682.004-.59-.21-1.21-.677-1.59-1.357-.992-3.388-.396-4.356.875m7.97-.589c-.009-.215-.015-.43-.023-.643-.403.004-.807.006-1.21.004a2834.18 2834.18 0 0 0 0 6.649c.407-.001.814-.001 1.222.003.014-1.63-.025-3.26.018-4.889.3-.615 1.073-.955 1.742-.928.505.009.905.462.896.958.03 1.618 0 3.238.013 4.856.403-.003.81-.001 1.213.001.025-1.566.012-3.133.01-4.7.007-.566-.135-1.168-.542-1.583-.951-.873-2.45-.516-3.339.27m-23.426-.62c-.957.264-1.606 1.145-1.811 2.084-.253 1.163-.206 2.466.432 3.503.879 1.423 3.102 1.572 4.284.457.694-.691.935-1.711.932-2.662.017-.932-.181-1.92-.799-2.646-.739-.835-1.999-1.064-3.037-.735M13.67 32.389c-1.017.787-1.16 2.51-.191 3.392 1.025.928 2.509.959 3.648 1.676.626.378.748 1.313.264 1.85-.565.59-1.486.598-2.228.418-.715-.163-1.258-.71-1.618-1.324-.334.181-.662.373-.988.566.94 1.92 3.664 2.475 5.403 1.343 1.187-.765 1.359-2.713.264-3.628-1.05-.846-2.47-.948-3.61-1.626-.75-.431-.686-1.67.09-2.038 1.13-.583 2.573.04 3.067 1.18.343-.161.678-.34 1.01-.529-.43-.856-1.176-1.574-2.125-1.803-1.003-.227-2.154-.138-2.986.523Zm23.364-.536c.002 2.476-.002 4.953.002 7.43-.01.479.128 1.026.571 1.283.498.334 1.125.222 1.688.192.004-.317.005-.634.01-.952-.32-.04-.753.108-.961-.207-.086-.19-.083-.4-.087-.599.004-2.383.004-4.765.001-7.149-.409.002-.817.002-1.224.002Zm-16.598.432c-.004.612.004 1.224-.023 1.836l-1.079.005c.002.308 0 .616-.002.926.366.005.733.02 1.1.041a900.1 900.1 0 0 1 0 4.19c-.014.446.08.965.48 1.23.586.378 1.317.299 1.975.233-.003-.303-.004-.606-.005-.91a4.681 4.681 0 0 1-1.084-.07c-.081-.252-.17-.505-.158-.773.004-1.31 0-2.62.004-3.93.414-.002.831-.004 1.247-.013-.004-.308-.008-.615-.01-.92-.413-.005-.828-.005-1.242-.01.003-.611.003-1.221-.001-1.834l-1.203-.001m3.168 3.077c.265.218.53.437.806.644.594-.7 1.548-1.29 2.482-.925.557.22.59.872.597 1.38-1.124.327-2.398.412-3.302 1.236-.892.809-.718 2.535.448 3 .968.461 2.079.084 2.88-.537.387.602 1.119.728 1.78.615.005-.29.01-.58.018-.868l-.593-.134c-.103-1.326.022-2.656-.068-3.98-.046-.656-.444-1.276-1.04-1.562-1.392-.615-3.089-.03-4.01 1.133m8.005-.582v-.655c-.411-.001-.823 0-1.233.002.03 2.216-.069 4.438.05 6.65l1.18-.009c.011-1.607-.01-3.213.009-4.819-.033-.227.173-.357.32-.485.476-.395 1.139-.649 1.75-.439.413.168.6.643.575 1.066.006 1.56-.01 3.12.006 4.68.4-.003.801 0 1.202.001.073-1.27.015-2.541.036-3.811-.01-.728.064-1.515-.32-2.168-.348-.586-1.058-.86-1.718-.811-.702-.002-1.332.357-1.853.798m9.191-.067c-.672.653-.928 1.62-.945 2.531-.035.948.111 1.97.733 2.724 1.228 1.464 3.99 1.21 4.764-.602a41.631 41.631 0 0 1-.884-.486c-.279.41-.601.84-1.087 1.01-.587.176-1.307.094-1.736-.383-.438-.468-.524-1.135-.602-1.744 1.467-.002 2.935-.001 4.402-.001.047-1.165-.13-2.518-1.126-3.273-1.026-.758-2.59-.643-3.519.221m5.002-.589c.777 2.199 1.632 4.372 2.374 6.579-.182.54-.35 1.125-.725 1.567-.35.367-.87.135-1.289.05l-.314.938c.691.246 1.508.351 2.177-.015.637-.438.891-1.208 1.141-1.903.843-2.407 1.717-4.802 2.548-7.216h-1.199c-.573 1.646-1.089 3.31-1.71 4.94-.598-1.636-1.152-3.289-1.718-4.936-.43-.004-.857-.004-1.286-.002"/>
  <path fill="#002C51" d="M24.676 22.123c.584-.177 1.31-.033 1.67.495.552.786.553 1.803.457 2.72-.096.548-.286 1.14-.756 1.48-.62.432-1.58.33-2.04-.29-.53-.7-.545-1.64-.492-2.478.057-.764.374-1.652 1.16-1.928m9.741.832c.221-.529.765-.923 1.351-.886.587-.033 1.077.327 1.522.662.012 1.23 0 2.458 0 3.686-.536.434-1.225.79-1.936.606-.696-.18-1.047-.906-1.16-1.558-.134-.834-.12-1.726.224-2.51m6.894 2.29c.655-.445 1.47-.533 2.217-.736-.002.644.002 1.288-.004 1.93-.575.42-1.296.867-2.033.609-.768-.23-.801-1.39-.18-1.803Zm.304 10.174c.535-.646 1.678-.65 2.19.025.322.404.397.93.484 1.424-1.076.005-2.15.008-3.225 0 .1-.506.2-1.048.551-1.449Zm-16.382 2.743c.648-.472 1.477-.57 2.237-.757-.026.642.066 1.305-.047 1.934-.536.486-1.317.819-2.037.578-.706-.276-.74-1.336-.154-1.755"/>
  <path fill="#FDFEFD" d="M13.06 18.995c.685-.009 1.368-.003 2.053-.002.638 2.213 1.26 4.428 1.927 6.632.597-2.219 1.285-4.41 1.9-6.623a47.985 47.985 0 0 1 2.067 0c-.001 2.96.003 5.92-.002 8.88h-1.248c-.012-2.606.024-5.212-.017-7.818-.742 2.613-1.533 5.216-2.298 7.823-.3-.004-.601-.004-.901-.001-.782-2.618-1.573-5.232-2.302-7.864-.053 2.62.002 5.24-.013 7.857-.386.003-.773.004-1.159.005-.013-2.962-.001-5.925-.005-8.89m17.461 3.263c.468-.719 1.236-1.38 2.158-1.207.005.383.004.765.003 1.148-.917-.183-1.79.45-2.135 1.265-.059 1.471-.004 2.947-.025 4.419l-1.205.002c-.008-2.218.001-4.435-.003-6.654.402.001.803.003 1.206.001.003.342.006.683 0 1.026Zm3.142-.292c.884-1.075 2.636-1.12 3.655-.205l.007-.525c.407-.002.814-.002 1.22.002-.013 2.245.008 4.49-.01 6.732.02.938-.452 1.908-1.329 2.314-1.268.582-2.784.323-3.966-.352.168-.316.334-.631.495-.95.87.52 2.02.89 2.966.346.623-.44.583-1.299.597-1.978-.65.473-1.463.813-2.276.593-1.11-.171-1.851-1.208-2.022-2.264-.193-1.248-.16-2.68.664-3.711m.75.988c-.343.783-.359 1.675-.224 2.509.112.652.463 1.378 1.16 1.558.71.184 1.4-.172 1.937-.606 0-1.228.011-2.457-.002-3.685-.444-.336-.934-.696-1.52-.663-.586-.037-1.13.358-1.353.886m5.268-.49c.968-1.271 2.999-1.867 4.356-.875.467.379.68 1 .677 1.59.018 1.227-.01 2.453.013 3.681.21.052.422.105.633.155l-.012.866c-.651.108-1.419.037-1.757-.617-.809.602-1.892 1.008-2.873.567-1.167-.438-1.403-2.143-.53-2.979.908-.858 2.219-.946 3.362-1.285-.02-.512-.068-1.225-.667-1.387-.944-.336-1.854.29-2.465.958-.251-.218-.515-.424-.738-.672m1.63 2.777c-.621.414-.588 1.574.18 1.804.737.256 1.46-.19 2.033-.609.006-.642.002-1.285.004-1.93-.749.203-1.562.291-2.217.736Zm6.341-3.371c.89-.786 2.389-1.144 3.34-.27.406.415.547 1.017.54 1.584.003 1.567.016 3.133-.009 4.7a96.21 96.21 0 0 0-1.213-.002c-.013-1.618.018-3.237-.013-4.856.01-.495-.392-.95-.896-.958-.669-.027-1.442.314-1.742.929-.043 1.628-.003 3.26-.018 4.888a95.65 95.65 0 0 0-1.221-.003c-.003-2.216-.003-4.432 0-6.649.402.002.806 0 1.209-.004.008.215.014.43.023.644m-23.426-.625c1.038-.328 2.298-.099 3.037.736.617.726.817 1.714.799 2.646.002.952-.239 1.97-.933 2.662-1.181 1.115-3.404.966-4.282-.457-.638-1.037-.685-2.34-.433-3.503.206-.94.855-1.822 1.812-2.083Zm.45.873c-.786.276-1.103 1.163-1.16 1.928-.053.838-.037 1.779.492 2.478.461.62 1.42.722 2.04.29.47-.34.66-.932.757-1.48.095-.916.094-1.934-.457-2.72-.36-.528-1.087-.67-1.67-.494M13.67 32.389c.832-.662 1.982-.75 2.986-.523.948.229 1.695.947 2.124 1.803-.33.19-.665.366-1.01.528-.493-1.138-1.936-1.762-3.066-1.18-.776.367-.842 1.607-.09 2.039 1.138.677 2.56.779 3.61 1.624 1.095.917.923 2.864-.264 3.63-1.74 1.13-4.463.577-5.403-1.345.326-.193.654-.384.988-.565.36.613.903 1.161 1.618 1.323.742.181 1.664.172 2.228-.417.484-.539.362-1.472-.264-1.85-1.14-.716-2.623-.748-3.648-1.677-.97-.881-.826-2.605.191-3.392m23.364-.534c.409 0 .816 0 1.224-.002.003 2.383.003 4.765-.001 7.15.004.2.001.41.087.598.207.315.64.167.962.207-.004.317-.005.635-.01.953-.564.03-1.19.14-1.689-.193-.444-.257-.581-.806-.57-1.283-.005-2.477 0-4.954-.003-7.43Zm-16.598.432 1.203.001c.004.613.004 1.222.001 1.835.415.002.828.002 1.243.009.001.305.004.614.01.92-.416.01-.833.01-1.248.012-.003 1.31 0 2.62-.003 3.93-.013.269.076.522.157.774.358.068.722.086 1.084.07l.005.91c-.657.064-1.389.145-1.974-.232-.401-.266-.495-.785-.482-1.231a900.1 900.1 0 0 0 0-4.19 22.302 22.302 0 0 0-1.099-.041c.003-.31.004-.618.003-.926l1.078-.005c.027-.613.02-1.224.024-1.836m3.165 3.077c.92-1.162 2.618-1.747 4.01-1.132.595.287.994.906 1.04 1.562.088 1.325-.036 2.655.068 3.98l.593.133c-.008.289-.012.579-.018.869-.663.113-1.393-.013-1.78-.615-.802.62-1.913 1-2.881.536-1.167-.466-1.34-2.19-.448-3 .905-.823 2.179-.909 3.302-1.235-.007-.508-.04-1.161-.596-1.38-.935-.364-1.89.227-2.482.926-.276-.207-.541-.426-.807-.644m1.629 2.8c-.588.419-.553 1.478.154 1.754.72.24 1.5-.092 2.038-.578.112-.629.02-1.292.046-1.934-.76.188-1.59.285-2.237.757m6.372-3.379c.52-.442 1.151-.8 1.853-.798.662-.05 1.37.226 1.718.811.386.653.31 1.44.321 2.168-.02 1.27.038 2.541-.036 3.812-.4-.002-.802-.004-1.202-.001-.014-1.56 0-3.12-.006-4.68.026-.422-.16-.897-.573-1.066-.61-.208-1.273.046-1.75.44-.146.129-.352.257-.32.485-.019 1.605.002 3.212-.01 4.818-.393.003-.786.004-1.18.01-.118-2.213-.02-4.435-.05-6.651.41-.001.823-.003 1.233-.001l.001.655m9.196-.069c.928-.866 2.493-.98 3.519-.221.998.753 1.173 2.106 1.126 3.273-1.467 0-2.935-.002-4.402 0 .077.61.164 1.277.602 1.745.428.475 1.149.558 1.736.382.486-.17.808-.601 1.087-1.009.292.163.587.328.884.486-.774 1.81-3.537 2.066-4.764.602-.62-.754-.767-1.777-.733-2.724.018-.912.274-1.88.945-2.533m.814.702c-.352.401-.449.943-.551 1.449 1.074.008 2.149.005 3.225 0-.087-.493-.162-1.02-.483-1.424-.513-.675-1.656-.67-2.19-.025Zm4.188-1.295c.43 0 .858 0 1.286.003.566 1.647 1.12 3.3 1.718 4.935.62-1.629 1.136-3.292 1.71-4.939h1.2c-.832 2.413-1.706 4.808-2.549 7.215-.25.695-.505 1.464-1.14 1.903-.67.367-1.487.263-2.178.016l.315-.939c.42.086.938.317 1.288-.049.375-.443.544-1.027.725-1.568-.742-2.206-1.596-4.38-2.373-6.578"/>
</svg>
