<svg xmlns="http://www.w3.org/2000/svg" width="60" height="60" fill="none" viewBox="0 0 60 60">
  <rect width="59" height="59" x=".5" y=".5" fill="#fff" stroke="#E7E7E7" rx="3.5"/>
  <g transform="translate(8.5, 6) scale(1.1)">
    <!-- Icon: gold diamond -->
    <path d="M19.58,21.31a.72.72,0,0,1-.51-.21l-6.36-6.36a5.79,5.79,0,0,1,0-8.17L19.08.21a.72.72,0,0,1,1,0l6.36,6.36a5.79,5.79,0,0,1,0,8.17L20.09,21.1a.72.72,0,0,1-.51.21m0-19.58L13.73,7.58a4.35,4.35,0,0,0,0,6.15l5.86,5.85,5.85-5.85a4.36,4.36,0,0,0,0-6.15Z" fill="#c7b000"/>
    <!-- Icon: large green diamond -->
    <path d="M19.56,43.28h0a.71.71,0,0,1-.51-.21L1.69,25.71a5.78,5.78,0,0,1,0-8.17l4-4a.72.72,0,0,1,1,0L24,30.92a5.79,5.79,0,0,1,0,8.17l-4,4a.71.71,0,0,1-.51.21M6.18,15.07,2.7,18.55a4.35,4.35,0,0,0,0,6.14L19.56,41.55,23,38.07a4.36,4.36,0,0,0,0-6.15Z" fill="#63a70a"/>
    <!-- Icon: small green diamond -->
    <path d="M30.55,32.29a.71.71,0,0,1-.51-.21l-4-4a5.79,5.79,0,0,1,0-8.17l6.37-6.37a.72.72,0,0,1,1,0l4,4a5.78,5.78,0,0,1,0,8.17l-6.37,6.38a.71.71,0,0,1-.51.21M33,15.09,27.08,21a4.35,4.35,0,0,0,0,6.15l3.47,3.47,5.87-5.87a4.35,4.35,0,0,0,0-6.15Z" fill="#63a70a"/>
  </g>
</svg>
