<svg xmlns="http://www.w3.org/2000/svg" width="60" height="60" fill="none" viewBox="0 0 60 60">
  <rect width="60" height="60" fill="#001F31" rx="4"/>
  <g clip-path="url(#a)">
    <path fill="#fff" fill-rule="evenodd" d="M19.443 11.005c1.487.039 2.967.245 4.431.504 6.075 1.111 11.952 3.583 16.832 7.443 3.323 2.614 6.136 5.878 8.294 9.536-.92 1.586-2.017 3.06-3.187 4.464-2.403 2.855-5.202 5.373-8.312 7.414a34.079 34.079 0 0 1-10.644 4.642c-2.473.609-5.012.914-7.553.98-1.273-2.16-2.169-4.528-2.871-6.933a36.974 36.974 0 0 1-1.41-10.727 37.963 37.963 0 0 1 1.573-10.17c.723-2.47 1.698-4.856 2.847-7.153Zm1.684 11.808c-.048 2.988.802 5.96 2.294 8.528 1.217 2.098 2.81 3.982 4.71 5.474-.456.487-.954.927-1.48 1.329-1.723 1.313-3.661 2.306-5.67 3.084.046.152.096.303.144.455 3.372-.907 6.607-2.392 9.45-4.446 1.992-1.45 3.773-3.229 5.083-5.34a15.693 15.693 0 0 0 2.278-6.6 15.291 15.291 0 0 1 6.154 4.13c.065-.09.132-.18.2-.27-1.346-1.924-3.012-3.631-4.966-4.924-2.321-1.547-5.032-2.45-7.795-2.715a20.896 20.896 0 0 0-8.605 1.006c-.292-2.541-.192-5.162.524-7.625-.154-.013-.308-.025-.46-.039-1.122 2.493-1.859 5.201-1.861 7.953Z" clip-rule="evenodd"/>
  </g>
  <defs>
    <clipPath id="a">
      <path fill="#fff" d="M15 11h34v35H15z"/>
    </clipPath>
  </defs>
</svg>
