<svg width="60" height="60" viewBox="0 0 60 60" fill="none" xmlns="http://www.w3.org/2000/svg">
<rect width="60" height="60" rx="4" fill="black"/>
<rect x="10" y="9" width="40" height="40" fill="black"/>
<path fill-rule="evenodd" clip-rule="evenodd" d="M19.9361 30.8611L32.0048 18.6446C32.8248 17.8146 33.9158 17.3582 35.0787 17.3582C36.2408 17.3582 37.3318 17.8141 38.1509 18.6442L39.0912 19.596L40.9722 17.6919L40.0319 16.7401C38.711 15.403 36.952 14.6666 35.0779 14.6666C33.2046 14.6671 31.4452 15.4034 30.1242 16.741L18.0555 28.957L19.9361 30.8611Z" fill="white"/>
<path fill-rule="evenodd" clip-rule="evenodd" d="M36.0833 22.7025L34.1934 20.8013L22.0681 32.9997C20.3653 34.7126 17.5948 34.7131 15.8925 33.0006C14.1897 31.2876 14.1897 28.5001 15.8925 26.7871L26.3555 16.2619L24.4656 14.3611L14.003 24.8863C11.2583 27.6475 11.2583 32.1406 14.003 34.9013C15.3302 36.2365 17.0975 36.9722 18.9796 36.9722C20.8622 36.9722 22.6304 36.236 23.9575 34.9009L36.0833 22.7025Z" fill="white"/>
<path fill-rule="evenodd" clip-rule="evenodd" d="M48.08 24.9871C46.7533 23.6519 44.986 22.9166 43.1029 22.9166C41.2203 22.9171 39.4522 23.6524 38.125 24.988L26 37.1861L27.889 39.0874L40.0149 26.8888C41.7181 25.1758 44.4882 25.1762 46.1905 26.8883C47.014 27.7167 47.4674 28.8194 47.4674 29.9945C47.4674 31.1699 47.014 32.2731 46.1905 33.1015L35.7279 43.6269L37.6178 45.5277L48.08 35.0027C50.8252 32.2415 50.8252 27.7483 48.08 24.9871Z" fill="white"/>
<path fill-rule="evenodd" clip-rule="evenodd" d="M42.1473 29.0278L30.0789 41.2443C28.3837 42.9594 25.6267 42.9602 23.9324 41.2447L22.9922 40.2929L21.1112 42.197L22.0515 43.1488C23.3724 44.4859 25.1313 45.2223 27.0059 45.2223C28.8791 45.2218 30.6381 44.4855 31.9594 43.1479L44.0279 30.9319L42.1473 29.0278Z" fill="white"/>
</svg>
