<svg version="1.1" id="Logo_Sunbit_white" xmlns:x="ns_extend;" xmlns:i="ns_ai;" xmlns:graph="ns_graphs;" xmlns="http://www.w3.org/2000/svg" xmlns:xlink="http://www.w3.org/1999/xlink" x="0px" y="0px" viewBox="0 0 56 56" style="enable-background:new 0 0 56 56;" xml:space="preserve">
 <style type="text/css">
  .st0{fill:#3155A5;}
	.st1{fill:#F6931D;}
 </style>
 <metadata>
  <sfw xmlns="ns_sfw;">
   <slices>
   </slices>
   <sliceSourceBounds bottomLeftOrigin="true" height="56" width="56" x="-59" y="68.5">
   </sliceSourceBounds>
  </sfw>
 </metadata>
 <g>
  <path id="Fill_1" class="st0" d="M36.7,38.2C36.7,38.2,36.7,38.2,36.7,38.2l6.4,12.3c0.3,0.5,0.9,0.7,1.4,0.4c0,0,0.1,0,0.1-0.1
		c2.6-1.9,4.9-4.1,6.7-6.7c0.3-0.5,0.2-1.1-0.3-1.5c0,0-0.1-0.1-0.1-0.1l-12.2-6.4c0,0,0,0-0.1,0C38.2,36.9,37.5,37.6,36.7,38.2">
  </path>
  <g id="Group_5-2">
   <path id="Fill_3" class="st0" d="M30.4,41.3l-0.5,13.4c0,0.7,0.5,1.3,1.2,1.3c0.1,0,0.1,0,0.2,0c2.9-0.3,5.8-1.1,8.5-2.3
			c0.7-0.3,0.9-1.1,0.6-1.8c0,0,0-0.1-0.1-0.1l-7-11.3c0,0,0-0.1-0.1-0.1c-0.9,0.3-1.8,0.6-2.8,0.7C30.4,41.2,30.4,41.3,30.4,41.3">
   </path>
  </g>
  <path id="Fill_6" class="st0" d="M54.8,29.9l-13.6,0.5c0,0,0,0,0,0c-0.1,0.9-0.4,1.9-0.8,2.8c0,0,0.1,0,0.1,0.1l11.4,7
		c0.5,0.3,1.3,0.2,1.6-0.4c0,0,0-0.1,0.1-0.1c1.3-2.7,2.1-5.7,2.4-8.7c0-0.6-0.4-1.2-1-1.2C54.9,29.9,54.9,29.9,54.8,29.9">
  </path>
  <path id="Fill_8" class="st0" d="M17.8,36.1C17.8,36.1,17.8,36.1,17.8,36.1L5.6,42.5C5,42.8,4.8,43.5,5.1,44c0,0,0,0.1,0.1,0.1
		c1.9,2.6,4.1,4.9,6.7,6.7c0.5,0.3,1.1,0.2,1.5-0.3c0,0,0.1-0.1,0.1-0.1l6.4-12.2c0,0,0,0,0-0.1C19.1,37.6,18.4,36.9,17.8,36.1">
  </path>
  <g id="Group_12-2">
   <path id="Fill_10" class="st0" d="M22.8,40.5l-7,11.3c-0.4,0.6-0.2,1.4,0.4,1.8c0,0,0.1,0.1,0.1,0.1c2.7,1.2,5.5,2,8.5,2.3
			c0.7,0.1,1.3-0.5,1.3-1.1c0-0.1,0-0.1,0-0.2l-0.5-13.4c0,0,0-0.1,0-0.1C24.6,41.1,23.7,40.8,22.8,40.5
			C22.8,40.5,22.8,40.5,22.8,40.5">
   </path>
  </g>
  <path id="Fill_13" class="st0" d="M14.7,30.4L1.2,29.9c-0.6,0-1.2,0.4-1.2,1.1C0,31,0,31,0,31.1c0.3,3,1.1,6,2.4,8.7
		c0.3,0.6,1,0.8,1.5,0.5c0,0,0.1,0,0.1-0.1l11.4-7c0,0,0.1,0,0.1-0.1C15.2,32.3,14.9,31.4,14.7,30.4C14.8,30.4,14.8,30.4,14.7,30.4">
  </path>
  <g id="Group_17-2">
   <path id="Fill_15" class="st1" d="M33.2,15.5l7-11.3c0.4-0.6,0.2-1.4-0.4-1.8c0,0-0.1-0.1-0.1-0.1c-2.7-1.2-5.5-2-8.5-2.3
			c-0.7-0.1-1.3,0.5-1.4,1.1c0,0.1,0,0.1,0,0.2l0.5,13.4c0,0,0,0.1,0,0.1C31.4,15,32.3,15.2,33.2,15.5
			C33.2,15.5,33.2,15.5,33.2,15.5">
   </path>
  </g>
  <path id="Fill_18" class="st1" d="M38.8,19.9L38.8,19.9l12.3-6.4c0.5-0.3,0.7-0.9,0.4-1.4c0,0,0-0.1-0.1-0.1
		c-1.9-2.6-4.1-4.9-6.7-6.8c-0.5-0.3-1.1-0.2-1.5,0.3c0,0,0,0.1-0.1,0.1l-6.4,12.2c0,0,0,0,0,0C37.5,18.4,38.2,19.1,38.8,19.9">
  </path>
  <path id="Fill_20" class="st1" d="M41.2,25.6l13.6,0.5c0.6,0,1.2-0.4,1.2-1.1c0,0,0-0.1,0-0.1c-0.3-3-1.1-6-2.4-8.7
		c-0.3-0.6-1-0.8-1.6-0.5c0,0-0.1,0-0.1,0.1l-11.4,7c0,0,0,0-0.1,0C40.8,23.7,41.1,24.7,41.2,25.6L41.2,25.6">
  </path>
  <path id="Fill_22" class="st1" d="M19.9,17.8C19.9,17.8,19.9,17.8,19.9,17.8L13.5,5.6C13.2,5,12.6,4.8,12,5.1c0,0-0.1,0-0.1,0.1
		C9.3,7,7,9.3,5.2,11.9c-0.3,0.5-0.2,1.1,0.3,1.5c0,0,0.1,0.1,0.1,0.1l12.2,6.4c0,0,0,0,0.1,0C18.5,19.1,19.2,18.5,19.9,17.8">
  </path>
  <g id="Group_26-2">
   <path id="Fill_24" class="st1" d="M25.6,14.7l0.5-13.4C26.2,0.6,25.6,0,25,0c-0.1,0-0.1,0-0.2,0c-2.9,0.3-5.8,1.1-8.5,2.3
			c-0.7,0.3-0.9,1.1-0.6,1.8c0,0.1,0.1,0.1,0.1,0.1l7,11.3c0,0,0,0.1,0.1,0.1c0.9-0.3,1.8-0.6,2.8-0.7
			C25.6,14.8,25.6,14.7,25.6,14.7">
   </path>
  </g>
  <g id="Group_29-2">
   <path id="Fill_27" class="st1" d="M15.5,22.8L4,15.7c-0.5-0.3-1.3-0.2-1.6,0.4c0,0,0,0.1-0.1,0.1C1.1,19,0.3,21.9,0,24.9
			c0,0.6,0.4,1.2,1,1.2c0,0,0.1,0,0.1,0l13.6-0.5c0,0,0,0,0.1,0C14.9,24.7,15.2,23.7,15.5,22.8C15.5,22.8,15.5,22.8,15.5,22.8">
   </path>
  </g>
 </g>
</svg>